<?xml version="1.0" encoding="utf-8"?>
<!-- Generator: Adobe Illustrator 15.1.0, SVG Export Plug-In . SVG Version: 6.00 Build 0)  -->
<!DOCTYPE svg PUBLIC "-//W3C//DTD SVG 1.1//EN" "http://www.w3.org/Graphics/SVG/1.1/DTD/svg11.dtd">
<svg version="1.1" id="Layer_1" xmlns="http://www.w3.org/2000/svg" xmlns:xlink="http://www.w3.org/1999/xlink" x="0px" y="0px"
	 width="300px" height="300px" viewBox="0 0 300 300" enable-background="new 0 0 300 300" xml:space="preserve">
<g>
	<g>
		<path fill="#EE7A52" d="M47.193,166.664c-19.601,0-35.526,15.937-35.526,35.526c0,19.6,15.926,35.525,35.526,35.525h5.075v25.376
			c0,13.988,11.379,25.377,25.376,25.377h91.354c13.988,0,25.376-11.389,25.376-25.377V161.589c0-2.803-2.283-5.075-5.074-5.075
			H57.344c-2.804,0-5.075,2.272-5.075,5.075v5.075H47.193L47.193,166.664z M47.193,227.565c-13.997,0-25.376-11.387-25.376-25.375
			c0-13.987,11.379-25.377,25.376-25.377h5.075v50.752H47.193L47.193,227.565z M85.544,146.362c1.899,0,3.625-1.066,4.508-2.739
			c0.881-1.676,0.73-3.704-0.355-5.259l-2.488-3.511l-1.269-1.817l-20.059-28.32c1.727-1.807,3.159-3.827,4.104-6.081
			c2.151-5.125,2.029-11.074-0.356-16.707c-1.238-2.953-3.309-5.574-5.49-8.323c-5.715-7.218-8.943-12.049-3.596-20.229
			c1.139-1.758,1.106-4.009-0.091-5.715c-1.197-1.688-3.298-2.489-5.338-2.001c-23,5.563-31.335,26.005-29.354,42.652
			c1.562,13.135,9.246,22.239,19.468,23.701l15.459,31.508c0.852,1.747,2.627,2.841,4.557,2.841H85.544L85.544,146.362z
			 M196.83,86.189l-26.609,16.285l27.637,22.845l6.597-33.952c0.324-1.949-0.519-3.907-2.151-5.034
			C200.657,85.227,198.525,85.165,196.83,86.189L196.83,86.189z M179.148,146.362c1.594,0,3.105-0.751,4.05-2.029l11.633-15.509
			l-27.253-22.708l-22.505,31.529c-0.842,0.81-1.33,1.937-1.451,3.155V49.933c0-2.8-2.283-5.075-5.075-5.075H97.944
			c-2.8,0-5.075,2.275-5.075,5.075v6.227h25.377c2.791,0,5.075,2.273,5.075,5.075c0,2.813-2.284,5.075-5.075,5.075H92.87v10.15
			h12.688c2.791,0,5.075,2.275,5.075,5.075c0,2.812-2.284,5.075-5.075,5.075H92.87v10.152h25.377c2.791,0,5.075,2.272,5.075,5.075
			c0,2.812-2.284,5.075-5.075,5.075H92.87v10.15h12.688c2.791,0,5.075,2.274,5.075,5.076c0,2.813-2.284,5.076-5.075,5.076H92.87
			v14.075c0,2.812,2.274,5.075,5.075,5.075h40.604c2.719,0,4.882-2.14,5.025-4.82c0.141,2.68,2.304,4.82,5.012,4.82H179.148
			L179.148,146.362z M179.148,146.362"/>
	</g>
</g>
<path fill="#EE7A52" d="M277.417,270.599c0,9.829-8.041,17.87-17.87,17.87h-14.312c-9.83,0-17.871-8.041-17.871-17.87V98.257
	c0-9.828,50.053-9.828,50.053,0V270.599z"/>
<path fill="#EE7A52" d="M221.824,45.081v-12.5c0,0,5.127-5.648,31.945-5.648c21.952,0,28.737,5.648,28.737,5.648v11.185
	l-5.09,45.979c0,0-1.578-4.456-26.305-4.456c-23.569,0-23.748,4.456-23.748,4.456L221.824,45.081z"/>
</svg>
