<?xml version="1.0" encoding="utf-8"?>
<!-- Generator: Adobe Illustrator 15.1.0, SVG Export Plug-In . SVG Version: 6.00 Build 0)  -->
<!DOCTYPE svg PUBLIC "-//W3C//DTD SVG 1.1 Basic//EN" "http://www.w3.org/Graphics/SVG/1.1/DTD/svg11-basic.dtd">
<svg version="1.1" baseProfile="basic" id="Layer_1"
	 xmlns="http://www.w3.org/2000/svg" xmlns:xlink="http://www.w3.org/1999/xlink" x="0px" y="0px" width="103.68px" height="50.4px"
	 viewBox="0 0 103.68 50.4" xml:space="preserve">
<g>
	<path fill-rule="evenodd" clip-rule="evenodd" fill="#FFFFFF" d="M58.858,16.436c-1.975-2.174-5.73-3.987-10.675-3.919
		c-3.032,0.038-5.924,1.045-5.445,4.356c0.562,3.884,4.792,2.278,8.06,3.702c1.011,0.441,2.208,1.41,2.833,3.051
		c1.705,4.484-2.465,7.273-5.881,7.624c-8.763,0.896-14.253-5.177-15.903-11.11c-1.098-3.943-0.377-7.885-2.178-11.981
		c-1.967-4.471-8.25-6.735-13.289-5.01c-5.335,1.827-8.126,6.918-8.496,15.031c2.688,0,5.373,0,8.061,0
		c0.392-2.855,0.644-7.109,4.356-6.97c4.773,0.179,3.222,7.333,4.357,12.199c0.735,3.149,3.222,7.481,5.012,9.367
		c6.815,7.181,20.904,8.683,28.099,2.614c1.312-1.106,1.778-2.673,3.485-3.485c0,2.321,0,4.648,0,6.97c2.76,0,5.52,0,8.278,0
		c0.507-8.352,0.072-17.644,0.219-26.356c-2.832,0-5.664,0-8.497,0c-0.133,2.334,0.276,5.212-0.217,7.188
		C60.041,18.839,59.727,17.397,58.858,16.436z M46.442,3.368c-7.056,0.645-13.288,4.569-13.288,12.417
		c0,3.975,2.042,8.645,5.008,10.891c2.936,2.224,13.674,4.815,13.725-1.089c0.038-4.665-5.275-2.811-8.713-4.793
		c-3.297-1.899-3.101-7.867,0.434-9.365c3.134-1.328,8.494-0.437,12.635-0.437c4.822,0,8.859,0,13.288,0
		c0.496-2.119,0.083-5.145,0.219-7.623C60.624,3.918,54.485,2.63,46.442,3.368z M8.538,20.575c-3.739,1.14-6.037,5.932-5.445,10.238
		c1.031,7.492,8.596,8.201,16.772,7.843c4.896-0.217,10.008,0.342,14.594-0.218c-2.595-1.36-4.658-2.84-6.535-5.011
		c-1.139-1.319-1.471-2.703-2.613-3.049c-1.925-0.584-5.191,0-7.624,0c-2.447,0-5.821,0.823-6.317-1.31
		c1.482-1.122,4.11-0.651,6.535-0.651c2.477,0,5.039,0.176,6.971-0.219c-1.31-2.103-1.732-5.092-2.178-8.059
		C17.578,20.648,12.657,19.32,8.538,20.575z"/>
</g>
<g>
	<path fill="#FFFFFF" d="M4.859,40.518h0.805l1.82,6.671H6.425l-0.535-2.084H4.367l-0.512,2.084H3L4.859,40.518z M4.553,44.25h1.174
		l-0.572-2.409L4.553,44.25z"/>
	<path fill="#FFFFFF" d="M9.553,42.521c0.171,0,0.317,0.025,0.433,0.072c0.119,0.049,0.217,0.108,0.295,0.183v-2.252h0.855v5.082
		c0,0.119,0.003,0.245,0.012,0.378c0.009,0.134,0.025,0.27,0.043,0.408c0.019,0.137,0.045,0.273,0.075,0.41
		c0.031,0.135,0.068,0.264,0.111,0.386h-0.797c-0.022-0.023-0.044-0.052-0.067-0.09c-0.024-0.036-0.046-0.075-0.069-0.117
		c-0.021-0.044-0.041-0.088-0.058-0.134c-0.016-0.047-0.031-0.091-0.042-0.135c-0.119,0.179-0.254,0.317-0.408,0.415
		c-0.156,0.098-0.331,0.146-0.528,0.146c-0.247,0-0.468-0.062-0.665-0.183c-0.195-0.122-0.36-0.289-0.498-0.503
		c-0.135-0.213-0.238-0.466-0.311-0.757c-0.07-0.293-0.106-0.608-0.106-0.948c0-0.308,0.039-0.602,0.119-0.886
		c0.078-0.284,0.191-0.534,0.342-0.754c0.146-0.218,0.327-0.394,0.541-0.524C9.045,42.588,9.285,42.521,9.553,42.521z M9.561,46.437
		c0.131,0,0.254-0.019,0.366-0.055c0.113-0.033,0.23-0.098,0.355-0.189v-2.661c-0.091-0.056-0.189-0.098-0.292-0.129
		c-0.103-0.03-0.214-0.047-0.333-0.047c-0.148,0-0.278,0.039-0.394,0.12c-0.115,0.077-0.212,0.185-0.292,0.32
		c-0.08,0.135-0.14,0.293-0.18,0.471c-0.041,0.182-0.063,0.373-0.063,0.573c0,0.205,0.018,0.403,0.051,0.594
		c0.034,0.192,0.086,0.361,0.153,0.51c0.071,0.149,0.156,0.269,0.26,0.36C9.297,46.393,9.42,46.437,9.561,46.437z"/>
	<path fill="#FFFFFF" d="M13.592,46.166l0.873-3.572h0.933l-1.426,4.595h-0.747l-1.457-4.595H12.7L13.592,46.166z"/>
	<path fill="#FFFFFF" d="M19.024,46.427c-0.134,0.188-0.266,0.338-0.39,0.451c-0.126,0.114-0.253,0.201-0.377,0.263
		c-0.125,0.062-0.251,0.101-0.381,0.123c-0.13,0.018-0.264,0.027-0.405,0.027c-0.301,0-0.561-0.067-0.776-0.203
		c-0.216-0.138-0.39-0.318-0.527-0.545c-0.138-0.229-0.237-0.489-0.301-0.783c-0.067-0.295-0.099-0.601-0.099-0.92
		c0-0.306,0.033-0.6,0.1-0.879s0.169-0.524,0.307-0.736c0.136-0.213,0.309-0.385,0.515-0.511c0.206-0.128,0.451-0.192,0.73-0.192
		c0.249,0,0.468,0.044,0.657,0.132c0.188,0.089,0.345,0.215,0.472,0.38c0.125,0.163,0.219,0.364,0.282,0.597
		c0.063,0.235,0.097,0.495,0.097,0.786c0,0.108-0.004,0.224-0.009,0.342c-0.005,0.116-0.017,0.241-0.035,0.366h-2.214
		c0,0.135,0.019,0.281,0.056,0.439c0.037,0.16,0.089,0.311,0.162,0.449c0.07,0.14,0.158,0.257,0.265,0.352
		c0.104,0.093,0.223,0.14,0.36,0.14c0.12,0,0.222-0.01,0.309-0.034c0.089-0.022,0.171-0.059,0.249-0.11
		c0.074-0.051,0.146-0.118,0.215-0.201c0.069-0.084,0.142-0.188,0.222-0.314L19.024,46.427z M17.37,43.351
		c-0.137,0-0.252,0.032-0.342,0.095c-0.089,0.062-0.159,0.146-0.214,0.247c-0.053,0.102-0.09,0.219-0.113,0.348
		c-0.021,0.132-0.03,0.266-0.03,0.404h1.354c0-0.119-0.006-0.242-0.019-0.372c-0.013-0.129-0.043-0.246-0.091-0.352
		c-0.044-0.108-0.111-0.195-0.197-0.264C17.634,43.387,17.515,43.351,17.37,43.351z"/>
	<path fill="#FFFFFF" d="M20.495,42.594c0.044,0.302,0.078,0.606,0.098,0.92c0.041-0.125,0.102-0.247,0.18-0.366
		s0.167-0.226,0.264-0.319c0.096-0.09,0.197-0.165,0.302-0.222c0.106-0.056,0.206-0.085,0.303-0.085
		c0.123,0,0.212,0.011,0.271,0.029c0.057,0.021,0.104,0.041,0.141,0.06l-0.186,1c-0.069-0.042-0.134-0.072-0.194-0.087
		c-0.061-0.015-0.12-0.021-0.18-0.021c-0.203,0-0.377,0.062-0.523,0.187c-0.145,0.122-0.266,0.29-0.355,0.493l0.005,3.007h-0.86
		V43.37c0-0.05,0-0.11-0.002-0.186c-0.002-0.073-0.002-0.148-0.004-0.226c-0.001-0.076-0.001-0.148-0.005-0.214
		c-0.003-0.067-0.008-0.117-0.011-0.151H20.495z"/>
	<path fill="#FFFFFF" d="M22.107,42.823l0.521-0.229l0.223-1.186h0.632v1.186h0.869l-0.078,0.793h-0.792v2.344
		c0,0.13,0.007,0.239,0.022,0.326c0.013,0.09,0.033,0.161,0.059,0.213c0.026,0.056,0.06,0.092,0.099,0.114
		c0.039,0.025,0.084,0.034,0.136,0.034c0.071,0,0.148-0.009,0.238-0.032c0.087-0.02,0.186-0.058,0.297-0.11l0.197,0.539
		c-0.159,0.157-0.313,0.273-0.464,0.35c-0.152,0.077-0.301,0.116-0.446,0.116c-0.197,0-0.358-0.035-0.486-0.101
		c-0.126-0.068-0.227-0.164-0.303-0.286c-0.076-0.123-0.128-0.272-0.157-0.45c-0.03-0.174-0.045-0.371-0.045-0.59v-2.467h-0.521
		V42.823z"/>
	<path fill="#FFFFFF" d="M24.903,41.155c0-0.088,0.013-0.167,0.037-0.241c0.025-0.075,0.06-0.137,0.103-0.191
		c0.042-0.054,0.093-0.097,0.152-0.126c0.056-0.029,0.119-0.046,0.184-0.046c0.07,0,0.134,0.018,0.191,0.049
		c0.056,0.034,0.104,0.078,0.148,0.134c0.041,0.055,0.071,0.119,0.093,0.195c0.022,0.074,0.034,0.154,0.034,0.235
		s-0.011,0.16-0.034,0.235c-0.022,0.074-0.052,0.137-0.093,0.196c-0.044,0.055-0.092,0.1-0.148,0.135
		c-0.058,0.034-0.121,0.051-0.191,0.051c-0.065,0-0.128-0.017-0.184-0.053c-0.059-0.036-0.109-0.083-0.152-0.141
		c-0.043-0.059-0.078-0.125-0.103-0.2C24.916,41.313,24.903,41.235,24.903,41.155z M24.946,42.594h0.855v4.595h-0.855V42.594z"/>
	<path fill="#FFFFFF" d="M26.907,45.849c0.324,0.465,0.671,0.698,1.039,0.698c0.08,0,0.158-0.011,0.227-0.032
		c0.068-0.021,0.13-0.055,0.18-0.1c0.052-0.045,0.089-0.104,0.119-0.174c0.03-0.073,0.045-0.157,0.045-0.257
		c0-0.07-0.011-0.136-0.035-0.191c-0.024-0.054-0.056-0.107-0.095-0.148c-0.039-0.043-0.083-0.079-0.132-0.112
		c-0.048-0.032-0.095-0.06-0.145-0.084c-0.088-0.049-0.178-0.092-0.265-0.128c-0.089-0.039-0.179-0.083-0.268-0.13
		c-0.052-0.024-0.111-0.053-0.185-0.088c-0.07-0.036-0.143-0.079-0.22-0.132c-0.078-0.054-0.152-0.116-0.227-0.186
		c-0.074-0.07-0.141-0.156-0.202-0.254c-0.06-0.101-0.11-0.216-0.147-0.34c-0.038-0.124-0.056-0.27-0.056-0.436
		c0-0.205,0.039-0.383,0.115-0.536c0.078-0.152,0.179-0.28,0.305-0.386c0.13-0.104,0.272-0.181,0.433-0.233
		c0.162-0.052,0.328-0.079,0.499-0.079c0.271,0,0.519,0.042,0.741,0.123c0.221,0.084,0.424,0.221,0.609,0.412l-0.388,0.776
		c-0.068-0.089-0.135-0.168-0.199-0.237c-0.064-0.068-0.133-0.13-0.204-0.178c-0.074-0.05-0.152-0.088-0.238-0.113
		s-0.182-0.038-0.292-0.038c-0.093,0-0.171,0.015-0.236,0.042c-0.066,0.029-0.121,0.066-0.164,0.114
		c-0.042,0.049-0.074,0.104-0.093,0.168c-0.021,0.062-0.029,0.126-0.029,0.195c0,0.076,0.015,0.143,0.043,0.198
		c0.027,0.054,0.064,0.103,0.109,0.144c0.045,0.042,0.097,0.078,0.152,0.105c0.058,0.032,0.116,0.058,0.175,0.082
		c0.093,0.044,0.184,0.087,0.276,0.128c0.095,0.04,0.186,0.081,0.277,0.124c0.048,0.024,0.104,0.05,0.169,0.082
		s0.132,0.07,0.203,0.119c0.07,0.048,0.141,0.105,0.208,0.175c0.07,0.072,0.132,0.156,0.186,0.252
		c0.056,0.099,0.101,0.211,0.134,0.34c0.034,0.131,0.052,0.28,0.052,0.449c0,0.212-0.041,0.399-0.123,0.564
		c-0.082,0.162-0.188,0.3-0.32,0.407c-0.134,0.11-0.284,0.193-0.453,0.251c-0.167,0.057-0.34,0.084-0.516,0.084
		c-0.161,0-0.309-0.011-0.448-0.034c-0.14-0.022-0.273-0.061-0.4-0.114c-0.126-0.055-0.245-0.127-0.36-0.22
		c-0.111-0.092-0.219-0.208-0.319-0.347L26.907,45.849z"/>
	<path fill="#FFFFFF" d="M29.965,41.155c0-0.088,0.012-0.167,0.037-0.241c0.026-0.075,0.06-0.137,0.102-0.191
		c0.043-0.054,0.093-0.097,0.151-0.126c0.059-0.029,0.12-0.046,0.186-0.046c0.071,0,0.134,0.018,0.189,0.049
		c0.058,0.034,0.108,0.078,0.149,0.134c0.041,0.055,0.074,0.119,0.096,0.195c0.022,0.074,0.032,0.154,0.032,0.235
		s-0.009,0.16-0.032,0.235c-0.022,0.074-0.056,0.137-0.096,0.196c-0.041,0.055-0.091,0.1-0.149,0.135
		c-0.056,0.034-0.119,0.051-0.189,0.051c-0.065,0-0.126-0.017-0.186-0.053c-0.058-0.036-0.108-0.083-0.151-0.141
		c-0.042-0.059-0.076-0.125-0.102-0.2C29.977,41.313,29.965,41.235,29.965,41.155z M30.005,42.594h0.855v4.595h-0.855V42.594z"/>
	<path fill="#FFFFFF" d="M31.83,43.383c0-0.094-0.003-0.21-0.007-0.354c-0.002-0.14-0.015-0.287-0.037-0.436h0.806
		c0.006,0.021,0.011,0.047,0.018,0.083c0.008,0.037,0.014,0.073,0.022,0.115c0.007,0.041,0.015,0.084,0.019,0.128
		c0.005,0.045,0.011,0.084,0.015,0.121c0.052-0.062,0.115-0.125,0.191-0.188c0.075-0.061,0.155-0.118,0.243-0.167
		c0.089-0.051,0.187-0.089,0.289-0.12c0.102-0.028,0.21-0.044,0.321-0.044c0.184,0,0.357,0.037,0.515,0.11s0.295,0.18,0.414,0.32
		c0.115,0.139,0.208,0.308,0.277,0.51c0.067,0.2,0.102,0.432,0.102,0.687v3.04h-0.854v-2.833c0-0.184-0.015-0.34-0.042-0.469
		c-0.03-0.127-0.072-0.229-0.128-0.308c-0.055-0.077-0.125-0.135-0.207-0.171c-0.079-0.035-0.173-0.053-0.278-0.053
		c-0.059,0-0.126,0.007-0.196,0.02c-0.071,0.014-0.141,0.031-0.216,0.059c-0.073,0.023-0.146,0.056-0.216,0.089
		c-0.071,0.033-0.138,0.071-0.199,0.115v3.551H31.83V43.383z"/>
	<path fill="#FFFFFF" d="M38.464,43.297c0.054,0.086,0.102,0.205,0.143,0.36c0.042,0.155,0.063,0.344,0.063,0.565
		c0,0.251-0.041,0.474-0.121,0.669c-0.08,0.197-0.184,0.361-0.311,0.497c-0.126,0.134-0.263,0.235-0.414,0.309
		c-0.15,0.07-0.293,0.104-0.431,0.104c-0.195,0-0.355-0.015-0.481-0.049c-0.127-0.03-0.23-0.072-0.315-0.125
		c-0.044,0.047-0.085,0.104-0.119,0.172c-0.036,0.066-0.052,0.144-0.052,0.231c0,0.041,0.017,0.076,0.052,0.112
		c0.037,0.033,0.085,0.066,0.141,0.098c0.059,0.03,0.126,0.06,0.204,0.085c0.074,0.028,0.154,0.053,0.233,0.072
		c0.083,0.022,0.164,0.042,0.242,0.061c0.082,0.021,0.155,0.035,0.224,0.05c0.112,0.023,0.229,0.051,0.349,0.076
		c0.119,0.025,0.235,0.056,0.349,0.093c0.115,0.037,0.22,0.082,0.323,0.137c0.101,0.056,0.189,0.122,0.264,0.205
		c0.078,0.081,0.138,0.181,0.182,0.295c0.044,0.115,0.067,0.251,0.067,0.411c0,0.212-0.03,0.397-0.09,0.553
		c-0.058,0.158-0.134,0.289-0.232,0.402c-0.098,0.113-0.21,0.202-0.339,0.272c-0.13,0.069-0.266,0.125-0.409,0.166
		c-0.145,0.04-0.29,0.067-0.441,0.084c-0.149,0.013-0.293,0.02-0.433,0.02c-0.252,0-0.471-0.021-0.657-0.068
		c-0.188-0.045-0.342-0.107-0.461-0.19c-0.121-0.083-0.209-0.181-0.268-0.295c-0.058-0.113-0.087-0.239-0.087-0.378
		c0-0.155,0.021-0.295,0.062-0.413c0.041-0.119,0.093-0.227,0.16-0.319c0.063-0.097,0.14-0.181,0.223-0.253
		c0.086-0.071,0.171-0.141,0.259-0.2c-0.046-0.035-0.102-0.073-0.169-0.113c-0.067-0.042-0.13-0.095-0.193-0.16
		c-0.063-0.064-0.115-0.146-0.16-0.243c-0.045-0.095-0.065-0.216-0.065-0.356c0-0.1,0.015-0.191,0.043-0.277
		c0.03-0.085,0.07-0.163,0.125-0.232c0.051-0.071,0.113-0.137,0.186-0.192c0.07-0.058,0.148-0.106,0.232-0.148
		c-0.089-0.086-0.167-0.174-0.228-0.265c-0.063-0.09-0.113-0.188-0.152-0.291c-0.039-0.104-0.067-0.216-0.086-0.335
		c-0.016-0.119-0.025-0.251-0.025-0.396c0-0.254,0.037-0.479,0.111-0.672c0.073-0.193,0.174-0.355,0.305-0.488
		c0.129-0.138,0.286-0.24,0.464-0.31c0.182-0.069,0.379-0.104,0.594-0.104c0.093,0,0.178,0.007,0.25,0.016
		c0.072,0.014,0.143,0.03,0.207,0.052c0.065,0.024,0.13,0.05,0.193,0.084c0.065,0.032,0.137,0.072,0.219,0.117
		c0.19-0.072,0.368-0.125,0.539-0.151s0.331-0.04,0.482-0.04l-0.141,0.824L38.464,43.297z M36.671,47.257
		c-0.046,0.046-0.085,0.097-0.115,0.157c-0.03,0.057-0.056,0.118-0.074,0.182c-0.021,0.063-0.034,0.126-0.045,0.19
		c-0.007,0.063-0.011,0.125-0.011,0.184c0,0.086,0.022,0.172,0.065,0.256c0.043,0.084,0.103,0.157,0.173,0.221
		c0.071,0.063,0.152,0.116,0.244,0.156c0.093,0.039,0.187,0.06,0.282,0.06c0.206,0,0.379-0.021,0.518-0.058
		c0.142-0.039,0.253-0.091,0.337-0.157c0.083-0.064,0.143-0.14,0.178-0.229c0.035-0.088,0.053-0.183,0.053-0.285
		c0-0.063-0.018-0.122-0.059-0.173c-0.039-0.051-0.093-0.093-0.161-0.132c-0.069-0.036-0.15-0.07-0.244-0.102
		c-0.097-0.028-0.2-0.06-0.31-0.091c-0.175-0.049-0.33-0.086-0.463-0.115C36.909,47.293,36.784,47.271,36.671,47.257z
		 M37.291,45.146c0.121,0,0.217-0.029,0.29-0.087c0.071-0.058,0.126-0.136,0.166-0.229c0.039-0.096,0.063-0.207,0.077-0.333
		c0.011-0.125,0.017-0.257,0.017-0.395c0-0.324-0.053-0.561-0.155-0.709c-0.104-0.147-0.255-0.221-0.456-0.221
		c-0.172,0-0.313,0.073-0.422,0.227c-0.107,0.148-0.162,0.373-0.162,0.676c0,0.143,0.011,0.277,0.033,0.405
		c0.024,0.13,0.062,0.243,0.112,0.342c0.051,0.097,0.119,0.177,0.2,0.235C37.072,45.117,37.172,45.146,37.291,45.146z"/>
	<path fill="#FFFFFF" d="M43.453,45.533c0.118,0.156,0.219,0.29,0.311,0.396c0.091,0.108,0.181,0.194,0.271,0.262
		c0.092,0.068,0.189,0.116,0.293,0.146c0.104,0.029,0.229,0.044,0.372,0.044c0.111,0,0.223-0.015,0.327-0.044
		c0.107-0.03,0.2-0.081,0.286-0.154c0.082-0.067,0.148-0.161,0.2-0.281c0.049-0.118,0.075-0.269,0.075-0.447
		c0-0.123-0.019-0.23-0.056-0.323c-0.038-0.096-0.094-0.182-0.167-0.261c-0.075-0.08-0.167-0.155-0.279-0.23
		c-0.111-0.073-0.242-0.15-0.388-0.233c-0.05-0.029-0.097-0.054-0.139-0.076c-0.041-0.022-0.08-0.045-0.117-0.068
		c-0.037-0.021-0.076-0.044-0.112-0.065c-0.037-0.022-0.077-0.045-0.117-0.071c-0.086-0.05-0.178-0.105-0.277-0.164
		c-0.098-0.059-0.195-0.125-0.295-0.203c-0.097-0.078-0.189-0.167-0.283-0.269c-0.089-0.103-0.171-0.223-0.238-0.359
		c-0.07-0.136-0.126-0.292-0.167-0.469c-0.041-0.174-0.062-0.375-0.062-0.6c0-0.292,0.05-0.547,0.146-0.761
		c0.101-0.217,0.231-0.395,0.395-0.534c0.163-0.141,0.349-0.244,0.559-0.313c0.209-0.071,0.425-0.106,0.646-0.106
		c0.165,0,0.323,0.016,0.47,0.047c0.145,0.027,0.286,0.076,0.418,0.142c0.132,0.064,0.26,0.148,0.383,0.25
		c0.123,0.103,0.245,0.225,0.367,0.366l-0.503,0.863c-0.085-0.114-0.17-0.221-0.249-0.313c-0.079-0.096-0.16-0.175-0.243-0.239
		c-0.084-0.066-0.176-0.115-0.277-0.149c-0.1-0.032-0.211-0.05-0.34-0.05c-0.094,0-0.195,0.014-0.293,0.038
		c-0.099,0.025-0.192,0.068-0.271,0.125c-0.08,0.059-0.146,0.135-0.199,0.225c-0.051,0.094-0.078,0.205-0.078,0.339
		c0,0.16,0.036,0.302,0.104,0.429c0.067,0.127,0.148,0.237,0.245,0.332c0.097,0.098,0.197,0.18,0.306,0.249
		c0.105,0.068,0.196,0.123,0.274,0.164c0.067,0.041,0.123,0.075,0.17,0.101c0.049,0.027,0.093,0.054,0.14,0.079
		c0.047,0.027,0.095,0.052,0.151,0.08c0.052,0.028,0.119,0.066,0.201,0.111c0.063,0.034,0.135,0.076,0.214,0.126
		c0.079,0.05,0.159,0.109,0.241,0.18c0.082,0.069,0.162,0.149,0.242,0.245c0.08,0.097,0.148,0.206,0.209,0.334
		c0.062,0.129,0.112,0.273,0.148,0.438c0.037,0.166,0.056,0.351,0.056,0.563c0,0.213-0.025,0.407-0.074,0.582
		c-0.048,0.176-0.119,0.335-0.205,0.472c-0.084,0.139-0.189,0.26-0.306,0.363c-0.117,0.104-0.244,0.189-0.38,0.257
		c-0.136,0.066-0.277,0.116-0.426,0.151c-0.146,0.035-0.294,0.051-0.443,0.051c-0.205,0-0.394-0.021-0.565-0.064
		c-0.175-0.043-0.337-0.105-0.491-0.188c-0.151-0.084-0.297-0.187-0.434-0.312c-0.138-0.122-0.268-0.267-0.396-0.427L43.453,45.533z
		"/>
	<path fill="#FFFFFF" d="M48.04,42.594c0.011,0.041,0.026,0.104,0.041,0.181c0.018,0.078,0.028,0.155,0.034,0.228
		c0.054-0.06,0.11-0.117,0.168-0.177c0.059-0.059,0.125-0.107,0.196-0.152c0.074-0.045,0.153-0.079,0.242-0.107
		c0.088-0.03,0.188-0.044,0.3-0.044c0.286,0,0.524,0.064,0.717,0.192c0.193,0.126,0.346,0.298,0.46,0.511
		c0.115,0.212,0.197,0.457,0.246,0.735c0.05,0.277,0.075,0.566,0.075,0.868c0,0.328-0.035,0.638-0.101,0.937
		c-0.067,0.302-0.167,0.563-0.301,0.793c-0.134,0.229-0.305,0.41-0.509,0.548c-0.205,0.136-0.446,0.202-0.721,0.202
		c-0.277,0-0.523-0.109-0.739-0.326v2.135h-0.855v-5.65c0-0.017,0-0.06,0-0.128c0-0.067-0.002-0.144-0.006-0.23
		s-0.008-0.178-0.017-0.271c-0.008-0.092-0.019-0.175-0.034-0.242H48.04z M48.815,43.355c-0.114,0-0.226,0.018-0.329,0.053
		c-0.109,0.036-0.22,0.096-0.339,0.179v2.626c0.06,0.064,0.119,0.112,0.176,0.146c0.058,0.034,0.117,0.059,0.176,0.077
		c0.06,0.017,0.123,0.025,0.185,0.028c0.063,0.005,0.126,0.005,0.19,0.005c0.135,0,0.246-0.046,0.339-0.144
		c0.093-0.094,0.167-0.219,0.227-0.374c0.06-0.157,0.104-0.336,0.132-0.532c0.028-0.2,0.043-0.402,0.043-0.609
		c0-0.21-0.016-0.404-0.045-0.584c-0.032-0.177-0.077-0.332-0.141-0.461c-0.063-0.128-0.148-0.229-0.25-0.302
		C49.078,43.392,48.958,43.355,48.815,43.355z"/>
	<path fill="#FFFFFF" d="M54.39,46.427c-0.137,0.188-0.268,0.338-0.393,0.451c-0.127,0.114-0.251,0.201-0.378,0.263
		c-0.123,0.062-0.25,0.101-0.379,0.123c-0.129,0.018-0.264,0.027-0.404,0.027c-0.301,0-0.563-0.067-0.776-0.203
		c-0.216-0.138-0.392-0.318-0.528-0.545c-0.138-0.229-0.237-0.489-0.303-0.783c-0.065-0.295-0.098-0.601-0.098-0.92
		c0-0.306,0.033-0.6,0.099-0.879c0.067-0.279,0.171-0.524,0.307-0.736c0.137-0.213,0.309-0.385,0.515-0.511
		c0.208-0.128,0.452-0.192,0.733-0.192c0.247,0,0.467,0.044,0.655,0.132c0.187,0.089,0.345,0.215,0.472,0.38
		c0.123,0.163,0.22,0.364,0.283,0.597c0.063,0.235,0.095,0.495,0.095,0.786c0,0.108-0.002,0.224-0.01,0.342
		c-0.002,0.116-0.014,0.241-0.031,0.366h-2.217c0,0.135,0.018,0.281,0.056,0.439c0.036,0.16,0.091,0.311,0.16,0.449
		c0.071,0.14,0.16,0.257,0.264,0.352c0.108,0.093,0.228,0.14,0.362,0.14c0.117,0,0.222-0.01,0.311-0.034
		c0.09-0.022,0.171-0.059,0.248-0.11c0.075-0.051,0.146-0.118,0.218-0.201c0.065-0.084,0.141-0.188,0.22-0.314L54.39,46.427z
		 M52.735,43.351c-0.139,0-0.252,0.032-0.341,0.095c-0.091,0.062-0.162,0.146-0.216,0.247c-0.053,0.102-0.089,0.219-0.111,0.348
		c-0.022,0.132-0.033,0.266-0.033,0.404h1.354c0-0.119-0.006-0.242-0.018-0.372c-0.014-0.129-0.043-0.246-0.089-0.352
		c-0.046-0.108-0.111-0.195-0.198-0.264C52.997,43.387,52.88,43.351,52.735,43.351z"/>
	<path fill="#FFFFFF" d="M58.175,46.4c-0.101,0.183-0.204,0.329-0.314,0.441c-0.113,0.108-0.23,0.195-0.353,0.256
		c-0.123,0.062-0.252,0.101-0.381,0.121c-0.131,0.02-0.262,0.029-0.395,0.029c-0.314,0-0.584-0.066-0.806-0.2
		c-0.222-0.132-0.406-0.309-0.545-0.526c-0.143-0.218-0.243-0.468-0.309-0.749c-0.063-0.278-0.098-0.564-0.098-0.855
		c0-0.345,0.042-0.659,0.119-0.953c0.077-0.293,0.194-0.546,0.347-0.76c0.154-0.215,0.345-0.381,0.574-0.502
		c0.226-0.119,0.493-0.181,0.795-0.181c0.118,0,0.237,0.008,0.351,0.021c0.11,0.015,0.22,0.043,0.322,0.082
		c0.105,0.043,0.202,0.098,0.298,0.169c0.097,0.071,0.188,0.163,0.275,0.277l-0.533,0.709c-0.062-0.083-0.121-0.155-0.179-0.215
		c-0.053-0.06-0.11-0.108-0.17-0.147c-0.06-0.04-0.121-0.067-0.187-0.085c-0.062-0.016-0.137-0.024-0.218-0.024
		c-0.156,0-0.291,0.047-0.404,0.137c-0.112,0.089-0.206,0.209-0.279,0.351c-0.075,0.147-0.127,0.307-0.16,0.487
		c-0.034,0.179-0.052,0.356-0.052,0.532c0,0.229,0.018,0.445,0.052,0.647c0.037,0.201,0.091,0.374,0.166,0.523
		c0.073,0.149,0.169,0.266,0.281,0.352c0.113,0.086,0.252,0.127,0.406,0.127c0.075,0,0.146-0.008,0.216-0.024s0.139-0.048,0.2-0.097
		c0.067-0.047,0.133-0.109,0.198-0.193c0.063-0.081,0.129-0.188,0.198-0.318L58.175,46.4z"/>
	<path fill="#FFFFFF" d="M58.775,41.155c0-0.088,0.014-0.167,0.039-0.241c0.026-0.075,0.06-0.137,0.104-0.191
		c0.042-0.054,0.093-0.097,0.148-0.126c0.06-0.029,0.123-0.046,0.187-0.046c0.069,0,0.133,0.018,0.189,0.049
		c0.058,0.034,0.107,0.078,0.149,0.134c0.041,0.055,0.073,0.119,0.095,0.195c0.021,0.074,0.033,0.154,0.033,0.235
		s-0.012,0.16-0.033,0.235c-0.021,0.074-0.054,0.137-0.095,0.196c-0.042,0.055-0.092,0.1-0.149,0.135
		c-0.057,0.034-0.12,0.051-0.189,0.051c-0.063,0-0.127-0.017-0.187-0.053c-0.056-0.036-0.106-0.083-0.148-0.141
		c-0.044-0.059-0.077-0.125-0.104-0.2C58.789,41.313,58.775,41.235,58.775,41.155z M58.821,42.594h0.852v4.595h-0.852V42.594z"/>
	<path fill="#FFFFFF" d="M60.493,43.22c0.186-0.218,0.409-0.392,0.665-0.515c0.254-0.121,0.523-0.184,0.807-0.184
		c0.188,0,0.372,0.029,0.549,0.085c0.176,0.057,0.33,0.144,0.465,0.261c0.137,0.116,0.246,0.265,0.327,0.448
		c0.079,0.186,0.119,0.398,0.119,0.648v2.051c0,0.101,0.004,0.182,0.014,0.249c0.008,0.066,0.023,0.118,0.046,0.157
		c0.02,0.038,0.047,0.066,0.079,0.081c0.033,0.017,0.073,0.023,0.12,0.023c0.021,0,0.052-0.004,0.102-0.013s0.093-0.019,0.137-0.029
		l0.091,0.489c-0.052,0.041-0.106,0.082-0.16,0.119c-0.056,0.036-0.113,0.068-0.177,0.096c-0.062,0.025-0.129,0.047-0.204,0.064
		c-0.071,0.019-0.152,0.028-0.241,0.028c-0.162,0-0.301-0.051-0.41-0.147c-0.111-0.098-0.179-0.239-0.214-0.42
		c-0.091,0.109-0.185,0.203-0.283,0.277c-0.1,0.072-0.198,0.131-0.297,0.174c-0.1,0.043-0.2,0.07-0.3,0.088
		c-0.101,0.019-0.198,0.028-0.289,0.028c-0.16,0-0.307-0.028-0.432-0.082c-0.127-0.056-0.233-0.133-0.325-0.242
		c-0.091-0.105-0.158-0.237-0.206-0.395c-0.049-0.159-0.073-0.34-0.073-0.552c0-0.235,0.028-0.441,0.085-0.619
		c0.056-0.176,0.133-0.329,0.232-0.457c0.097-0.126,0.212-0.234,0.351-0.317c0.135-0.082,0.281-0.149,0.443-0.197
		c0.163-0.048,0.333-0.081,0.512-0.104c0.178-0.02,0.36-0.028,0.55-0.028V44.12c0-0.148-0.02-0.279-0.051-0.385
		c-0.034-0.108-0.079-0.197-0.135-0.264c-0.06-0.069-0.129-0.121-0.212-0.153c-0.079-0.03-0.169-0.048-0.27-0.048
		c-0.081,0-0.16,0.009-0.233,0.028c-0.076,0.019-0.153,0.051-0.227,0.099c-0.075,0.047-0.154,0.108-0.233,0.186
		c-0.083,0.077-0.173,0.178-0.27,0.299L60.493,43.22z M62.574,44.789c-0.257,0.015-0.465,0.049-0.628,0.107
		c-0.164,0.057-0.291,0.131-0.388,0.223c-0.095,0.091-0.16,0.201-0.198,0.324s-0.056,0.257-0.056,0.405
		c0,0.125,0.012,0.229,0.032,0.312c0.021,0.081,0.053,0.148,0.093,0.199c0.042,0.052,0.089,0.086,0.148,0.108
		c0.056,0.021,0.119,0.032,0.187,0.032c0.062,0,0.125-0.004,0.188-0.013c0.064-0.008,0.13-0.025,0.199-0.049
		c0.067-0.023,0.135-0.058,0.206-0.101c0.069-0.043,0.141-0.097,0.216-0.161V44.789z"/>
	<path fill="#FFFFFF" d="M64.437,40.524h0.853v5.553c0,0.146,0.018,0.248,0.055,0.307c0.036,0.06,0.088,0.09,0.15,0.09
		c0.071,0,0.133-0.012,0.183-0.037c0.052-0.025,0.111-0.056,0.175-0.088l0.143,0.569c-0.052,0.047-0.111,0.092-0.177,0.136
		c-0.063,0.042-0.133,0.079-0.202,0.111c-0.073,0.033-0.146,0.059-0.222,0.08c-0.075,0.02-0.148,0.029-0.226,0.029
		c-0.094,0-0.183-0.011-0.271-0.04c-0.087-0.024-0.165-0.074-0.234-0.145c-0.066-0.074-0.122-0.172-0.164-0.301
		c-0.041-0.128-0.062-0.291-0.062-0.494V40.524z"/>
	<path fill="#FFFFFF" d="M65.994,42.823l0.522-0.229l0.226-1.186h0.628v1.186h0.87l-0.079,0.793H67.37v2.344
		c0,0.13,0.007,0.239,0.022,0.326c0.014,0.09,0.033,0.161,0.062,0.213c0.025,0.056,0.057,0.092,0.099,0.114
		c0.038,0.025,0.083,0.034,0.133,0.034c0.071,0,0.148-0.009,0.237-0.032c0.09-0.02,0.19-0.058,0.298-0.11l0.195,0.539
		c-0.156,0.157-0.311,0.273-0.463,0.35c-0.152,0.077-0.302,0.116-0.446,0.116c-0.195,0-0.356-0.035-0.485-0.101
		c-0.124-0.068-0.228-0.164-0.303-0.286c-0.075-0.123-0.129-0.272-0.158-0.45c-0.028-0.174-0.044-0.371-0.044-0.59v-2.467h-0.522
		V42.823z"/>
	<path fill="#FFFFFF" d="M70.13,45.993l0.737-3.399h0.931l-1.396,4.944c-0.089,0.258-0.172,0.488-0.254,0.689
		c-0.081,0.2-0.174,0.37-0.279,0.509c-0.106,0.138-0.228,0.244-0.37,0.314c-0.141,0.074-0.315,0.107-0.523,0.107
		c-0.166,0-0.32-0.029-0.467-0.091c-0.146-0.063-0.273-0.143-0.387-0.233l0.163-0.67c0.031,0.017,0.075,0.035,0.124,0.055
		c0.054,0.02,0.107,0.038,0.169,0.05c0.056,0.017,0.118,0.027,0.182,0.037c0.063,0.011,0.123,0.015,0.181,0.015
		c0.085,0,0.162-0.022,0.228-0.069c0.067-0.048,0.129-0.115,0.185-0.206c0.056-0.086,0.108-0.198,0.154-0.335
		c0.05-0.132,0.098-0.284,0.145-0.453c0.016-0.047,0.032-0.102,0.046-0.169c0.014-0.068,0.023-0.136,0.033-0.2l-1.351-4.294h0.931
		L70.13,45.993z"/>
	<path fill="#FFFFFF" d="M75.6,47.188v-6.664h0.901v6.664H75.6z"/>
	<path fill="#FFFFFF" d="M77.395,43.383c0-0.094,0-0.21-0.005-0.354c-0.004-0.14-0.016-0.287-0.037-0.436h0.804
		c0.007,0.021,0.015,0.047,0.021,0.083c0.008,0.037,0.014,0.073,0.021,0.115c0.01,0.041,0.014,0.084,0.02,0.128
		c0.006,0.045,0.013,0.084,0.015,0.121c0.053-0.062,0.116-0.125,0.189-0.188c0.075-0.061,0.157-0.118,0.246-0.167
		c0.089-0.051,0.187-0.089,0.287-0.12c0.103-0.028,0.21-0.044,0.321-0.044c0.184,0,0.354,0.037,0.513,0.11
		c0.16,0.073,0.299,0.18,0.418,0.32c0.113,0.139,0.208,0.308,0.273,0.51c0.069,0.2,0.104,0.432,0.104,0.687v3.04h-0.854v-2.833
		c0-0.184-0.016-0.34-0.043-0.469c-0.028-0.127-0.072-0.229-0.129-0.308c-0.054-0.077-0.123-0.135-0.204-0.171
		c-0.079-0.035-0.175-0.053-0.279-0.053c-0.06,0-0.127,0.007-0.196,0.02c-0.071,0.014-0.143,0.031-0.216,0.059
		c-0.073,0.023-0.145,0.056-0.214,0.089c-0.073,0.033-0.139,0.071-0.2,0.115v3.551h-0.855V43.383z"/>
	<path fill="#FFFFFF" d="M81.651,45.849c0.322,0.465,0.669,0.698,1.036,0.698c0.083,0,0.156-0.011,0.226-0.032
		c0.071-0.021,0.131-0.055,0.185-0.1c0.047-0.045,0.089-0.104,0.118-0.174c0.03-0.073,0.044-0.157,0.044-0.257
		c0-0.07-0.012-0.136-0.038-0.191c-0.023-0.054-0.055-0.107-0.093-0.148c-0.04-0.043-0.085-0.079-0.133-0.112
		c-0.048-0.032-0.097-0.06-0.145-0.084c-0.089-0.049-0.179-0.092-0.268-0.128c-0.089-0.039-0.178-0.083-0.268-0.13
		c-0.049-0.024-0.112-0.053-0.182-0.088c-0.071-0.036-0.145-0.079-0.223-0.132c-0.075-0.054-0.152-0.116-0.226-0.186
		c-0.075-0.07-0.145-0.156-0.204-0.254c-0.06-0.101-0.106-0.216-0.143-0.34c-0.037-0.124-0.058-0.27-0.058-0.436
		c0-0.205,0.038-0.383,0.115-0.536c0.077-0.152,0.181-0.28,0.305-0.386c0.127-0.104,0.271-0.181,0.433-0.233
		c0.162-0.052,0.326-0.079,0.497-0.079c0.271,0,0.519,0.042,0.738,0.123c0.225,0.084,0.429,0.221,0.61,0.412l-0.386,0.776
		c-0.069-0.089-0.135-0.168-0.198-0.237c-0.065-0.068-0.133-0.13-0.206-0.178c-0.071-0.05-0.15-0.088-0.238-0.113
		c-0.083-0.025-0.18-0.038-0.291-0.038c-0.093,0-0.17,0.015-0.235,0.042c-0.067,0.029-0.121,0.066-0.162,0.114
		c-0.044,0.049-0.074,0.104-0.096,0.168c-0.02,0.062-0.031,0.126-0.031,0.195c0,0.076,0.016,0.143,0.045,0.198
		c0.028,0.054,0.065,0.103,0.111,0.144c0.044,0.042,0.093,0.078,0.15,0.105c0.06,0.032,0.117,0.058,0.177,0.082
		c0.091,0.044,0.182,0.087,0.275,0.128c0.093,0.04,0.186,0.081,0.279,0.124c0.045,0.024,0.101,0.05,0.166,0.082
		s0.135,0.07,0.206,0.119c0.067,0.048,0.137,0.105,0.208,0.175c0.067,0.072,0.129,0.156,0.185,0.252
		c0.055,0.099,0.099,0.211,0.133,0.34c0.035,0.131,0.049,0.28,0.049,0.449c0,0.212-0.037,0.399-0.118,0.564
		c-0.082,0.162-0.188,0.3-0.323,0.407c-0.131,0.11-0.283,0.193-0.45,0.251c-0.168,0.057-0.34,0.084-0.519,0.084
		c-0.156,0-0.305-0.011-0.445-0.034c-0.143-0.022-0.275-0.061-0.4-0.114c-0.125-0.055-0.246-0.127-0.358-0.22
		c-0.115-0.092-0.223-0.208-0.323-0.347L81.651,45.849z"/>
	<path fill="#FFFFFF" d="M84.331,42.823l0.521-0.229l0.224-1.186h0.632v1.186h0.87L86.5,43.387h-0.792v2.344
		c0,0.13,0.008,0.239,0.02,0.326c0.017,0.09,0.036,0.161,0.062,0.213c0.026,0.056,0.06,0.092,0.1,0.114
		c0.039,0.025,0.085,0.034,0.135,0.034c0.069,0,0.15-0.009,0.239-0.032c0.089-0.02,0.185-0.058,0.297-0.11l0.196,0.539
		c-0.16,0.157-0.313,0.273-0.466,0.35c-0.15,0.077-0.299,0.116-0.445,0.116c-0.196,0-0.36-0.035-0.485-0.101
		c-0.127-0.068-0.228-0.164-0.303-0.286c-0.077-0.123-0.129-0.272-0.159-0.45c-0.027-0.174-0.045-0.371-0.045-0.59v-2.467h-0.521
		V42.823z"/>
	<path fill="#FFFFFF" d="M87.128,41.155c0-0.088,0.015-0.167,0.038-0.241c0.023-0.075,0.06-0.137,0.101-0.191
		c0.044-0.054,0.096-0.097,0.153-0.126c0.057-0.029,0.12-0.046,0.186-0.046c0.069,0,0.133,0.018,0.19,0.049
		c0.056,0.034,0.104,0.078,0.146,0.134c0.044,0.055,0.073,0.119,0.096,0.195c0.023,0.074,0.033,0.154,0.033,0.235
		s-0.01,0.16-0.033,0.235c-0.022,0.074-0.052,0.137-0.096,0.196c-0.043,0.055-0.091,0.1-0.146,0.135
		c-0.058,0.034-0.121,0.051-0.19,0.051c-0.065,0-0.129-0.017-0.186-0.053c-0.058-0.036-0.109-0.083-0.153-0.141
		c-0.041-0.059-0.077-0.125-0.101-0.2S87.128,41.235,87.128,41.155z M87.172,42.594h0.852v4.595h-0.852V42.594z"/>
	<path fill="#FFFFFF" d="M88.572,42.823l0.523-0.229l0.222-1.186h0.63v1.186h0.872l-0.082,0.793h-0.79v2.344
		c0,0.13,0.008,0.239,0.021,0.326c0.017,0.09,0.036,0.161,0.06,0.213c0.03,0.056,0.062,0.092,0.102,0.114
		c0.039,0.025,0.083,0.034,0.133,0.034c0.071,0,0.15-0.009,0.237-0.032c0.089-0.02,0.19-0.058,0.297-0.11l0.198,0.539
		c-0.156,0.157-0.313,0.273-0.466,0.35c-0.152,0.077-0.301,0.116-0.441,0.116c-0.198,0-0.36-0.035-0.485-0.101
		c-0.129-0.068-0.229-0.164-0.305-0.286c-0.075-0.123-0.129-0.272-0.159-0.45c-0.029-0.174-0.043-0.371-0.043-0.59v-2.467h-0.523
		V42.823z"/>
	<path fill="#FFFFFF" d="M92.195,42.594v3.148c0,0.122,0.012,0.228,0.042,0.314c0.023,0.09,0.062,0.161,0.108,0.215
		c0.046,0.055,0.1,0.097,0.161,0.122c0.063,0.024,0.131,0.037,0.202,0.037c0.162,0,0.328-0.024,0.505-0.077
		c0.17-0.053,0.327-0.134,0.468-0.246v-3.514h0.854v3.794c0,0.074,0.006,0.181,0.018,0.317c0.016,0.141,0.034,0.3,0.06,0.483h-0.807
		c-0.004-0.016-0.01-0.048-0.02-0.095c-0.012-0.046-0.021-0.098-0.029-0.151c-0.012-0.055-0.021-0.105-0.03-0.153
		c-0.008-0.048-0.014-0.084-0.016-0.106c-0.073,0.087-0.158,0.165-0.252,0.237c-0.091,0.072-0.189,0.134-0.291,0.188
		c-0.103,0.052-0.204,0.091-0.309,0.12c-0.102,0.028-0.2,0.043-0.293,0.043c-0.238,0-0.435-0.043-0.591-0.127
		c-0.156-0.083-0.283-0.196-0.376-0.341c-0.094-0.146-0.161-0.315-0.2-0.511c-0.04-0.198-0.06-0.405-0.06-0.631v-3.067H92.195z"/>
	<path fill="#FFFFFF" d="M95.086,42.823l0.522-0.229l0.225-1.186h0.63v1.186h0.867l-0.077,0.793h-0.79v2.344
		c0,0.13,0.004,0.239,0.02,0.326c0.014,0.09,0.035,0.161,0.062,0.213c0.027,0.056,0.06,0.092,0.097,0.114
		c0.042,0.025,0.087,0.034,0.135,0.034c0.071,0,0.15-0.009,0.238-0.032c0.089-0.02,0.189-0.058,0.297-0.11l0.198,0.539
		c-0.157,0.157-0.313,0.273-0.466,0.35c-0.152,0.077-0.299,0.116-0.443,0.116c-0.198,0-0.359-0.035-0.485-0.101
		c-0.129-0.068-0.23-0.164-0.306-0.286c-0.073-0.123-0.127-0.272-0.156-0.45c-0.029-0.174-0.044-0.371-0.044-0.59v-2.467h-0.522
		V42.823z"/>
	<path fill="#FFFFFF" d="M101.007,46.427c-0.133,0.188-0.266,0.338-0.391,0.451c-0.126,0.114-0.251,0.201-0.376,0.263
		s-0.252,0.101-0.38,0.123c-0.131,0.018-0.266,0.027-0.406,0.027c-0.3,0-0.561-0.067-0.774-0.203
		c-0.219-0.138-0.391-0.318-0.529-0.545c-0.139-0.229-0.237-0.489-0.303-0.783c-0.063-0.295-0.098-0.601-0.098-0.92
		c0-0.306,0.034-0.6,0.102-0.879s0.17-0.524,0.307-0.736c0.135-0.213,0.309-0.385,0.513-0.511c0.206-0.128,0.452-0.192,0.731-0.192
		c0.25,0,0.47,0.044,0.657,0.132c0.188,0.089,0.345,0.215,0.472,0.38c0.125,0.163,0.22,0.364,0.283,0.597
		c0.062,0.235,0.098,0.495,0.098,0.786c0,0.108-0.006,0.224-0.011,0.342c-0.006,0.116-0.018,0.241-0.035,0.366h-2.215
		c0,0.135,0.02,0.281,0.056,0.439c0.037,0.16,0.089,0.311,0.162,0.449c0.069,0.14,0.159,0.257,0.264,0.352
		c0.105,0.093,0.226,0.14,0.362,0.14c0.117,0,0.22-0.01,0.31-0.034c0.089-0.022,0.17-0.059,0.247-0.11
		c0.075-0.051,0.148-0.118,0.216-0.201c0.069-0.084,0.141-0.188,0.221-0.314L101.007,46.427z M99.354,43.351
		c-0.137,0-0.253,0.032-0.343,0.095c-0.089,0.062-0.16,0.146-0.214,0.247s-0.091,0.219-0.11,0.348
		c-0.022,0.132-0.034,0.266-0.034,0.404h1.357c0-0.119-0.006-0.242-0.022-0.372c-0.01-0.129-0.039-0.246-0.089-0.352
		c-0.044-0.108-0.111-0.195-0.196-0.264C99.618,43.387,99.499,43.351,99.354,43.351z"/>
</g>
</svg>
