<?xml version="1.0" encoding="utf-8"?>
<!-- Generator: Adobe Illustrator 15.1.0, SVG Export Plug-In . SVG Version: 6.00 Build 0)  -->
<!DOCTYPE svg PUBLIC "-//W3C//DTD SVG 1.1//EN" "http://www.w3.org/Graphics/SVG/1.1/DTD/svg11.dtd">
<svg version="1.1" id="Layer_1" xmlns="http://www.w3.org/2000/svg" xmlns:xlink="http://www.w3.org/1999/xlink" x="0px" y="0px"
	 width="100px" height="41.699px" viewBox="0 0 100 41.699" enable-background="new 0 0 100 41.699" xml:space="preserve">
<path fill="#FFFFFF" d="M42.451,40.404v-0.005c-0.977-0.059-1.432-0.588-1.62-0.911c-0.648-1.114,0.083-2.574,0.323-2.995
	l0.107-0.185c0.5-0.848,0.752-1.383,0.875-1.717c-0.198,0.027-0.396,0.041-0.592,0.041c-1.002,0-1.897-0.349-2.52-0.981
	c-0.586-0.597-0.888-1.397-0.873-2.314c0.006-0.406,0.183-0.849,0.428-1.462c0.123-0.307,0.342-0.856,0.437-1.236
	c-0.062-0.007-0.124-0.009-0.185-0.009c-0.163,0-0.325,0.015-0.486,0.028c-0.217,0.018-0.435,0.034-0.654,0.034
	c-0.314,0-0.598-0.033-0.868-0.103c-0.291-0.075-0.514-0.16-0.71-0.236c-0.126-0.049-0.246-0.096-0.289-0.096
	c-0.021,0-0.102,0.007-0.303,0.093c-0.962,0.412-2.051,0.629-3.149,0.63c-1.169,0-2.269-0.252-3.181-0.729
	c-0.157-0.082-0.31-0.186-0.463-0.292c-0.074-0.052-0.176-0.123-0.246-0.162c-0.045,0.039-0.106,0.103-0.152,0.148
	c-0.285,0.291-0.763,0.779-1.62,0.779c-0.131,0-0.277,0.008-0.432,0.017c-0.21,0.011-0.433,0.022-0.655,0.022
	c-0.001,0-0.003,0-0.005,0c-0.437,0-1.746-0.004-2.393-1.104c-0.183-0.312-0.254-0.629-0.312-0.884
	c-0.007-0.033-0.016-0.072-0.025-0.111l-0.064-0.011c-0.015-0.004-0.061-0.011-0.161-0.011c-0.113,0-0.229,0.008-0.342,0.015
	c-0.15,0.01-0.296,0.019-0.431,0.019c-0.077,0-0.234,0-0.335,0.012c-0.035,0.097-0.061,0.196-0.088,0.294
	c-0.143,0.511-0.472,1.692-1.932,1.741c-0.298,0.049-0.665,0.076-1.023,0.076c-0.886,0-1.558-0.157-1.997-0.47
	c-0.583-0.413-0.74-0.997-0.844-1.383c-0.009-0.033-0.02-0.071-0.03-0.109c-0.147,0.099-0.344,0.272-0.465,0.379
	c-0.215,0.189-0.423,0.365-0.615,0.488c-1.4,0.896-3.191,1.39-5.041,1.39c-2.186,0-4.238-0.66-5.781-1.858
	c-2.807-2.183-3.906-6.306-2.671-10.029c0.562-1.695,1.688-3.164,3.178-4.15C4.27,12.84,4.2,12.381,4.16,12.121
	c-0.05-0.325-0.097-0.631-0.097-0.924c0-0.165-0.017-0.387-0.034-0.642c-0.09-1.3-0.214-3.081,0.708-4.068
	c0.387-0.416,0.906-0.635,1.501-0.635H45.03c0.716,0,2.897,0,2.897,2.289c0,0.778-0.064,1.639-0.177,2.378
	c0.123,0.035,0.358,0.078,0.781,0.078c0.375,0,0.753-0.031,1.062-0.057c0.264-0.021,0.487-0.038,0.64-0.038
	c0.292,0,0.537,0.028,0.768,0.057c0.136,0.017,0.266,0.035,0.405,0.035c0.113,0,0.219-0.014,0.342-0.045
	c0.222-0.057,0.451-0.084,0.702-0.084c0.333,0,0.645,0.05,0.92,0.093c0.191,0.031,0.381,0.065,0.563,0.065
	c0.068,0,0.121-0.006,0.159-0.018c0.367-0.118,0.785-0.173,1.311-0.173c0.31,0,0.626,0.02,0.933,0.04
	c0.244,0.016,0.479,0.032,0.694,0.032c0.067,0,0.138-0.004,0.21-0.008c0.108-0.005,0.219-0.01,0.328-0.01
	c0.116,0,0.231,0.006,0.342,0.02c1.096,0.035,1.545,0.809,1.764,1.185c0.05,0.085,0.123,0.212,0.161,0.249c0,0,0.001,0,0.004,0
	c0.016,0,0.08,0.009,0.209,0.009c0.11,0,0.222-0.006,0.327-0.011c0.131-0.007,0.256-0.013,0.369-0.013
	c0.831,0,1.299,0.298,1.674,0.538c0.077,0.05,0.159,0.103,0.252,0.156c0.054-0.134,0.104-0.294,0.129-0.374
	c0.085-0.272,0.218-0.508,0.336-0.717c0.028-0.052,0.064-0.115,0.097-0.175c-0.438-0.281-0.892-0.501-1.369-0.731
	c-1.041-0.503-2.221-1.073-3.07-2.217c-0.759-1.019-1.583-4.055-0.759-5.697c0.372-0.74,1.055-1.164,1.875-1.164
	c0.233,0,0.482,0.034,0.739,0.102c0.961,0.252,1.714,1.12,2.378,1.884c0.271,0.312,0.526,0.605,0.731,0.782
	c0.839,0.719,1.801,1.241,2.819,1.793c0.583,0.316,1.186,0.643,1.776,1.016c0.299,0.188,0.573,0.398,0.833,0.599
	c0.333,0.257,0.71,0.548,0.896,0.548c0.087,0,0.229-0.075,0.392-0.207c1.329-1.075,2.741-1.914,4.197-2.494
	c0.548-0.217,1.101-0.398,1.65-0.579c0.969-0.317,1.883-0.616,2.717-1.107c0.169-0.1,0.36-0.243,0.566-0.394
	c0.71-0.52,1.594-1.167,2.571-1.167c0.464,0,1.134,0.149,1.69,0.858C84.51,4,84.49,5.064,83.813,6.099
	c-0.957,1.474-2.305,2.758-3.493,3.891l-0.13,0.124c-0.759,0.722-1.365,1.254-1.967,1.725c-0.113,0.089-0.253,0.186-0.402,0.289
	c-0.168,0.115-0.488,0.334-0.625,0.488c0.117,0.074,0.33,0.168,0.469,0.229c0.604,0.267,2.003,0.884,1.673,2.579
	c0.099,0.06,0.25,0.132,0.352,0.181c0.153,0.074,0.303,0.147,0.437,0.225c0.234,0.136,0.438,0.308,0.635,0.474
	c0.11,0.092,0.276,0.231,0.396,0.308c0.02-0.036,0.039-0.075,0.056-0.109c0.151-0.301,0.38-0.757,0.894-1.055
	c0.466-0.268,0.954-0.302,1.327-0.302c0.114,0,0.581,0.013,0.581,0.013s0.495-0.016,0.614-0.016c0.277,0,0.505,0.023,0.716,0.073
	c0.12,0.028,0.23,0.042,0.334,0.042c0.208,0,0.413-0.056,0.695-0.133c0.251-0.068,0.52-0.14,0.836-0.193
	c0.334-0.056,0.66-0.085,0.969-0.085c1.836,0,2.977,1.032,2.977,2.694l0.006,0.323c0.022,0.799,0.052,1.895-0.658,2.624
	c-0.262,0.269-0.734,0.59-1.498,0.59c-0.342,0-0.643-0.063-0.884-0.115c-0.168-0.036-0.314-0.066-0.423-0.066
	c-0.059,0-0.102,0.009-0.152,0.032c-0.365,0.165-0.527,0.674-0.527,1.105c-0.027,0.503-0.018,0.954-0.009,1.402
	c0.004,0.243,0.009,0.485,0.009,0.727c0,0.229-0.018,0.489-0.037,0.761c-0.028,0.391-0.062,0.862-0.009,1.174
	c0.117-0.04,0.253-0.097,0.352-0.138c0.127-0.053,0.249-0.103,0.363-0.144c0.574-0.204,1.189-0.307,1.83-0.307
	c0.325,0,0.651,0.027,0.97,0.082c0.291,0.05,0.558,0.153,0.793,0.244c0.174,0.066,0.412,0.159,0.509,0.159
	c0.4-0.305,0.911-0.351,1.348-0.351l0.274,0.002c0.19,0,0.445-0.02,0.736-0.04c0.443-0.032,0.959-0.068,1.472-0.068
	c3.023,0,3.475,1.479,3.475,2.361c0,0.834,0.013,1.67,0.025,2.506l0.021,1.562c0.007,0.691,0.019,1.737-0.679,2.441
	c-0.269,0.272-0.758,0.597-1.558,0.597c-0.219,0-2.446,0.009-5.759,0.022C81.249,35.067,62.832,35.14,57.5,35.14h-0.289
	c-0.525,0-1.057,0.013-1.591,0.024c-0.554,0.013-1.109,0.025-1.663,0.025c-0.762,0-1.393-0.023-1.983-0.075
	c-0.668-0.057-1.198-0.275-1.625-0.45c-0.344-0.141-0.615-0.252-0.869-0.252c-0.111,0-0.228,0.021-0.354,0.064
	c-0.293,0.1-0.594,0.143-0.885,0.186c-0.22,0.031-0.588,0.085-0.687,0.152c-0.206,0.185-0.437,0.661-0.624,1.043
	c-0.107,0.221-0.211,0.432-0.315,0.617c-0.148,0.26-0.28,0.554-0.417,0.854c-0.558,1.224-1.399,3.074-3.562,3.074H42.451z"/>
<g>
	<path fill="#0099D9" d="M8.5,8.004c0.399,0,0.707,0.09,0.922,0.269c0.216,0.18,0.323,0.435,0.323,0.765
		c0,0.219-0.053,0.402-0.161,0.55c-0.107,0.149-0.27,0.267-0.488,0.354c0.261,0.05,0.46,0.158,0.597,0.326
		c0.137,0.167,0.205,0.382,0.205,0.644c0,0.405-0.118,0.705-0.355,0.9c-0.236,0.195-0.603,0.292-1.098,0.292H6.218v-4.1H8.5z
		 M8.38,8.523H6.798V9.71h1.458c0.335,0,0.57-0.045,0.706-0.137c0.136-0.091,0.204-0.244,0.204-0.459
		c0-0.206-0.062-0.357-0.186-0.45C8.856,8.57,8.656,8.523,8.38,8.523z M8.392,10.242H6.798v1.306h1.511
		c0.344,0,0.592-0.049,0.746-0.147c0.154-0.098,0.23-0.255,0.23-0.471c0-0.238-0.072-0.413-0.213-0.523
		C8.929,10.297,8.702,10.242,8.392,10.242z"/>
	<path fill="#0099D9" d="M10.401,10.057c0-0.662,0.203-1.188,0.606-1.577c0.404-0.389,0.951-0.583,1.643-0.583
		c0.689,0,1.235,0.195,1.638,0.583c0.403,0.389,0.604,0.915,0.604,1.577c0,0.661-0.202,1.186-0.606,1.574
		c-0.404,0.388-0.951,0.583-1.643,0.583c-0.69,0-1.236-0.194-1.639-0.583C10.601,11.242,10.401,10.718,10.401,10.057z
		 M11.003,10.057c0,0.506,0.146,0.901,0.436,1.185c0.29,0.284,0.694,0.426,1.212,0.426c0.515,0,0.918-0.143,1.208-0.427
		c0.289-0.285,0.434-0.68,0.434-1.184c0-0.507-0.145-0.902-0.435-1.188c-0.29-0.284-0.694-0.427-1.212-0.427
		c-0.516,0-0.918,0.143-1.208,0.427C11.148,9.154,11.003,9.55,11.003,10.057z"/>
	<path fill="#0099D9" d="M15.609,12.105V8.004h0.784l2.581,3.499V8.004h0.563v4.101h-0.781l-2.579-3.499v3.499H15.609z"/>
	<path fill="#0099D9" d="M20.486,12.105V8.004h0.785l2.582,3.499V8.004h0.563v4.101h-0.782l-2.579-3.499v3.499H20.486z"/>
	<path fill="#0099D9" d="M26.642,12.105v-1.708l-1.836-2.393h0.704l1.415,1.908l1.425-1.908h0.693l-1.821,2.393v1.708H26.642z"/>
	<path fill="#0099D9" d="M30.712,12.105l-1.794-4.101h0.618l1.517,3.58l1.511-3.58h0.629l-1.81,4.101H30.712z"/>
	<path fill="#0099D9" d="M33.67,12.105V8.004h0.58v4.101H33.67z"/>
	<path fill="#0099D9" d="M35.233,12.105V8.004h0.58v3.549h2.51v0.552H35.233z"/>
	<path fill="#0099D9" d="M38.875,12.105V8.004h0.579v3.549h2.509v0.552H38.875z"/>
	<path fill="#0099D9" d="M42.515,12.105V8.004h3.26v0.524h-2.681v1.209h2.515v0.54h-2.515v1.275h2.72v0.552L42.515,12.105
		L42.515,12.105z"/>
</g>
<g>
	<path fill="#0099D9" d="M20.394,16.079l1.625-3.424h0.507l1.523,3.424h-0.502l-0.438-0.977h-1.748l-0.456,0.977H20.394z
		 M21.565,14.658h1.345l-0.652-1.461L21.565,14.658z"/>
	<path fill="#0099D9" d="M24.452,16.079v-3.424h0.655l2.155,2.921v-2.921h0.47v3.424H27.08l-2.153-2.921v2.921H24.452z"/>
	<path fill="#0099D9" d="M30.031,12.655c0.394,0,0.685,0.025,0.875,0.073c0.19,0.048,0.358,0.131,0.504,0.246
		c0.187,0.146,0.329,0.336,0.425,0.572c0.096,0.236,0.145,0.51,0.145,0.822c0,0.313-0.048,0.586-0.145,0.821
		s-0.238,0.426-0.425,0.572c-0.146,0.115-0.314,0.196-0.504,0.245c-0.19,0.049-0.481,0.073-0.875,0.073h-1.507v-3.424H30.031z
		 M30.189,13.084h-1.181v2.565h1.181c0.227,0,0.41-0.019,0.551-0.057c0.14-0.038,0.258-0.099,0.354-0.182
		c0.119-0.102,0.212-0.246,0.281-0.432c0.068-0.186,0.103-0.391,0.103-0.614c0-0.226-0.035-0.431-0.103-0.615
		c-0.069-0.184-0.163-0.328-0.281-0.429c-0.096-0.083-0.214-0.144-0.354-0.181C30.599,13.102,30.416,13.084,30.189,13.084z"/>
	<path fill="#0099D9" d="M35.664,12.655c0.394,0,0.685,0.025,0.875,0.073s0.358,0.131,0.505,0.246
		c0.187,0.146,0.328,0.336,0.424,0.572c0.097,0.236,0.145,0.51,0.145,0.822c0,0.313-0.048,0.586-0.145,0.821
		c-0.096,0.235-0.238,0.426-0.424,0.572c-0.147,0.115-0.315,0.196-0.505,0.245c-0.19,0.049-0.481,0.073-0.875,0.073h-1.507v-3.424
		H35.664z M35.821,13.084H34.64v2.565h1.181c0.227,0,0.411-0.019,0.551-0.057c0.14-0.038,0.258-0.099,0.354-0.182
		c0.119-0.102,0.212-0.246,0.281-0.432c0.069-0.186,0.103-0.391,0.103-0.614c0-0.226-0.034-0.431-0.103-0.615
		c-0.069-0.184-0.162-0.328-0.281-0.429c-0.096-0.083-0.214-0.144-0.354-0.181C36.231,13.102,36.048,13.084,35.821,13.084z"/>
	<path fill="#0099D9" d="M38.243,16.08v-3.424h0.483v3.424H38.243z"/>
	<path fill="#0099D9" d="M39.393,14.922h0.512c0.009,0.271,0.102,0.471,0.279,0.601c0.176,0.13,0.442,0.196,0.795,0.196
		c0.302,0,0.536-0.05,0.701-0.151c0.166-0.1,0.248-0.244,0.248-0.428c0-0.135-0.045-0.239-0.135-0.314
		c-0.09-0.075-0.242-0.131-0.453-0.167l-0.847-0.153c-0.344-0.061-0.596-0.164-0.753-0.309c-0.158-0.146-0.237-0.345-0.237-0.596
		c0-0.331,0.125-0.586,0.375-0.765c0.25-0.18,0.606-0.27,1.07-0.27c0.437,0,0.772,0.094,1.007,0.281s0.354,0.456,0.359,0.804H41.83
		c-0.017-0.217-0.1-0.378-0.249-0.482s-0.373-0.156-0.67-0.156c-0.29,0-0.512,0.047-0.666,0.14c-0.153,0.094-0.23,0.228-0.23,0.404
		c0,0.128,0.043,0.226,0.131,0.294c0.087,0.069,0.246,0.126,0.476,0.171l0.752,0.148c0.396,0.076,0.671,0.184,0.828,0.323
		c0.156,0.14,0.234,0.342,0.234,0.605c0,0.34-0.129,0.603-0.387,0.791c-0.259,0.188-0.624,0.281-1.096,0.281
		c-0.51,0-0.895-0.104-1.157-0.313C39.533,15.647,39.399,15.335,39.393,14.922z"/>
	<path fill="#0099D9" d="M44.428,13.102v2.978h-0.484v-2.978h-1.299v-0.447h3.086v0.447H44.428z"/>
	<path fill="#0099D9" d="M46.102,16.08v-3.424h1.801c0.397,0,0.699,0.08,0.906,0.238c0.207,0.159,0.311,0.392,0.311,0.697
		c0,0.219-0.05,0.398-0.148,0.537c-0.098,0.139-0.245,0.239-0.44,0.301c0.173,0.026,0.3,0.09,0.381,0.19
		c0.081,0.1,0.129,0.254,0.145,0.461l0.042,0.553c0.011,0.127,0.025,0.222,0.044,0.282c0.018,0.06,0.045,0.115,0.081,0.165h-0.564
		c-0.018-0.039-0.03-0.085-0.04-0.139c-0.01-0.054-0.017-0.126-0.023-0.218l-0.042-0.507c-0.021-0.236-0.079-0.396-0.175-0.48
		c-0.096-0.084-0.268-0.126-0.513-0.126h-1.285v1.47H46.102z M47.671,13.07h-1.09v1.118h1.132c0.342,0,0.582-0.042,0.717-0.127
		c0.135-0.084,0.204-0.229,0.204-0.433c0-0.208-0.068-0.352-0.202-0.435C48.299,13.111,48.044,13.07,47.671,13.07z"/>
	<path fill="#0099D9" d="M49.875,16.08v-3.424h0.483v3.424H49.875z"/>
	<path fill="#0099D9" d="M54.602,14.758c-0.047,0.429-0.229,0.771-0.541,1.027c-0.314,0.256-0.713,0.384-1.195,0.384
		c-0.577,0-1.033-0.162-1.369-0.486c-0.336-0.323-0.504-0.762-0.504-1.315c0-0.552,0.168-0.991,0.506-1.316
		c0.336-0.324,0.794-0.487,1.371-0.487c0.473,0,0.865,0.122,1.175,0.367c0.31,0.245,0.481,0.566,0.517,0.966h-0.502
		c-0.047-0.275-0.178-0.489-0.389-0.645c-0.211-0.156-0.479-0.233-0.805-0.233c-0.432,0-0.768,0.119-1.008,0.356
		c-0.241,0.238-0.363,0.568-0.363,0.991c0,0.421,0.122,0.751,0.363,0.989c0.242,0.238,0.58,0.356,1.012,0.356
		c0.331,0,0.609-0.087,0.833-0.261c0.223-0.173,0.354-0.406,0.396-0.695h0.504V14.758z"/>
	<path fill="#0099D9" d="M56.527,13.102v2.978h-0.482v-2.978h-1.299v-0.447h3.087v0.447H56.527z"/>
</g>
<g>
	<path d="M15.918,21.746c-0.169,1.566-0.827,2.815-1.973,3.752c-1.146,0.935-2.601,1.401-4.363,1.401
		c-2.101,0-3.766-0.592-4.993-1.774c-1.228-1.183-1.841-2.781-1.841-4.797c0-2.017,0.615-3.617,1.846-4.803
		c1.23-1.186,2.899-1.778,5.005-1.778c1.729,0,3.159,0.446,4.288,1.339c1.129,0.893,1.759,2.069,1.887,3.527h-1.833
		c-0.174-1.003-0.647-1.787-1.419-2.354c-0.772-0.565-1.751-0.849-2.94-0.849c-1.571,0-2.798,0.434-3.679,1.301
		c-0.881,0.867-1.323,2.073-1.323,3.616c0,1.539,0.442,2.74,1.327,3.607c0.884,0.867,2.114,1.302,3.691,1.302
		c1.211,0,2.224-0.315,3.037-0.95c0.814-0.634,1.297-1.479,1.449-2.539H15.918z"/>
	<path d="M17.76,26.569V14.075h1.664v4.832c0.507-0.62,1.076-1.08,1.707-1.381c0.63-0.301,1.337-0.452,2.12-0.452
		c0.608,0,1.147,0.088,1.618,0.266c0.47,0.177,0.857,0.44,1.162,0.79c0.264,0.304,0.452,0.667,0.562,1.09
		c0.109,0.422,0.165,1.101,0.165,2.036v5.313h-1.673v-5.382c0-0.979-0.17-1.673-0.511-2.082c-0.341-0.409-0.908-0.613-1.703-0.613
		c-1.014,0-1.838,0.31-2.475,0.93c-0.637,0.619-0.955,1.434-0.955,2.441v4.705L17.76,26.569L17.76,26.569z"/>
	<path d="M36.295,25.134c-0.417,0.539-0.958,0.953-1.622,1.236c-0.665,0.285-1.422,0.428-2.273,0.428
		c-1.138,0-2.019-0.245-2.644-0.735c-0.626-0.489-0.938-1.175-0.938-2.054c0-0.479,0.11-0.903,0.333-1.279
		c0.223-0.374,0.556-0.695,1.001-0.967c0.219-0.135,0.536-0.247,0.95-0.338c0.414-0.089,1.089-0.188,2.024-0.288
		c0.163-0.016,0.399-0.041,0.709-0.075c1.582-0.152,2.374-0.555,2.374-1.208c0-0.49-0.189-0.847-0.566-1.069
		c-0.377-0.223-0.991-0.334-1.842-0.334c-0.963,0-1.666,0.143-2.107,0.431c-0.442,0.288-0.686,0.749-0.731,1.385l-1.74,0.009
		c0.056-1.087,0.458-1.905,1.204-2.454c0.747-0.549,1.832-0.824,3.257-0.824c1.548,0,2.643,0.233,3.282,0.698
		c0.639,0.464,0.958,1.26,0.958,2.386v3.735c0,0.517,0.061,0.875,0.182,1.071c0.121,0.199,0.336,0.297,0.646,0.297
		c0.067,0,0.142-0.004,0.224-0.014c0.082-0.008,0.167-0.021,0.258-0.037v1.352c-0.22,0.028-0.439,0.051-0.659,0.063
		c-0.22,0.014-0.431,0.021-0.633,0.021c-0.49,0-0.866-0.113-1.128-0.342C36.553,26,36.379,25.636,36.295,25.134z M36.245,21.813
		c-0.231,0.136-0.57,0.255-1.018,0.358c-0.448,0.104-1.043,0.199-1.787,0.283c-1.205,0.135-1.971,0.308-2.297,0.516
		c-0.327,0.209-0.49,0.533-0.49,0.972c0,0.45,0.179,0.804,0.537,1.056c0.357,0.254,0.854,0.381,1.491,0.381
		c1.025,0,1.875-0.211,2.552-0.633c0.676-0.422,1.014-0.938,1.014-1.547v-1.386H36.245z"/>
	<path d="M59.52,14.075h1.674v4.655c0.479-0.541,1.006-0.94,1.584-1.2c0.576-0.259,1.236-0.388,1.98-0.388
		c1.475,0,2.672,0.448,3.59,1.343c0.918,0.896,1.377,2.061,1.377,3.499c0,1.441-0.459,2.612-1.377,3.514
		c-0.918,0.902-2.109,1.354-3.572,1.354c-0.744,0-1.412-0.137-2.002-0.4c-0.592-0.27-1.119-0.68-1.58-1.229v1.351H59.52V14.075z
		 M61.191,21.983c0,1.029,0.306,1.841,0.912,2.433c0.608,0.592,1.438,0.888,2.483,0.888c1.048,0,1.872-0.294,2.472-0.884
		c0.601-0.588,0.9-1.4,0.9-2.437c0-1.031-0.301-1.842-0.9-2.434c-0.6-0.591-1.424-0.887-2.472-0.887
		c-1.047,0-1.875,0.297-2.483,0.891C61.497,20.148,61.191,20.958,61.191,21.983z"/>
	<path d="M72.843,22.278v0.067c0,0.879,0.31,1.596,0.925,2.148c0.615,0.555,1.414,0.834,2.396,0.834c0.732,0,1.355-0.146,1.874-0.44
		c0.521-0.292,0.874-0.694,1.065-1.208h1.957c-0.328,1.015-0.927,1.805-1.785,2.371c-0.857,0.564-1.896,0.849-3.111,0.849
		c-1.544,0-2.775-0.448-3.702-1.349c-0.924-0.897-1.384-2.1-1.384-3.604c0-1.503,0.46-2.704,1.384-3.603
		c0.927-0.898,2.158-1.348,3.702-1.348c1.574,0,2.813,0.439,3.708,1.318s1.343,2.09,1.343,3.632v0.33h-8.372V22.278z M72.893,21.087
		h6.522c-0.131-0.788-0.483-1.407-1.062-1.854c-0.576-0.447-1.308-0.671-2.19-0.671c-0.88,0-1.608,0.224-2.188,0.671
		C73.395,19.68,73.034,20.299,72.893,21.087z"/>
	<path d="M83.184,26.569v-9.258h1.664v1.562c0.422-0.608,0.924-1.072,1.504-1.394c0.58-0.321,1.213-0.482,1.901-0.482
		c0.168,0,0.308,0.013,0.421,0.039c0.113,0.026,0.223,0.066,0.33,0.122v1.766c-0.227-0.067-0.436-0.116-0.629-0.147
		c-0.195-0.031-0.385-0.046-0.57-0.046c-0.828,0-1.525,0.314-2.091,0.942c-0.567,0.628-0.85,1.415-0.85,2.362v4.535L83.184,26.569
		L83.184,26.569z"/>
</g>
<g>
	<path fill="#0099D9" d="M55.075,30.902c-0.068,0.633-0.335,1.139-0.798,1.518c-0.465,0.377-1.051,0.566-1.764,0.566
		c-0.852,0-1.522-0.238-2.021-0.718c-0.496-0.479-0.743-1.125-0.743-1.94c0-0.814,0.248-1.463,0.745-1.943
		c0.499-0.479,1.171-0.717,2.025-0.717c0.698,0,1.276,0.181,1.732,0.541s0.711,0.836,0.764,1.426h-0.74
		c-0.072-0.404-0.262-0.723-0.574-0.949c-0.313-0.23-0.707-0.346-1.188-0.346c-0.638,0-1.133,0.177-1.488,0.527
		c-0.356,0.35-0.535,0.838-0.535,1.461s0.178,1.107,0.537,1.459c0.355,0.351,0.854,0.525,1.492,0.525
		c0.489,0,0.897-0.128,1.228-0.383c0.33-0.258,0.524-0.6,0.587-1.027H55.075z"/>
	<path fill="#0099D9" d="M55.625,30.328c0-0.814,0.247-1.463,0.746-1.943c0.498-0.479,1.173-0.717,2.025-0.717
		c0.849,0,1.521,0.238,2.018,0.717c0.496,0.48,0.745,1.129,0.745,1.943c0,0.815-0.249,1.463-0.747,1.94
		c-0.496,0.479-1.174,0.718-2.023,0.718c-0.849,0-1.522-0.238-2.02-0.718C55.872,31.791,55.625,31.144,55.625,30.328z
		 M56.365,30.328c0,0.625,0.18,1.11,0.537,1.461c0.356,0.35,0.854,0.523,1.494,0.523c0.633,0,1.129-0.176,1.485-0.525
		c0.356-0.352,0.535-0.836,0.535-1.459s-0.179-1.111-0.537-1.461c-0.356-0.352-0.854-0.527-1.491-0.527
		c-0.638,0-1.132,0.177-1.488,0.527C56.545,29.216,56.365,29.705,56.365,30.328z"/>
	<path fill="#0099D9" d="M62.041,32.853V27.8h1.075l1.954,4.402l1.998-4.402h1.065v5.053h-0.702l0.043-4.525l-2.043,4.525h-0.729
		l-2.008-4.525l0.043,4.525H62.041z"/>
	<path fill="#0099D9" d="M69.296,32.853V27.8h1.076l1.955,4.402l1.998-4.402h1.065v5.053h-0.701l0.041-4.525l-2.043,4.525H71.96
		l-2.008-4.525l0.044,4.525H69.296z"/>
	<path fill="#0099D9" d="M76.552,32.853V27.8h4.019v0.646h-3.305v1.489h3.098v0.666h-3.098v1.571h3.352v0.68H76.552z"/>
	<path fill="#0099D9" d="M81.525,32.853V27.8h2.656c0.586,0,1.03,0.117,1.338,0.352c0.305,0.234,0.457,0.578,0.457,1.029
		c0,0.322-0.072,0.587-0.218,0.792c-0.144,0.205-0.36,0.354-0.649,0.444c0.256,0.039,0.442,0.131,0.562,0.279
		c0.119,0.146,0.19,0.374,0.213,0.68l0.063,0.816c0.016,0.189,0.035,0.328,0.063,0.417c0.028,0.089,0.066,0.17,0.12,0.242h-0.833
		c-0.025-0.058-0.044-0.125-0.059-0.205c-0.016-0.079-0.026-0.187-0.033-0.319l-0.063-0.75c-0.029-0.349-0.113-0.584-0.258-0.709
		c-0.142-0.123-0.395-0.187-0.757-0.187h-1.896v2.17L81.525,32.853L81.525,32.853z M83.842,28.412h-1.607v1.648h1.67
		c0.505,0,0.859-0.063,1.059-0.188c0.201-0.125,0.303-0.338,0.303-0.639c0-0.306-0.102-0.52-0.299-0.641
		C84.77,28.473,84.395,28.412,83.842,28.412z"/>
	<path fill="#0099D9" d="M92.093,30.902c-0.069,0.633-0.336,1.139-0.799,1.518c-0.462,0.377-1.051,0.566-1.765,0.566
		c-0.848,0-1.522-0.238-2.02-0.718c-0.496-0.479-0.742-1.125-0.742-1.94c0-0.814,0.246-1.463,0.744-1.943
		c0.498-0.479,1.174-0.717,2.023-0.717c0.699,0,1.277,0.181,1.734,0.541c0.455,0.36,0.711,0.836,0.765,1.426h-0.741
		c-0.07-0.404-0.264-0.723-0.575-0.949c-0.313-0.23-0.709-0.346-1.188-0.346c-0.635,0-1.131,0.177-1.487,0.527
		c-0.356,0.35-0.535,0.838-0.535,1.461s0.181,1.107,0.537,1.459c0.358,0.351,0.856,0.525,1.492,0.525
		c0.491,0,0.897-0.128,1.229-0.383c0.328-0.258,0.524-0.6,0.586-1.027H92.093z"/>
	<path fill="#0099D9" d="M92.922,32.853V27.8h4.018v0.646h-3.303v1.489h3.1v0.666h-3.1v1.571h3.35v0.68H92.922z"/>
</g>
<path d="M77.223,15.022c0.01,0.223-0.586-0.037-2.223,0.011c-2.635,0.076-4.139,0.421-6.452-0.157
	c-2.44-0.611-2.391-1.143-3.284-0.7c-0.152,0.075-0.849,0.76-0.849,0.76s0.401-0.659,0.397-1.749
	c-0.006-1.139,1.738-0.928,1.816-1.348c0.081-0.42-1.536-2.237-4.015-3.236c-2.476-0.999-2.638-2.537-2.736-3.216
	c-0.101-0.68-0.06-1.519,0.181-1.659c0.239-0.14,1.778,2.477,5.273,4.175c3.497,1.698,4.355,3.236,4.794,3.196
	s2.658-2.875,6.534-3.935c3.875-1.059,5.094-2.837,5.492-2.677c0.399,0.16-3.018,3.896-5.252,5.654
	c-2.238,1.757-3.877,3.016-3.877,3.016s0.703,1.214,2.131,1.27C76.826,14.492,77.215,14.852,77.223,15.022z"/>
<path d="M45.236,27.205c-1.209,0-2.41,0.463-3.631,1.713c-1.824,1.869-1.539,3.584-0.277,3.584c1.26,0,2.285-0.719,3.042-1.508
	C46.755,28.511,46.357,27.205,45.236,27.205z M44.097,30.908c-0.64,0.666-1.604,1.34-2.653,1.34c-1.066,0-0.771-1.242,0.789-2.802
	c1.171-1.17,2.083-1.886,2.893-1.886C46.293,27.561,46.11,28.812,44.097,30.908z"/>
<path d="M43.78,31.356c0,0,0.844-0.11,1.966-0.532s2.066-1.168,2.066-1.168l0.411-0.555c0,0-1.366,1.033-2.521,1.488
	c-1.155,0.455-1.625,0.434-1.625,0.434L43.78,31.356z"/>
<path d="M42.632,38.251h0.533c0,0,2.212-4.121,5.058-8.748c4.296-6.986,6.925-11.028,9.692-11.028
	c2.812,0-9.385,10.125-9.385,10.125l-0.634,0.944c0,0,13.956-11.444,10.002-11.444c-2.822,0-6.028,4.272-10.007,11.002
	C45.992,32.313,42.632,38.251,42.632,38.251z"/>
<path d="M44.792,31.889l0.355-0.091c0,0,0.541,0.641,1.652,0.641c3.2,0,5.469-3.337,5.469-3.337s-1.966,3.622-5.545,3.622
	C45.286,32.724,44.792,31.889,44.792,31.889z"/>
<g>
	<path d="M56.893,19.22c-0.024-0.095-0.039-0.135-0.068-0.224c-0.225,0.125-0.649,0.398-0.963,0.602
		c-0.213,0.138-0.438,0.295-0.574,0.425c0.076,0.336,0.094,0.699,0.094,1.165v5.382h1.682v-5.313
		C57.061,20.321,57.005,19.643,56.893,19.22z"/>
	<path d="M54.828,19.064c0.143-0.113,0.384-0.289,0.723-0.487c0.354-0.21,0.653-0.33,0.826-0.39
		c-0.016-0.019-0.027-0.039-0.043-0.057c-0.305-0.35-0.693-0.613-1.167-0.79c-0.474-0.178-1.015-0.266-1.621-0.266
		c-0.821,0-1.552,0.159-2.187,0.477c-0.639,0.319-1.229,0.821-1.775,1.508c-0.191-0.63-0.574-1.12-1.149-1.466
		c-0.575-0.346-1.292-0.519-2.154-0.519c-0.784,0-1.49,0.15-2.121,0.452c-0.631,0.302-1.2,0.762-1.707,1.381v-1.596H40.79v9.258
		h1.681v-4.704c0-1.009,0.318-1.823,0.955-2.442c0.636-0.62,1.462-0.93,2.476-0.93c0.794,0,1.361,0.205,1.702,0.613
		c0.341,0.408,0.511,1.103,0.511,2.082v5.382h1.622v-4.705c0-1.008,0.318-1.822,0.957-2.441c0.636-0.62,1.461-0.93,2.473-0.93
		C53.932,18.493,54.482,18.685,54.828,19.064z"/>
</g>
</svg>
