<?xml version="1.0" encoding="utf-8"?>
<!-- Generator: Adobe Illustrator 15.1.0, SVG Export Plug-In . SVG Version: 6.00 Build 0)  -->
<!DOCTYPE svg PUBLIC "-//W3C//DTD SVG 1.1//EN" "http://www.w3.org/Graphics/SVG/1.1/DTD/svg11.dtd">
<svg version="1.1" id="Layer_1" xmlns="http://www.w3.org/2000/svg" xmlns:xlink="http://www.w3.org/1999/xlink" x="0px" y="0px"
	 width="300px" height="300px" viewBox="0 0 300 300" enable-background="new 0 0 300 300" xml:space="preserve">
<polygon fill="#F77A52" points="217.04,47.718 200.812,17.569 99.188,17.569 82.961,47.718 93.384,147.61 136.683,119.313 
	132.763,134.277 150,148.986 138.741,118.196 115.239,48.719 184.763,48.719 161.789,117.377 150,148.986 167.238,134.277 
	163.115,119.181 206.617,147.61 "/>
<path fill="#F77A52" d="M176.061,134.545"/>
<path fill="#F77A52" d="M188.531,242.494V220.82h85.787V70.766c0-9.156-7.491-16.648-16.647-16.648h-35.488l-10.8,103.511
	l-35.396-23.131l-25.12,21.346v127.646h106.804c9.156,0,16.647-7.491,16.647-16.647v-24.348H188.531z"/>
<path fill="#F77A52" d="M124.013,134.498l-35.395,23.131L77.818,54.118H42.329c-9.156,0-16.647,7.492-16.647,16.647V220.82h85.787
	v21.674H25.682v24.347c0,9.157,7.492,16.648,16.647,16.648h106.805V155.844L124.013,134.498z"/>
<rect x="25.682" y="232.641" fill="#F77A52" width="90.153" height="3.779"/>
<rect x="184.243" y="232.641" fill="#F77A52" width="90.153" height="3.779"/>
<polygon fill="#F77A52" points="159.779,57.089 141.345,57.089 138.345,47.99 162.779,47.99 "/>
</svg>
