<?xml version="1.0" encoding="utf-8"?>
<!-- Generator: Adobe Illustrator 15.1.0, SVG Export Plug-In . SVG Version: 6.00 Build 0)  -->
<!DOCTYPE svg PUBLIC "-//W3C//DTD SVG 1.1//EN" "http://www.w3.org/Graphics/SVG/1.1/DTD/svg11.dtd">
<svg version="1.1" id="Layer_1" xmlns="http://www.w3.org/2000/svg" xmlns:xlink="http://www.w3.org/1999/xlink" x="0px" y="0px"
	 width="300px" height="300px" viewBox="0 0 300 300" enable-background="new 0 0 300 300" xml:space="preserve">
<g>
	<g>
		<path fill="#EE7A52" d="M63.66,33.012L22.592,22.376c-2.865,0-5.193,2.334-5.193,5.197v191.956c0,2.888,2.328,5.193,5.193,5.193
			l41.068-10.636c2.863,0,5.197-2.306,5.197-5.193V38.209C68.856,35.346,66.522,33.012,63.66,33.012L63.66,33.012z M58.466,203.726
			l-30.678,7.446V35.957l30.678,7.445V203.726z M58.466,203.726"/>
		<path fill="#EE7A52" d="M277.432,22.376L236.34,33.012c-2.863,0-5.17,2.334-5.17,5.197v170.685c0,2.888,2.307,5.193,5.17,5.193
			l41.092,10.636c2.86,0,5.169-2.306,5.169-5.193V27.573C282.601,24.71,280.292,22.376,277.432,22.376L277.432,22.376z
			 M272.238,211.172l-30.705-7.446V43.402l30.705-7.445V211.172z M272.238,214.362"/>
		<g>
			<path fill="#EE7A52" d="M80.634,33.143c-2.859,0-5.193,2.333-5.193,5.196v43.247V96.19v109.912c0,2.861,2.334,5.193,5.193,5.193
				s5.194-2.332,5.194-5.193V96.19V81.585V38.339C85.828,35.476,83.493,33.143,80.634,33.143z"/>
			<path fill="#EE7A52" d="M96.187,33.143c-2.86,0-5.187,2.333-5.187,5.196v43.247V96.19v109.913c0,2.861,2.327,5.193,5.187,5.193
				c2.865,0,5.196-2.332,5.196-5.193V96.19V81.585V38.339C101.383,35.476,99.051,33.143,96.187,33.143z"/>
			<path fill="#EE7A52" d="M111.771,33.143c-2.867,0-5.193,2.333-5.193,5.196v43.247V96.19v109.913c0,2.861,2.326,5.193,5.193,5.193
				c2.863,0,5.171-2.332,5.171-5.193V96.19V81.585V38.339C116.942,35.476,114.634,33.143,111.771,33.143z"/>
			<path fill="#EE7A52" d="M127.324,33.143c-2.86,0-5.195,2.333-5.195,5.196v43.247V96.19v109.913c0,2.861,2.335,5.193,5.195,5.193
				c2.867,0,5.194-2.332,5.194-5.193V96.19V81.585V38.339C132.519,35.476,130.191,33.143,127.324,33.143z"/>
			<path fill="#EE7A52" d="M142.885,33.143c-2.866,0-5.173,2.333-5.173,5.196v43.247V96.19v109.913c0,2.861,2.307,5.193,5.173,5.193
				c2.885,0,5.187-2.331,5.187-5.193V96.19V81.585V38.339C148.071,35.476,145.77,33.143,142.885,33.143z"/>
			<path fill="#EE7A52" d="M158.462,33.143c-2.862,0-5.195,2.333-5.195,5.196v43.247V96.19v109.913c0,2.862,2.333,5.193,5.195,5.193
				c2.863,0,5.193-2.331,5.193-5.193V96.19V81.585V38.339C163.655,35.476,161.325,33.143,158.462,33.143z"/>
			<path fill="#EE7A52" d="M174.019,33.143c-2.863,0-5.193,2.333-5.193,5.196v43.247V96.19v109.913c0,2.862,2.33,5.193,5.193,5.193
				c2.887,0,5.193-2.331,5.193-5.193V96.19V81.585V38.339C179.212,35.476,176.905,33.143,174.019,33.143z"/>
			<path fill="#EE7A52" d="M189.597,33.143c-2.887,0-5.193,2.333-5.193,5.196v43.247V96.19v109.913c0,2.862,2.332,5.193,5.193,5.193
				c2.863,0,5.17-2.331,5.17-5.193V96.19V81.585V38.339C194.767,35.476,192.46,33.143,189.597,33.143z"/>
			<path fill="#EE7A52" d="M205.153,33.143c-2.862,0-5.193,2.333-5.193,5.196v43.247V96.19v80.131c0,2.861,2.331,5.193,5.193,5.193
				s5.195-2.332,5.195-5.193V96.19V81.585V38.339C210.349,35.476,208.016,33.143,205.153,33.143z"/>
			<path fill="#EE7A52" d="M220.708,33.143c-2.862,0-5.166,2.333-5.166,5.196v43.247V96.19v109.913c0,2.862,2.304,5.193,5.166,5.193
				c2.89,0,5.196-2.331,5.196-5.193V96.19V81.585V38.339C225.904,35.476,223.598,33.143,220.708,33.143z"/>
		</g>
	</g>
	<path fill="#EE7A52" d="M279.945,258.055c0,0-269.68,4.391-269.68,9.782c0,5.393,269.68,9.786,269.68,9.786
		c5.394,0,9.789-4.394,9.789-9.786C289.734,262.445,285.339,258.055,279.945,258.055z M268.055,273.371
		c-9.272,0-16.79-0.744-16.79-5.551c0-4.442,7.518-5.548,16.79-5.548c9.271,0,16.789-0.581,16.789,5.548
		C284.844,274.334,277.326,273.371,268.055,273.371z"/>
</g>
</svg>
