<?xml version="1.0" encoding="utf-8"?>
<!-- Generator: Adobe Illustrator 15.1.0, SVG Export Plug-In . SVG Version: 6.00 Build 0)  -->
<!DOCTYPE svg PUBLIC "-//W3C//DTD SVG 1.1 Basic//EN" "http://www.w3.org/Graphics/SVG/1.1/DTD/svg11-basic.dtd">
<svg version="1.1" baseProfile="basic" id="Layer_1"
	 xmlns="http://www.w3.org/2000/svg" xmlns:xlink="http://www.w3.org/1999/xlink" x="0px" y="0px" width="388px" height="388px"
	 viewBox="0 0 388 388" xml:space="preserve">
<path fill="#FFFFFF" d="M49.96,46.783c1.364,0.325,2.602,0.871,3.711,1.639c1.109,0.769,2.005,1.766,2.689,2.995
	c0.426,0.821,0.767,1.713,1.023,2.674c0.256,0.962,0.298,1.833,0.128,2.613c-0.94,3.23-1.963,6.423-3.072,9.579
	c-1.11,3.156-2.646,6.175-4.608,9.055c-0.94,1.524-2.092,2.485-3.456,2.887c-1.366,0.404-2.774,0.576-4.224,0.515
	c-1.452-0.06-2.413-0.563-2.88-1.509c-0.47-0.945-0.406-2.082,0.191-3.408c1.108-2.387,2.196-4.774,3.264-7.16
	c1.066-2.385,2.113-4.811,3.137-7.279c0.596-1.325,0.938-2.481,1.023-3.47c0.083-0.986,0.042-2.455-0.128-4.406
	c-1.196-0.335-2.412-0.649-3.648-0.939c-1.237-0.29-2.496-0.556-3.776-0.8c-1.452-0.146-2.476-0.023-3.072,0.362
	c-0.598,0.387-1.238,1.204-1.92,2.45c-1.708,3.374-3.052,6.804-4.033,10.291c-0.981,3.489-1.516,7.156-1.6,11.002
	c-0.085,4.018,0.405,7.8,1.473,11.344c1.066,3.547,2.026,7.164,2.88,10.853c0.171,0.67,0.448,1.268,0.832,1.792
	c0.384,0.527,0.746,1.117,1.088,1.773c0.938,1.464,1.066,2.735,0.384,3.811c-0.684,1.076-1.836,1.762-3.457,2.055
	c-0.94,0.244-1.855,0.377-2.751,0.402c-0.896,0.025-1.729,0.537-2.496,1.535c-0.94,1.011-1.516,2.099-1.729,3.267
	c-0.214,1.168-0.406,2.357-0.576,3.564c-0.427,3.447-0.534,6.825-0.32,10.136c0.213,3.312,0.405,6.669,0.577,10.068
	c0,0.256,0.041,0.528,0.127,0.823c0.084,0.291,0.17,0.732,0.256,1.324c0.682-0.564,1.344-1.063,1.984-1.495
	c0.64-0.433,1.172-0.879,1.6-1.339c1.962-2.283,3.904-4.563,5.824-6.843c1.921-2.278,3.861-4.56,5.824-6.843
	c0.597-0.728,1.172-1.454,1.729-2.18c0.553-0.725,1.171-1.411,1.856-2.062c1.024-0.929,2.132-1.612,3.328-2.045
	c1.194-0.431,2.561-0.451,4.097-0.056c-0.172,0.44-0.32,0.813-0.448,1.122c-0.128,0.311-0.278,0.641-0.449,0.994
	c-1.452,2.075-2.838,4.1-4.16,6.076c-1.324,1.979-2.709,3.963-4.16,5.949c-1.453,1.819-2.903,3.633-4.353,5.452
	c-1.452,1.816-2.988,3.555-4.608,5.215c-1.452,1.391-3.03,2.449-4.735,3.175c-1.708,0.727-3.542,0.911-5.504,0.548
	c-0.598-0.126-1.174-0.167-1.729-0.125c-0.556,0.042-1.132,0.001-1.728-0.125c-1.452-0.146-2.796-0.471-4.032-0.972
	c-1.238-0.504-2.348-1.23-3.328-2.179c-0.982-0.949-1.729-2.172-2.241-3.67C9.256,133.725,9,131.91,9,129.776
	c0.084-1.882,0.128-3.741,0.128-5.578c0-1.834,0.084-3.654,0.256-5.459c0.256-2.238,0.724-4.448,1.408-6.635
	c0.682-2.184,1.492-4.338,2.433-6.458c1.193-2.565,3.027-4.113,5.503-4.643c0.597-0.13,1.215-0.285,1.855-0.462
	c0.641-0.176,1.301-0.375,1.984-0.599c-0.256-0.749-0.469-1.328-0.64-1.743c-3.329-6.317-4.908-13.236-4.736-20.761
	c0.083-5.382,0.745-10.617,1.984-15.703c1.235-5.086,3.348-10.047,6.336-14.883c0.852-1.429,2.133-2.21,3.84-2.34
	c2.388-0.096,4.736-0.147,7.04-0.153c2.304-0.003,4.608,0.376,6.912,1.139c1.024,0.349,2.09,0.588,3.2,0.715
	C47.613,46.345,48.765,46.535,49.96,46.783z M28.2,96.313c0.084-0.091,0.128-0.18,0.128-0.266l-0.256-0.236
	c0,0.086-0.022,0.174-0.064,0.261c-0.044,0.09-0.064,0.177-0.064,0.261L28.2,96.313z M86.056,116.613
	c1.28-0.438,2.475-1.405,3.585-2.897c1.108-1.492,2.474-3.11,4.096-4.856c-0.512,4.647-1.708,8.129-3.584,10.449
	c-1.877,2.319-3.756,3.593-5.631,3.82c-1.196,0.178-2.39-0.285-3.584-1.39c-1.196-1.104-2.134-2.398-2.816-3.882
	c-1.452,2.67-2.86,5.359-4.224,8.065c-1.366,2.707-2.39,4.768-3.072,6.187c-0.854,2.112-2.349,2.994-4.48,2.645
	c-0.854-0.107-1.664-0.237-2.432-0.392c-0.768-0.156-1.58-0.372-2.433-0.646c-0.511-0.134-1.067-0.239-1.664-0.322
	c-0.598-0.082-1.196-0.208-1.792-0.376c-0.597-0.167-1.131-0.405-1.6-0.709c-0.47-0.306-0.748-0.712-0.832-1.217
	c-0.598-0.979-1.004-2.484-1.216-4.516c-0.214-2.032-0.62-4.005-1.216-5.923c0.084-0.945-0.044-1.873-0.384-2.787
	c-0.342-0.912-0.512-1.923-0.512-3.033c0-1.194,0.02-2.497,0.064-3.908c0.042-1.412,0.106-2.802,0.191-4.175
	c0.085-1.542,0.212-3.13,0.384-4.765c0.17-2.999,0.512-5.329,1.025-6.99c0.511-1.659,0.767-2.917,0.767-3.771
	c-0.085-2.211,0.98-3.23,3.2-3.059c1.194,0.165,2.368,0.331,3.52,0.499c1.152,0.169,2.324,0.379,3.521,0.628
	c0.256-0.019,0.511,0.026,0.768,0.134c0.256,0.108,0.512,0.239,0.768,0.389c0.256,1.09,0.276,2.177,0.064,3.26
	c-0.214,1.083-0.556,2.327-1.024,3.726c-0.47,1.402-1.024,3.066-1.664,4.991c-0.64,1.928-1.26,4.278-1.856,7.053
	c-0.428,1.911-0.598,3.993-0.513,6.248c0.084,2.255,0.321,4.372,0.705,6.347c0.384,1.977,0.938,3.685,1.664,5.121
	c0.724,1.438,1.515,2.294,2.368,2.572c0.256-0.362,0.682-1.054,1.28-2.082c0.596-1.025,1.172-2.114,1.727-3.267
	c0.555-1.15,1.067-2.213,1.537-3.189c0.468-0.974,0.746-1.548,0.833-1.727l2.431-5.178c0.596-1.069,0.897-2.116,0.897-3.14
	c0-1.024-0.128-2.081-0.384-3.17c-0.513-2.18-0.662-4.322-0.449-6.43c0.212-2.106,1.172-4.077,2.88-5.917
	c0.34-0.451,0.725-0.843,1.152-1.175c0.426-0.331,0.852-0.469,1.28-0.417c1.536-0.031,3.071,0.002,4.608,0.097
	c1.536,0.097,3.115,0.168,4.736,0.215l-5.121,13.574c-0.341,0.71-0.662,1.374-0.959,1.993c-0.3,0.621-0.577,1.154-0.833,1.6
	c0.17,2.718,0.639,4.431,1.408,5.141C84.008,116.769,84.947,116.953,86.056,116.613z M122.92,77.964
	c1.963,0.449,2.73,1.457,2.304,3.024c-0.172,0.441-0.319,0.857-0.448,1.25c-0.128,0.394-0.32,0.814-0.577,1.26
	c-1.878,3.387-4.054,6.667-6.528,9.842c-2.476,3.176-5.248,6.246-8.319,9.209c-1.111,1.109-2.199,2.26-3.265,3.449
	c-1.068,1.191-1.984,2.413-2.752,3.665c-0.513,0.893-0.833,1.836-0.96,2.825c-0.128,0.992-0.192,1.958-0.192,2.895
	c0,1.452,0.554,2.988,1.664,4.61c1.108,1.623,2.432,2.844,3.968,3.666c0.682-0.564,1.6-1.293,2.752-2.193
	c1.151-0.898,2.067-1.672,2.751-2.321c2.73-2.683,5.46-5.089,8.192-7.216c2.73-2.127,4.778-3.968,6.144-5.524
	c-0.172,0.953-0.384,1.907-0.639,2.864c-0.173,0.781-0.406,1.653-0.705,2.613c-0.3,0.963-0.662,1.801-1.088,2.515
	c-1.366,2.324-3.03,4.349-4.992,6.077c-1.964,1.729-4.182,3.582-6.656,5.563c-1.451,1.134-2.924,1.759-4.416,1.872
	c-1.494,0.114-3.222-0.011-5.184-0.374c-2.902-0.546-5.548-1.753-7.936-3.619c-2.39-1.866-4.096-4.041-5.12-6.522
	c-0.171-0.327-0.277-0.684-0.32-1.064c-0.044-0.379-0.15-0.862-0.32-1.447c-0.086-0.846-0.172-1.693-0.256-2.541
	c-0.086-0.845-0.108-1.74-0.064-2.683c0.042-0.941,0.148-2.016,0.321-3.225c0.169-1.207,0.511-2.642,1.024-4.302
	c0.682-2.696,1.62-5.372,2.815-8.023c1.194-2.651,2.346-5.298,3.456-7.943c0.426-0.971,0.916-1.946,1.472-2.928
	c0.554-0.98,1.129-1.961,1.728-2.948c0.34-0.538,0.724-1.057,1.152-1.56c0.426-0.5,0.852-0.98,1.28-1.441
	c1.62-1.83,3.882-2.6,6.784-2.31c0.682,0.12,1.408,0.149,2.177,0.091c0.767-0.059,1.535-0.031,2.304,0.08
	c1.023,0.093,1.833,0.288,2.432,0.583C118.78,76.788,120.787,77.531,122.92,77.964z M105.768,96.167
	c6.058-6.519,9.898-11.803,11.52-15.853c-1.708-0.382-2.796-0.534-3.264-0.456c-0.47,0.079-1.132,0.62-1.984,1.622
	c-1.878,2.108-3.373,4.312-4.481,6.614c-1.109,2.304-1.919,4.669-2.431,7.097c0,0.172,0.063,0.337,0.192,0.497
	C105.447,95.852,105.595,96.01,105.768,96.167z M156.84,72.054c2.986-1.165,5.418-0.625,7.296,1.62
	c0.768,0.882,1.173,1.875,1.216,2.98c0.042,1.107-0.192,2.276-0.705,3.51c-0.767,2.022-1.536,4.085-2.304,6.191
	s-1.493,4.21-2.176,6.309c-0.256,0.704-0.749,1.722-1.472,3.057c-0.726,1.335-1.216,2.355-1.472,3.056v2.688
	c-0.512,0.039-1.024,0.057-1.537,0.053c-0.512-0.003-0.982-0.073-1.408-0.212c-2.22-0.514-3.606-1.282-4.16-2.308
	c-0.556-1.023-0.493-2.67,0.192-4.943c0.682-2.1,1.385-4.202,2.11-6.305c0.725-2.104,1.429-4.205,2.113-6.305l1.152-3.8
	c-0.94,0.328-1.644,0.766-2.112,1.313c-0.47,0.547-0.875,1.134-1.216,1.757c-2.391,3.852-4.524,7.791-6.4,11.815
	c-1.878,4.027-3.415,8.218-4.608,12.575c-0.684,2.442-1.431,4.825-2.24,7.147c-0.812,2.324-1.644,4.669-2.496,7.038
	c-0.428,0.973-0.619,1.947-0.576,2.924c0.042,0.978,0.404,1.909,1.088,2.796c-1.452,1.049-2.944,1.674-4.479,1.877
	c-1.537,0.202-2.945,0.053-4.225-0.446c-1.28-0.5-2.327-1.317-3.136-2.449c-0.812-1.132-1.26-2.548-1.344-4.25
	c-0.086-1.358,0-2.708,0.256-4.052c0.256-1.341,0.468-2.702,0.641-4.081l0.512-4.519c0.255-1.896,0.467-3.556,0.639-4.977
	c0.171-1.422,0.34-2.82,0.513-4.2c0.17-1.376,0.362-2.821,0.576-4.332c0.211-1.507,0.489-3.301,0.832-5.375
	c0.084-2.737,0.448-5.474,1.088-8.211s1.258-5.492,1.856-8.27c0.426-1.653,0.938-2.695,1.536-3.125
	c0.596-0.429,1.748-0.581,3.456-0.455c1.45,0.146,2.538,0.364,3.264,0.647c0.725,0.288,1.472,0.785,2.24,1.495
	c-1.28,4.535-2.304,9.072-3.072,13.61c-0.768,4.538-0.812,9.172-0.128,13.897l5.248-8.975c1.451-2.5,2.858-4.996,4.225-7.49
	c1.363-2.492,3.155-4.721,5.375-6.682c0.596-0.472,1.216-0.967,1.856-1.486C155.497,72.648,156.156,72.278,156.84,72.054z
	 M216.105,100.054c-0.684,1.93-1.408,3.691-2.176,5.285c-0.77,1.595-1.537,3.041-2.305,4.336c-0.77,1.295-1.451,2.478-2.049,3.547
	s-0.98,2.039-1.152,2.903c-0.256,1.643-0.363,3.249-0.32,4.825c0.043,1.575,0.172,3.144,0.385,4.706
	c0.213,1.562,0.404,3.147,0.578,4.756c0.168,1.607,0.209,3.227,0.127,4.854c-0.086,1.626-0.15,3.66-0.193,6.095
	s-0.191,5.006-0.447,7.714c-0.256,2.708-0.641,5.445-1.15,8.216c-0.514,2.769-1.281,5.301-2.305,7.599
	c-1.025,2.296-2.326,4.209-3.906,5.738c-1.578,1.528-3.563,2.467-5.951,2.822c-4.268,0.58-7.423-0.354-9.472-2.8
	c-2.048-2.448-3.328-5.806-3.841-10.075c-0.511-4.271-0.469-9.096,0.128-14.474c0.597-5.379,1.409-10.667,2.433-15.865
	c1.023-5.198,2.067-9.972,3.136-14.319c1.066-4.347,1.77-7.643,2.112-9.888c-0.768,1.511-1.622,3.387-2.559,5.635
	c-0.941,2.248-1.985,4.483-3.137,6.702c-1.152,2.22-2.454,4.22-3.904,5.994c-1.452,1.775-3.072,2.942-4.864,3.507
	c-2.476,0.784-4.608,0.734-6.4-0.152c-1.792-0.888-3.264-2.184-4.416-3.888c-1.152-1.704-2.027-3.664-2.624-5.881
	c-0.596-2.215-0.938-4.258-1.024-6.13c-0.17-2.63-0.02-5.311,0.448-8.035c0.468-2.723,0.916-5.423,1.344-8.102
	c0.256-1.47,0.554-2.708,0.895-3.716c0.34-1.006,0.833-1.77,1.473-2.289c0.64-0.517,1.492-0.774,2.56-0.771
	c1.066,0.005,2.451,0.241,4.16,0.707c1.62,0.389,2.708,0.946,3.264,1.671c0.554,0.726,0.81,1.583,0.768,2.565
	c-0.044,0.985-0.255,2.068-0.64,3.249c-0.384,1.181-0.621,2.459-0.704,3.83c-0.342,2.502-0.598,5.018-0.768,7.546
	c-0.173,2.532-0.385,5.044-0.641,7.537c-0.172,1.037-0.32,2.072-0.449,3.106c-0.127,1.034-0.085,1.883,0.128,2.551
	c0.212,0.666,0.618,1.041,1.217,1.124c0.595,0.083,1.62-0.36,3.072-1.321c0.596-0.389,1.151-0.943,1.664-1.664
	c0.512-0.721,1.024-1.506,1.537-2.357c0.512-0.849,0.96-1.673,1.344-2.471s0.746-1.507,1.088-2.131
	c1.194-2.053,2.304-4.1,3.328-6.141c1.025-2.041,2.004-4.121,2.944-6.241c0.768-1.764,1.344-3.559,1.728-5.379
	c0.384-1.821,0.917-3.568,1.6-5.242c0.853-1.857,2.027-3.077,3.52-3.66c1.492-0.582,2.965-0.674,4.416-0.272
	c1.451,0.402,2.689,1.267,3.713,2.597c1.025,1.33,1.492,2.98,1.408,4.949c0,0.94-0.148,1.889-0.449,2.85
	c-0.299,0.963-0.555,1.92-0.766,2.875c-0.215,0.957-0.344,1.882-0.385,2.782c-0.045,0.899,0.148,1.761,0.576,2.58
	c0.682,1.314,1.492,1.934,2.432,1.863c0.938-0.071,1.92-0.466,2.943-1.184s2.09-1.587,3.201-2.612
	C213.885,101.588,214.994,100.735,216.105,100.054z M204.842,127.023c0-0.598,0.018-1.88,0.063-3.844
	c0.043-1.968,0.02-3.992-0.063-6.076c-0.088-2.084-0.301-3.901-0.641-5.456c-0.344-1.553-0.941-2.252-1.793-2.104
	c-0.598,0.132-1.195,1.18-1.791,3.145c-0.598,1.966-1.152,4.165-1.666,6.592c-0.51,2.427-0.98,4.747-1.406,6.955
	c-0.428,2.208-0.686,3.614-0.768,4.219c-0.6,2.519-1.262,5.642-1.984,9.367c-0.727,3.724-1.216,7.495-1.473,11.313
	c-0.256,3.815-0.044,7.405,0.641,10.767c0.681,3.361,2.132,5.938,4.351,7.734c1.537-3.105,2.752-6.44,3.648-10.007
	c0.895-3.567,1.555-7.222,1.984-10.966c0.426-3.744,0.682-7.456,0.768-11.131C204.797,133.853,204.842,130.352,204.842,127.023z
	 M246.697,47.419c1.193,0.849,1.514,1.593,0.959,2.231c-0.555,0.64-1.301,1.295-2.238,1.963c-2.307,1.541-4.865,2.655-7.68,3.337
	c-2.818,0.685-5.506,1.379-8.066,2.086c-0.172,0.013-0.299,0.066-0.383,0.157c-0.512,2.003-1.047,3.984-1.6,5.945
	c-0.557,1.963-1.133,3.949-1.729,5.957c-0.43,1.568-0.877,3.375-1.344,5.414c-0.471,2.042-0.896,4.037-1.279,5.987
	c-0.385,1.949-0.664,3.742-0.834,5.375c-0.172,1.635-0.129,2.784,0.129,3.447c0.256,0.578,0.297,1.214,0.129,1.91
	c-0.258,1.728-0.535,3.497-0.834,5.312c-0.299,1.814-0.533,3.582-0.703,5.302c-0.086,3.078,0.682,6.264,2.305,9.552
	c0.512-0.55,0.98-1.034,1.406-1.451c0.428-0.417,0.768-0.846,1.025-1.294c1.877-1.848,3.732-3.589,5.566-5.223
	c1.836-1.632,3.264-3.427,4.289-5.383c-0.256,1.385-0.557,2.73-0.896,4.036c-0.34,1.222-0.768,2.47-1.279,3.745
	c-0.512,1.278-1.197,2.503-2.049,3.676c-0.684,1.332-1.535,2.677-2.561,4.036c-1.021,1.357-2.154,2.532-3.391,3.521
	c-1.238,0.991-2.518,1.707-3.84,2.149c-1.324,0.441-2.582,0.325-3.777-0.353c-0.256-0.152-0.51-0.537-0.768-1.158
	c-0.256-0.62-0.533-1.303-0.832-2.048c-0.301-0.745-0.576-1.47-0.832-2.176c-0.256-0.705-0.428-1.184-0.512-1.434
	c-0.768-1.733-1.344-3.501-1.727-5.307c-0.385-1.805-0.449-3.743-0.193-5.811c0.17-1.975,0.236-4.006,0.193-6.095
	c-0.047-2.086-0.064-4.111-0.064-6.075c0.082-2.737,0.191-6.178,0.32-10.329c0.127-4.147,0.488-8.376,1.086-12.69
	c0.172-0.865,0.299-1.815,0.385-2.846c0.084-1.03,0.213-2.148,0.385-3.357l-0.514,0.039c-2.219,0.169-4.414,0.38-6.592,0.63
	c-2.176,0.252-4.328,0.373-6.463,0.364c-0.34,0.026-0.787-0.023-1.344-0.153c-0.555-0.128-1.066-0.324-1.537-0.587
	c-0.467-0.262-0.787-0.58-0.961-0.951c-0.168-0.371,0-0.788,0.514-1.254c0.342-0.367,0.875-0.643,1.6-0.826
	c0.727-0.183,1.516-0.308,2.369-0.373s1.664-0.126,2.432-0.185s1.365-0.146,1.793-0.265c1.449-0.45,2.836-0.898,4.158-1.34
	c1.324-0.441,2.668-0.844,4.031-1.204c0.514-0.208,0.852-0.32,1.025-0.333c0.17-2.744,0.361-5.212,0.576-7.404
	c0.211-2.192,0.404-3.551,0.576-4.076c0.168-0.695,0.211-1.252,0.127-1.673c-0.51-2.777,0.084-5.467,1.791-8.073
	c0.172-0.353,0.342-0.964,0.514-1.831c0.17-0.695,0.256-1.342,0.256-1.939c0-0.597,0.084-1.201,0.258-1.812
	c0.338-1.221,0.703-2.464,1.086-3.731c0.385-1.265,0.789-2.512,1.215-3.74c1.707-0.557,3.35-0.81,4.93-0.76
	c1.578,0.052,3.137,0.231,4.672,0.54c0.77,0.114,1.344,0.455,1.729,1.021c0.383,0.569,0.617,1.233,0.703,1.995
	c0.086,0.761,0.086,1.529,0,2.303c-0.598,4.058-1.174,8.07-1.727,12.037c-0.557,3.968-1.09,7.977-1.6,12.025l-0.258,2.068
	c1.963-0.32,3.924-0.747,5.889-1.281c1.961-0.534,3.924-0.959,5.889-1.28c0-0.596,0.17-0.973,0.51-1.127
	c0.342-0.154,0.748-0.185,1.217-0.093c0.469,0.093,0.916,0.272,1.346,0.539C246.1,47.061,246.441,47.269,246.697,47.419z
	 M271.273,99.949c0,0.342,0.043,0.701,0.127,1.078c0.084,0.378,0.213,0.902,0.385,1.571c1.705-1.494,3.242-2.89,4.607-4.191
	c1.363-1.298,2.773-2.43,4.225-3.394c-1.111,3.243-2.113,5.75-3.008,7.525c-0.896,1.777-1.941,3.348-3.137,4.719
	c-1.451,1.732-3.242,2.807-5.375,3.226c-2.135,0.418-4.184,0.318-6.145-0.3c-3.072-1.047-4.822-3.259-5.248-6.641
	c-0.428-2.442-0.748-4.935-0.959-7.479c-0.215-2.543-0.449-5.128-0.705-7.754c-1.365,1.47-2.303,3.055-2.816,4.759
	c-0.512,1.703-0.98,3.425-1.406,5.163c-0.857,2.71-1.645,5.417-2.369,8.116c-0.727,2.702-1.473,5.404-2.24,8.107
	c-0.172,0.695-0.406,1.353-0.703,1.974c-0.303,0.619-0.621,1.284-0.961,1.993c-0.598,1.24-1.197,2.181-1.791,2.825
	c-0.6,0.642-1.262,1.098-1.984,1.367c-0.727,0.268-1.537,0.394-2.432,0.378c-0.898-0.019-1.902-0.112-3.01-0.284
	c-1.195-0.164-2.027-0.657-2.496-1.474s-0.703-1.824-0.703-3.018c-0.086-2.723-0.15-5.407-0.191-8.049
	c-0.045-2.64-0.064-5.328-0.064-8.059c0-0.682-0.021-1.385-0.064-2.108c-0.045-0.721-0.063-1.636-0.063-2.747
	c0.168-1.548,0.318-3.01,0.445-4.386c0.129-1.373,0.275-2.836,0.449-4.385c0.17-1.549,0.383-3.25,0.641-5.105
	c0.256-1.854,0.596-4.035,1.023-6.543c0.426-4.212,0.723-8.395,0.896-12.548c0.17-4.151,0.512-8.337,1.023-12.558
	c0.426-3.53,0.98-7.029,1.664-10.495c0.682-3.464,1.365-6.972,2.049-10.524c0.426-2.336,0.895-4.676,1.406-7.02
	c0.514-2.343,1.025-4.686,1.537-7.029c0.17-0.781,0.385-1.544,0.639-2.289c0.256-0.743,0.514-1.595,0.768-2.554
	c1.109-0.084,2.176-0.166,3.201-0.244s2.049-0.07,3.072,0.021c1.279,0.075,2.178,0.391,2.688,0.948
	c0.514,0.559,0.768,1.521,0.768,2.885c0,0.854-0.043,1.689-0.127,2.506c-0.086,0.818-0.213,1.66-0.383,2.524
	c-1.025,6.651-2.178,13.266-3.457,19.847c-0.512,2.941-1.088,5.843-1.729,8.709c-0.639,2.864-1.303,5.774-1.984,8.726
	c-0.17,0.867-0.213,1.469-0.127,1.803c0.426,4.917,0.402,9.782-0.064,14.596c-0.469,4.816-1.133,9.687-1.984,14.616
	c-0.428,3.021-0.939,6.004-1.535,8.949c-0.6,2.948-1.197,5.938-1.793,8.969c-0.172,0.867,0.129,1.74,0.896,2.62
	c0.938-2.632,1.875-5.263,2.816-7.895c0.938-2.632,1.918-5.267,2.943-7.905c1.025-2.638,2.09-5.299,3.201-7.987
	c1.107-2.687,2.26-5.356,3.455-8.008c1.107-2.645,2.24-5.268,3.393-7.874c1.152-2.604,2.324-5.275,3.52-8.013
	c0.939-0.155,1.941-0.381,3.008-0.677c1.066-0.293,2.113-0.395,3.137-0.302c1.451,0.061,2.475,0.514,3.072,1.365
	c0.596,0.851,0.809,2.008,0.641,3.472c-0.174,1.721-0.344,3.377-0.514,4.968c-0.17,1.593-0.342,3.248-0.512,4.966
	c-0.086,1.458-0.15,2.872-0.191,4.239c-0.045,1.37-0.064,2.779-0.064,4.229c-0.084,0.348-0.064,0.667,0.064,0.955
	c0.127,0.291,0.105,0.613-0.064,0.966c-0.428,1.229-0.619,2.437-0.576,3.628c0.041,1.192,0.17,2.355,0.385,3.49
	c0.211,1.136,0.426,2.294,0.641,3.472C271.293,97.56,271.357,98.748,271.273,99.949z M287.4,106.656
	c0.852-1.173,1.705-2.412,2.561-3.715c0.852-1.3,1.727-2.563,2.623-3.783c0.896-1.221,1.791-2.291,2.688-3.213
	c0.896-0.92,1.729-1.623,2.496-2.109c-0.598,1.498-1.408,3.287-2.432,5.369c-1.023,2.084-2.07,4.062-3.137,5.935
	s-2.047,3.484-2.943,4.832c-0.896,1.349-1.473,2.033-1.729,2.053c-0.598,0.045-1.537,0.052-2.816,0.022s-2.176-0.154-2.688-0.372
	c-1.279-0.242-2.176-0.964-2.688-2.163c-0.514-1.197-0.855-2.473-1.023-3.826c-0.174-1.181-0.236-2.606-0.193-4.273
	c0.041-1.667-0.021-3.09-0.191-4.273c0-0.083,0.02-0.386,0.063-0.9c0.043-0.515,0.086-1.095,0.129-1.738
	c0.041-0.643,0.041-1.284,0-1.921c-0.043-0.636-0.107-1.121-0.191-1.458c-0.086-1.273-0.129-2.358-0.129-3.254
	c0-0.896,0.043-1.814,0.129-2.761c0.084-0.945,0.256-1.981,0.512-3.111c0.256-1.127,0.596-2.478,1.023-4.046
	c0.426-0.628,0.768-1.316,1.025-2.062c0.256-0.744,0.852-1.236,1.791-1.48c1.193-0.261,2.41-0.482,3.648-0.662
	c1.236-0.179,2.496,0.194,3.775,1.12c-1.195,2.14-1.814,4.343-1.855,6.605c-0.045,2.266-0.021,4.545,0.063,6.844
	c0.086,1.103,0.064,2.471-0.063,4.1c-0.129,1.632-0.256,3.328-0.385,5.086c-0.127,1.759-0.213,3.451-0.254,5.076
	C287.164,104.201,287.227,105.562,287.4,106.656z M288.551,65.992c-1.791,0.649-3.264,0.633-4.416-0.047
	c-1.15-0.681-1.813-1.952-1.984-3.817c-0.426-3.552-0.148-7.048,0.834-10.496c0.979-3.445,2.154-6.84,3.518-10.188
	c0.172-0.439,0.555-0.895,1.154-1.368c0.596-0.471,1.152-0.77,1.662-0.895c1.025-0.248,1.941-0.147,2.754,0.303
	c0.809,0.45,1.471,1.104,1.982,1.961c0.514,0.857,0.854,1.835,1.025,2.931c0.17,1.096,0.127,2.166-0.127,3.209
	c-0.941,2.036-1.793,4.085-2.561,6.148c-0.77,2.064-1.537,4.106-2.305,6.127c-0.428,0.973-0.727,1.975-0.896,3.012
	C289.02,63.908,288.809,64.949,288.551,65.992z M328.742,103.253c1.705-1.41,3.563-3.363,5.568-5.864
	c2.004-2.499,3.732-4.784,5.184-6.859c0.17,3.486-0.213,6.481-1.15,8.984c-0.939,2.503-2.049,4.53-3.33,6.078
	c-2.389,2.316-4.693,3.321-6.91,3.022c-2.221-0.298-4.439-1.304-6.656-3.013c-1.023-0.69-1.623-1.625-1.793-2.808
	c-0.428-2.186-0.748-4.315-0.959-6.392c-0.215-2.074,0.234-4.134,1.344-6.183l3.457-7.559c0.594-1.409,1.064-2.897,1.406-4.458
	c0.34-1.563,0.299-3.351-0.127-5.367c-0.686,0.736-1.279,1.313-1.793,1.736c-0.512,0.424-0.939,0.862-1.281,1.313
	c-2.986,4.836-5.994,9.653-9.021,14.448c-3.031,4.796-5.656,9.883-7.873,15.255c-0.342,0.71-0.703,1.421-1.088,2.132
	c-0.385,0.713-0.789,1.425-1.217,2.14c-2.305,0.262-4.287-0.205-5.951-1.402c-1.666-1.196-2.541-2.857-2.625-4.985
	c-0.084-1.443,0-3.562,0.256-6.356c0.256-2.791,0.555-5.609,0.896-8.452c0.34-3.354,0.768-6.883,1.279-10.593
	c0.428-0.372,0.641-0.858,0.641-1.457c0-0.596,0.043-1.197,0.129-1.802c0-0.339,0.018-0.833,0.063-1.477
	c0.043-0.643,0.105-1.265,0.191-1.87c0.086-0.603,0.213-1.169,0.385-1.693c0.17-0.525,0.342-0.879,0.514-1.064
	c0.168-0.183,0.617-0.323,1.344-0.422c0.723-0.097,1.49-0.07,2.303,0.08c0.811,0.152,1.557,0.394,2.24,0.726
	c0.682,0.333,1.066,0.879,1.152,1.641l0.256,4.973c-0.428,1.055-0.576,2.199-0.447,3.425c0.127,1.229,0.105,2.446-0.066,3.654
	c-0.17,1.037-0.363,2.055-0.574,3.051c-0.213,0.999-0.406,2.016-0.576,3.053l0.641,0.463c0.34-0.366,0.682-0.67,1.023-0.91
	c0.34-0.238,0.641-0.581,0.896-1.029c1.961-3.135,4.16-6.097,6.592-8.887c2.432-2.786,5.012-5.438,7.744-7.948
	c1.193-1.116,2.602-1.946,4.225-2.498c1.193-0.347,2.154-0.313,2.881,0.101c0.723,0.415,1.512,1.1,2.367,2.06
	c0.938,1.125,1.514,2.275,1.729,3.453c0.211,1.18,0.146,2.507-0.193,3.983c-0.684,3.124-1.26,6.303-1.729,9.54
	c-0.469,3.236-1.26,6.39-2.367,9.459c-0.43,0.973-0.684,2.037-0.768,3.195C326.863,101.028,327.463,102.156,328.742,103.253z
	 M379.057,68.799c-0.207,3.21-0.336,6.362-0.387,9.457c-0.053,3.096-0.131,6.246-0.232,9.446c-0.207,2.696-0.438,5.341-0.693,7.936
	c-0.26,2.596-0.232,5.17,0.076,7.722c0.102,1.333,0.154,2.873,0.154,4.624c0,1.753-0.076,3.562-0.23,5.428
	c-0.156,1.867-0.309,3.679-0.465,5.445c-0.154,1.763-0.285,3.318-0.387,4.666l-1.391,8.451c-0.617,4.994-1.752,9.845-3.4,14.555
	c-1.648,4.709-3.967,9.24-6.955,13.59c-1.854,2.819-4.328,4.965-7.418,6.438c-2.576,1.225-5.178,2.273-7.805,3.145
	c-2.629,0.869-5.281,1.508-7.961,1.919c-1.648,0.228-2.809,0.137-3.477-0.275c-0.67-0.414-1.158-1.38-1.469-2.903
	c-1.031-4.766-1.414-9.423-1.158-13.976c0.256-4.555,1.828-9.104,4.713-13.651c1.752-2.813,3.994-5.303,6.723-7.466
	c2.729-2.166,5.59-3.621,8.58-4.362c0.1,1.125-0.131,2.043-0.697,2.758c-0.568,0.711-1.213,1.352-1.932,1.923
	c-3.918,3.287-6.645,6.971-8.191,11.056c-1.547,4.084-2.576,8.466-3.092,13.141c0,1.133,0.156,2.203,0.465,3.211
	c0.41,1.925,1.803,2.592,4.174,2c2.676-0.721,4.814-1.939,6.412-3.657c1.596-1.719,2.807-3.794,3.633-6.226
	c0.824-2.535,1.623-5.277,2.396-8.219c0.771-2.945,1.467-5.96,2.086-9.045c0.619-3.088,1.133-6.115,1.547-9.082
	c0.408-2.967,0.717-5.75,0.926-8.339c0-0.309,0.051-1.216,0.154-2.717c0.102-1.5,0.256-3.315,0.463-5.444
	c0.205-2.127,0.41-4.41,0.619-6.848c0.205-2.435,0.387-4.743,0.543-6.919c0.152-2.175,0.279-4.09,0.385-5.748
	c0.102-1.655,0.154-2.741,0.154-3.258c-0.209,0.225-0.594,1.181-1.16,2.871c-0.566,1.692-1.211,3.724-1.932,6.098
	c-0.723,2.373-1.443,4.901-2.162,7.583c-0.723,2.683-1.42,5.185-2.088,7.501c-0.672,2.319-1.264,4.269-1.777,5.854
	c-0.516,1.584-0.826,2.432-0.926,2.543c-0.928,0.999-2.113,1.808-3.557,2.436c-1.443,0.624-2.885,0.915-4.326,0.87
	c-1.445-0.044-2.758-0.408-3.941-1.091c-1.186-0.683-1.986-1.884-2.395-3.604l-2.938-11.368c-0.209-0.293-0.309-0.646-0.309-1.058
	c0-0.411-0.104-0.867-0.311-1.368l0.154,0.143c-0.412-2.957-0.463-5.916-0.154-8.876c0.311-2.959,0.875-6.635,1.701-11.024
	c0.719-2.733,1.441-5.389,2.162-7.97c0.721-2.578,1.494-5.238,2.318-7.981c0.516-1.687,1.287-3.085,2.32-4.195
	c1.029-1.107,2.473-1.889,4.328-2.338c2.676-0.514,5.355-1.051,8.035-1.618c2.678-0.563,5.355-0.535,8.037,0.084
	c0.41,0.072,0.771,0.173,1.082,0.304c0.309,0.131,0.719,0.281,1.234,0.447c-0.617,3.037-2.215,4.292-4.789,3.766
	c-1.754-0.381-3.145-0.198-4.174,0.548c-1.029,0.75-1.803,1.865-2.316,3.346c-1.238,3.084-2.424,6.188-3.557,9.312
	c-1.135,3.127-1.854,6.351-2.164,9.669c-0.207,2.594-0.412,5.159-0.617,7.698c-0.209,2.542-0.309,5.047-0.309,7.52
	c-0.104,1.657,0,3.272,0.309,4.844c0.309,1.576,0.564,3.23,0.773,4.965l0.928-0.071c0.203-0.325,0.436-0.651,0.693-0.98
	c0.258-0.329,0.488-0.706,0.695-1.135c1.338-4.634,2.68-9.192,4.02-13.675c1.338-4.48,2.574-9.03,3.709-13.652
	c0.516-1.584,0.719-3.196,0.619-4.838c-0.104-1.639-0.055-3.292,0.154-4.957c0.1-1.964,0.41-3.2,0.926-3.703
	c0.516-0.503,1.752-1.085,3.711-1.75C371.535,67.518,375.244,67.544,379.057,68.799z M338.1,104.375
	c-0.104-0.094-0.156-0.244-0.156-0.452L338.1,104.375z M90.854,150.015c0.615,0.437,0.78,0.82,0.495,1.148
	c-0.287,0.33-0.67,0.667-1.153,1.011c-1.187,0.793-2.505,1.367-3.955,1.718c-1.449,0.352-2.833,0.71-4.152,1.074
	c-0.088,0.007-0.153,0.034-0.197,0.082c-0.264,1.03-0.54,2.051-0.824,3.061c-0.286,1.011-0.583,2.033-0.89,3.066
	c-0.22,0.808-0.451,1.738-0.692,2.789c-0.242,1.051-0.461,2.078-0.66,3.082c-0.197,1.003-0.34,1.927-0.428,2.768
	c-0.088,0.841-0.066,1.433,0.065,1.774c0.133,0.298,0.154,0.626,0.066,0.983c-0.132,0.89-0.275,1.8-0.428,2.735
	c-0.154,0.934-0.275,1.844-0.363,2.729c-0.043,1.585,0.352,3.226,1.187,4.918c0.264-0.283,0.504-0.533,0.724-0.747
	c0.22-0.215,0.396-0.436,0.528-0.666c0.966-0.952,1.921-1.849,2.867-2.69c0.944-0.84,1.681-1.764,2.208-2.771
	c-0.131,0.713-0.286,1.405-0.46,2.078c-0.176,0.629-0.396,1.272-0.66,1.928c-0.264,0.658-0.615,1.289-1.054,1.893
	c-0.352,0.686-0.791,1.379-1.318,2.078c-0.527,0.699-1.11,1.304-1.746,1.813c-0.638,0.51-1.296,0.878-1.977,1.107
	c-0.682,0.227-1.33,0.166-1.944-0.182c-0.132-0.079-0.263-0.276-0.396-0.596c-0.131-0.319-0.275-0.67-0.429-1.055
	c-0.154-0.383-0.296-0.757-0.428-1.12c-0.131-0.363-0.22-0.61-0.263-0.738c-0.396-0.892-0.692-1.803-0.89-2.733
	c-0.198-0.929-0.23-1.927-0.099-2.991c0.087-1.017,0.121-2.063,0.099-3.138s-0.033-2.116-0.033-3.128
	c0.043-1.409,0.099-3.181,0.165-5.318c0.066-2.136,0.251-4.313,0.56-6.534c0.087-0.446,0.153-0.935,0.198-1.465
	c0.043-0.531,0.109-1.106,0.198-1.729l-0.264,0.021c-1.143,0.087-2.273,0.195-3.394,0.324c-1.12,0.13-2.229,0.192-3.329,0.188
	c-0.174,0.013-0.405-0.012-0.691-0.08c-0.285-0.065-0.549-0.166-0.792-0.302c-0.241-0.134-0.405-0.298-0.494-0.489
	c-0.087-0.192,0-0.406,0.264-0.647c0.176-0.188,0.451-0.331,0.824-0.424c0.375-0.095,0.78-0.159,1.22-0.192
	c0.439-0.034,0.856-0.065,1.252-0.095c0.395-0.03,0.703-0.075,0.923-0.137c0.747-0.231,1.461-0.462,2.142-0.689
	c0.682-0.228,1.373-0.434,2.076-0.619c0.264-0.107,0.438-0.166,0.527-0.172c0.087-1.412,0.187-2.683,0.297-3.812
	c0.109-1.13,0.208-1.829,0.297-2.099c0.087-0.358,0.108-0.645,0.065-0.862c-0.263-1.43,0.043-2.814,0.923-4.156
	c0.087-0.182,0.175-0.497,0.263-0.942c0.087-0.358,0.132-0.691,0.132-0.999c0-0.308,0.043-0.618,0.132-0.933
	c0.174-0.629,0.363-1.269,0.56-1.922c0.198-0.651,0.405-1.292,0.626-1.925c0.878-0.287,1.724-0.417,2.537-0.391
	c0.813,0.027,1.615,0.119,2.405,0.278c0.396,0.058,0.693,0.233,0.89,0.525c0.198,0.293,0.319,0.635,0.363,1.027
	c0.043,0.392,0.043,0.788,0,1.186c-0.308,2.089-0.604,4.155-0.89,6.198c-0.286,2.042-0.56,4.106-0.824,6.191l-0.131,1.065
	c1.01-0.165,2.02-0.385,3.031-0.66c1.01-0.275,2.021-0.494,3.031-0.659c0-0.307,0.089-0.501,0.264-0.581
	c0.175-0.079,0.384-0.095,0.626-0.048c0.241,0.048,0.472,0.141,0.692,0.277C90.547,149.831,90.723,149.937,90.854,150.015z
	 M96.522,177.592c0.175,0.163,0.351,0.237,0.528,0.224c0.306-0.023,0.603-0.123,0.889-0.299c0.285-0.175,0.594-0.397,0.923-0.663
	s0.702-0.559,1.12-0.876c0.418-0.317,0.934-0.631,1.55-0.941c-0.088,0.49-0.242,1.03-0.461,1.617
	c-0.22,0.587-0.704,1.196-1.45,1.823c-0.704,0.67-1.286,1.119-1.746,1.352c-0.463,0.233-1.066,0.246-1.813,0.039
	c-0.089,0.007-0.155-0.01-0.198-0.05c-0.132,0.494-0.265,0.974-0.396,1.446c-0.132,0.472-0.308,0.958-0.527,1.458
	c-0.352,0.906-0.814,1.753-1.384,2.544c-0.571,0.79-1.45,1.252-2.636,1.387c-1.977,0.193-3.845-0.278-5.602-1.419
	c-0.571-0.352-1-0.813-1.285-1.385c-0.286-0.571-0.451-1.185-0.494-1.84v-6.261c0-0.219-0.012-0.416-0.033-0.59
	c-0.022-0.173-0.033-0.37-0.033-0.591l0.396-4.248c0.351-2.046,0.824-4.038,1.417-5.973c0.594-1.933,1.307-3.856,2.142-5.765
	l0.594-1.034c0.571-1.23,1.582-1.724,3.032-1.483c0.791,0.161,1.592,0.297,2.405,0.41c0.812,0.114,1.636,0.228,2.472,0.339
	c0,0.088,0.01,0.154,0.033,0.194c0.021,0.043,0.032,0.108,0.032,0.196c-0.527,0.393-1.065,0.763-1.614,1.111
	c-0.55,0.35-1.044,0.762-1.483,1.234c-0.396,0.469-0.736,0.99-1.021,1.56c-0.286,0.572-0.384,1.183-0.296,1.835
	c1.01,0.143,2.021,0.253,3.032,0.33c1.01,0.077,2.064,0.162,3.163,0.253l1.252,5.243c0,0.44-0.066,0.84-0.197,1.201
	c-0.131,0.363-0.287,0.746-0.462,1.155c-0.175,0.409-0.362,0.875-0.561,1.394c-0.196,0.52-0.384,1.139-0.56,1.855L96.522,177.592z
	 M91.382,183.256c0.439-1.044,0.834-2.107,1.186-3.188c0.351-1.082,0.702-2.163,1.055-3.244l-0.198-0.842
	c-0.22-0.729-0.362-1.806-0.428-3.23c-0.065-1.422,0.01-2.91,0.23-4.465c-0.484-0.578-0.88-1.196-1.187-1.854
	c-0.307-0.657-0.461-1.425-0.461-2.305c-0.22,0.017-0.396,0.009-0.527-0.026c-0.089,0.139-0.177,0.267-0.264,0.383
	c-0.088,0.117-0.155,0.243-0.198,0.377c-0.791,2.433-1.384,4.895-1.78,7.385c-0.395,2.491-0.637,5.036-0.724,7.634
	c-0.044,0.62-0.023,1.254,0.065,1.907c0.088,0.652,0.197,1.303,0.33,1.951c0.043,0.217,0.154,0.449,0.329,0.7
	c0.176,0.25,0.373,0.411,0.594,0.481c0.174,0.075,0.384,0.037,0.625-0.113c0.241-0.15,0.451-0.298,0.627-0.443
	C91.007,184.075,91.25,183.706,91.382,183.256z M88.811,205.05c-0.183,2.838-0.297,5.625-0.342,8.362
	c-0.047,2.738-0.115,5.523-0.204,8.352c-0.184,2.387-0.39,4.725-0.616,7.02c-0.229,2.294-0.205,4.572,0.068,6.828
	c0.09,1.179,0.136,2.541,0.136,4.089c0,1.552-0.068,3.149-0.205,4.801c-0.136,1.65-0.273,3.254-0.41,4.815
	c-0.137,1.559-0.252,2.935-0.342,4.127l-1.23,7.474c-0.546,4.414-1.55,8.705-3.006,12.873c-1.46,4.164-3.51,8.17-6.151,12.017
	c-1.64,2.493-3.827,4.393-6.56,5.693c-2.279,1.084-4.579,2.011-6.903,2.781c-2.323,0.768-4.671,1.333-7.039,1.698
	c-1.459,0.199-2.484,0.119-3.075-0.246c-0.594-0.365-1.025-1.22-1.298-2.564c-0.913-4.215-1.252-8.337-1.026-12.361
	c0.227-4.027,1.617-8.05,4.169-12.073c1.549-2.486,3.53-4.687,5.946-6.601c2.413-1.917,4.941-3.203,7.585-3.86
	c0.09,0.995-0.115,1.809-0.615,2.439c-0.502,0.631-1.072,1.195-1.708,1.702c-3.464,2.906-5.878,6.166-7.244,9.777
	c-1.367,3.611-2.279,7.486-2.733,11.622c0,1.001,0.136,1.947,0.409,2.839c0.363,1.702,1.594,2.29,3.69,1.77
	c2.369-0.637,4.259-1.715,5.672-3.234c1.412-1.521,2.482-3.355,3.212-5.507c0.728-2.243,1.435-4.666,2.119-7.27
	c0.683-2.604,1.298-5.271,1.845-7.999c0.546-2.73,1.001-5.406,1.367-8.032c0.362-2.623,0.635-5.084,0.819-7.373
	c0-0.274,0.045-1.076,0.137-2.404c0.089-1.326,0.227-2.932,0.41-4.813c0.182-1.883,0.364-3.9,0.547-6.057
	c0.182-2.153,0.342-4.194,0.479-6.118s0.25-3.617,0.341-5.082c0.091-1.465,0.137-2.426,0.137-2.882
	c-0.184,0.198-0.526,1.044-1.024,2.539c-0.502,1.496-1.073,3.293-1.709,5.392c-0.639,2.099-1.277,4.334-1.914,6.706
	c-0.638,2.372-1.253,4.585-1.845,6.633c-0.594,2.05-1.118,3.775-1.572,5.178c-0.457,1.401-0.73,2.149-0.82,2.248
	c-0.819,0.884-1.869,1.599-3.144,2.153c-1.277,0.553-2.552,0.811-3.828,0.77c-1.277-0.038-2.438-0.36-3.484-0.965
	c-1.049-0.603-1.756-1.665-2.119-3.187l-2.597-10.054c-0.184-0.26-0.273-0.57-0.273-0.935c0-0.363-0.092-0.767-0.274-1.211
	l0.137,0.126c-0.365-2.613-0.41-5.23-0.137-7.849c0.274-2.616,0.773-5.867,1.504-9.75c0.637-2.416,1.275-4.765,1.914-7.048
	c0.636-2.28,1.319-4.632,2.05-7.06c0.455-1.489,1.139-2.728,2.05-3.709c0.91-0.978,2.188-1.67,3.827-2.067
	c2.369-0.454,4.737-0.929,7.108-1.431c2.369-0.498,4.737-0.474,7.107,0.075c0.363,0.063,0.684,0.152,0.956,0.268
	c0.273,0.116,0.637,0.249,1.094,0.395c-0.548,2.687-1.961,3.796-4.238,3.332c-1.55-0.339-2.78-0.177-3.69,0.484
	c-0.911,0.663-1.595,1.65-2.05,2.959c-1.093,2.726-2.142,5.472-3.143,8.234c-1.004,2.765-1.641,5.617-1.914,8.552
	c-0.184,2.293-0.365,4.561-0.547,6.808c-0.183,2.248-0.272,4.463-0.272,6.649c-0.092,1.466,0,2.894,0.272,4.284
	c0.273,1.393,0.5,2.856,0.684,4.391l0.82-0.063c0.182-0.285,0.387-0.575,0.616-0.867c0.226-0.289,0.431-0.622,0.615-1.003
	c1.183-4.098,2.368-8.129,3.553-12.093c1.183-3.961,2.277-7.985,3.28-12.073c0.455-1.4,0.636-2.826,0.547-4.277
	c-0.092-1.45-0.048-2.912,0.136-4.386c0.089-1.736,0.363-2.829,0.819-3.274c0.456-0.444,1.549-0.958,3.28-1.548
	C82.159,203.915,85.438,203.938,88.811,205.05z M52.59,236.51c-0.091-0.083-0.137-0.216-0.137-0.4L52.59,236.51z M129.541,192.652
	c2.095,0.479,2.915,1.555,2.46,3.23c-0.183,0.471-0.341,0.914-0.478,1.334c-0.136,0.421-0.342,0.869-0.616,1.346
	c-2.005,3.617-4.328,7.118-6.971,10.508c-2.643,3.393-5.604,6.671-8.884,9.835c-1.186,1.185-2.347,2.412-3.485,3.684
	c-1.141,1.271-2.119,2.576-2.938,3.912c-0.547,0.954-0.889,1.961-1.025,3.018c-0.136,1.061-0.205,2.089-0.205,3.091
	c0,1.551,0.591,3.19,1.776,4.922c1.184,1.733,2.597,3.037,4.237,3.915c0.728-0.603,1.708-1.383,2.939-2.342
	c1.229-0.959,2.208-1.786,2.938-2.479c2.915-2.864,5.831-5.434,8.748-7.705c2.915-2.273,5.101-4.236,6.561-5.899
	c-0.184,1.018-0.411,2.036-0.684,3.059c-0.184,0.835-0.433,1.766-0.752,2.791c-0.32,1.029-0.707,1.923-1.162,2.687
	c-1.458,2.48-3.235,4.644-5.331,6.488c-2.097,1.846-4.466,3.824-7.108,5.939c-1.55,1.211-3.122,1.878-4.715,2
	c-1.596,0.121-3.44-0.012-5.535-0.398c-3.099-0.586-5.925-1.872-8.475-3.865c-2.552-1.994-4.374-4.314-5.467-6.965
	c-0.184-0.35-0.297-0.729-0.342-1.137c-0.047-0.405-0.16-0.921-0.341-1.546c-0.093-0.903-0.184-1.808-0.274-2.713
	c-0.092-0.901-0.115-1.857-0.069-2.864c0.046-1.005,0.159-2.152,0.343-3.443c0.181-1.288,0.546-2.82,1.093-4.593
	c0.728-2.878,1.729-5.736,3.007-8.567c1.275-2.831,2.505-5.658,3.69-8.481c0.455-1.035,0.978-2.078,1.572-3.127
	c0.591-1.046,1.207-2.095,1.845-3.147c0.363-0.574,0.774-1.129,1.231-1.665c0.454-0.535,0.909-1.047,1.366-1.54
	c1.73-1.954,4.146-2.776,7.244-2.465c0.729,0.127,1.504,0.159,2.324,0.097c0.819-0.063,1.64-0.033,2.46,0.085
	c1.094,0.1,1.959,0.308,2.597,0.623C125.121,191.396,127.263,192.189,129.541,192.652z M111.226,212.088
	c6.468-6.959,10.569-12.604,12.3-16.927c-1.823-0.408-2.986-0.569-3.484-0.487c-0.503,0.086-1.209,0.664-2.119,1.734
	c-2.006,2.249-3.602,4.604-4.784,7.062c-1.185,2.46-2.05,4.985-2.596,7.578c0,0.184,0.068,0.36,0.204,0.53
	C110.884,211.753,111.042,211.921,111.226,212.088z M167.264,167.229c1.274,0.906,1.617,1.701,1.025,2.38
	c-0.594,0.685-1.391,1.383-2.393,2.097c-2.46,1.646-5.193,2.834-8.2,3.563c-3.007,0.731-5.878,1.474-8.612,2.228
	c-0.183,0.014-0.32,0.072-0.41,0.168c-0.546,2.138-1.117,4.253-1.708,6.349c-0.594,2.096-1.208,4.216-1.845,6.358
	c-0.457,1.675-0.935,3.604-1.435,5.783c-0.501,2.179-0.958,4.31-1.367,6.39c-0.411,2.081-0.707,3.997-0.888,5.74
	c-0.184,1.746-0.137,2.974,0.137,3.681c0.273,0.617,0.317,1.298,0.136,2.039c-0.273,1.845-0.57,3.733-0.888,5.673
	c-0.32,1.938-0.57,3.825-0.752,5.659c-0.091,3.288,0.729,6.69,2.461,10.201c0.546-0.588,1.045-1.104,1.503-1.55
	c0.455-0.445,0.82-0.904,1.093-1.382c2.004-1.974,3.985-3.832,5.946-5.577c1.958-1.743,3.485-3.658,4.579-5.747
	c-0.274,1.478-0.594,2.914-0.957,4.31c-0.365,1.305-0.821,2.638-1.367,3.999c-0.547,1.363-1.277,2.673-2.187,3.925
	c-0.73,1.422-1.641,2.858-2.734,4.31c-1.093,1.448-2.302,2.703-3.622,3.76c-1.323,1.058-2.689,1.822-4.101,2.294
	c-1.414,0.472-2.758,0.349-4.033-0.375c-0.273-0.164-0.546-0.574-0.82-1.237c-0.273-0.662-0.569-1.392-0.889-2.187
	c-0.319-0.796-0.615-1.57-0.888-2.323c-0.273-0.755-0.457-1.265-0.546-1.532c-0.821-1.85-1.436-3.739-1.846-5.667
	c-0.41-1.928-0.478-3.998-0.205-6.204c0.181-2.108,0.25-4.277,0.205-6.507c-0.047-2.229-0.068-4.392-0.068-6.488
	c0.089-2.924,0.205-6.598,0.341-11.029c0.137-4.429,0.523-8.944,1.162-13.551c0.182-0.923,0.319-1.938,0.411-3.038
	c0.09-1.1,0.226-2.293,0.41-3.585l-0.547,0.042c-2.37,0.181-4.715,0.407-7.038,0.672c-2.324,0.27-4.624,0.399-6.903,0.39
	c-0.363,0.028-0.841-0.025-1.435-0.165c-0.591-0.136-1.138-0.344-1.641-0.626c-0.499-0.28-0.841-0.62-1.025-1.017
	c-0.181-0.395,0-0.841,0.547-1.34c0.365-0.391,0.935-0.686,1.708-0.881c0.775-0.195,1.618-0.329,2.529-0.398
	c0.912-0.069,1.776-0.135,2.597-0.198c0.82-0.062,1.459-0.155,1.914-0.282c1.55-0.48,3.03-0.959,4.442-1.431
	c1.415-0.471,2.847-0.9,4.305-1.284c0.547-0.223,0.911-0.343,1.094-0.357c0.182-2.93,0.387-5.565,0.615-7.906
	c0.227-2.341,0.431-3.792,0.615-4.354c0.181-0.741,0.226-1.336,0.136-1.786c-0.546-2.965,0.09-5.837,1.914-8.621
	c0.181-0.377,0.363-1.028,0.546-1.955c0.182-0.742,0.274-1.432,0.274-2.07c0-0.637,0.089-1.282,0.273-1.935
	c0.362-1.303,0.751-2.631,1.162-3.984c0.41-1.351,0.842-2.683,1.298-3.994c1.822-0.595,3.575-0.865,5.262-0.812
	c1.685,0.056,3.349,0.248,4.988,0.576c0.821,0.122,1.436,0.485,1.846,1.09c0.41,0.608,0.66,1.317,0.752,2.13
	c0.09,0.813,0.09,1.632,0,2.46c-0.639,4.333-1.253,8.616-1.845,12.852c-0.594,4.237-1.162,8.517-1.709,12.841l-0.273,2.208
	c2.095-0.342,4.19-0.798,6.287-1.368c2.095-0.569,4.19-1.024,6.287-1.366c0-0.638,0.183-1.04,0.547-1.204
	c0.363-0.165,0.796-0.198,1.298-0.099c0.5,0.099,0.978,0.291,1.436,0.574C166.625,166.846,166.991,167.068,167.264,167.229z
	 M237.248,199.468c-0.867,2.441-1.781,4.669-2.754,6.686c-0.971,2.018-1.943,3.847-2.916,5.485
	c-0.971,1.638-1.834,3.135-2.588,4.485c-0.758,1.353-1.242,2.579-1.457,3.673c-0.324,2.076-0.461,4.107-0.406,6.104
	c0.055,1.992,0.215,3.974,0.486,5.951c0.268,1.978,0.512,3.983,0.73,6.016c0.213,2.033,0.266,4.082,0.16,6.142
	c-0.109,2.057-0.189,4.628-0.242,7.707c-0.055,3.082-0.242,6.333-0.566,9.759c-0.324,3.424-0.809,6.887-1.457,10.392
	c-0.648,3.502-1.621,6.705-2.914,9.611c-1.297,2.904-2.943,5.324-4.939,7.257c-1.996,1.935-4.506,3.121-7.529,3.568
	c-5.396,0.734-9.387-0.447-11.979-3.54c-2.59-3.098-4.209-7.345-4.857-12.745c-0.648-5.402-0.594-11.504,0.162-18.304
	c0.754-6.805,1.781-13.493,3.076-20.068c1.295-6.576,2.615-12.613,3.965-18.112c1.35-5.496,2.24-9.665,2.674-12.506
	c-0.973,1.911-2.053,4.283-3.24,7.128c-1.188,2.842-2.508,5.668-3.967,8.477c-1.455,2.809-3.102,5.337-4.936,7.581
	c-1.837,2.245-3.886,3.721-6.152,4.436c-3.132,0.991-5.829,0.928-8.095-0.194c-2.267-1.123-4.129-2.762-5.585-4.918
	c-1.457-2.153-2.565-4.634-3.319-7.438c-0.753-2.801-1.186-5.385-1.295-7.753c-0.215-3.327-0.025-6.718,0.567-10.163
	c0.591-3.443,1.158-6.859,1.7-10.248c0.323-1.858,0.7-3.425,1.132-4.7c0.43-1.272,1.053-2.238,1.862-2.895
	c0.809-0.653,1.887-0.979,3.238-0.975c1.348,0.006,3.101,0.305,5.261,0.895c2.049,0.491,3.426,1.195,4.129,2.113
	c0.7,0.919,1.024,2.001,0.972,3.246c-0.056,1.245-0.324,2.615-0.81,4.108c-0.486,1.493-0.785,3.111-0.891,4.844
	c-0.432,3.165-0.756,6.348-0.971,9.547c-0.218,3.2-0.485,6.379-0.81,9.53c-0.217,1.312-0.405,2.622-0.567,3.931
	c-0.162,1.307-0.108,2.381,0.162,3.227c0.269,0.842,0.782,1.315,1.539,1.42c0.753,0.104,2.049-0.456,3.885-1.674
	c0.754-0.488,1.457-1.19,2.104-2.102c0.647-0.913,1.295-1.903,1.943-2.981c0.647-1.074,1.214-2.116,1.7-3.125
	c0.485-1.008,0.943-1.906,1.376-2.695c1.51-2.597,2.912-5.186,4.209-7.768c1.295-2.579,2.533-5.21,3.723-7.893
	c0.973-2.232,1.699-4.501,2.186-6.804c0.486-2.305,1.158-4.514,2.023-6.631c1.078-2.347,2.563-3.891,4.453-4.628
	c1.887-0.736,3.748-0.853,5.586-0.345c1.834,0.508,3.398,1.604,4.695,3.286c1.295,1.683,1.885,3.77,1.781,6.26
	c0,1.188-0.189,2.388-0.568,3.604c-0.379,1.218-0.703,2.428-0.971,3.636c-0.271,1.21-0.434,2.38-0.484,3.517
	c-0.057,1.139,0.186,2.228,0.727,3.265c0.863,1.663,1.889,2.446,3.076,2.355c1.188-0.09,2.43-0.59,3.725-1.498
	s2.643-2.008,4.047-3.304C234.439,201.411,235.844,200.331,237.248,199.468z M223,233.581c0-0.757,0.025-2.378,0.08-4.864
	c0.055-2.488,0.025-5.046-0.08-7.683c-0.107-2.637-0.379-4.936-0.811-6.901c-0.432-1.963-1.188-2.849-2.266-2.661
	c-0.758,0.167-1.514,1.492-2.268,3.979s-1.457,5.267-2.105,8.337c-0.645,3.068-1.242,6.003-1.779,8.795
	c-0.541,2.795-0.865,4.573-0.973,5.336c-0.756,3.189-1.592,7.137-2.51,11.85c-0.916,4.708-1.537,9.479-1.859,14.308
	c-0.324,4.825-0.057,9.367,0.809,13.616c0.861,4.252,2.695,7.511,5.504,9.783c1.943-3.928,3.48-8.145,4.615-12.657
	c1.133-4.513,1.967-9.137,2.51-13.872c0.537-4.735,0.861-9.428,0.971-14.077C222.945,242.219,223,237.791,223,233.581z
	 M264.445,202.578c0.43,0.398,0.863,0.582,1.295,0.549c0.754-0.058,1.482-0.3,2.186-0.732c0.701-0.431,1.457-0.975,2.266-1.63
	c0.811-0.654,1.727-1.371,2.752-2.151s2.293-1.552,3.805-2.315c-0.217,1.205-0.594,2.531-1.131,3.972
	c-0.543,1.445-1.729,2.941-3.563,4.48c-1.727,1.644-3.158,2.75-4.291,3.322s-2.619,0.605-4.453,0.095
	c-0.217,0.017-0.377-0.022-0.484-0.124c-0.324,1.214-0.648,2.396-0.973,3.555c-0.322,1.16-0.756,2.354-1.293,3.581
	c-0.865,2.226-1.998,4.308-3.402,6.249s-3.561,3.076-6.475,3.407c-4.855,0.476-9.445-0.685-13.762-3.486
	c-1.404-0.864-2.455-1.998-3.158-3.402c-0.701-1.401-1.107-2.91-1.213-4.521v-15.381c0-0.539-0.027-1.022-0.08-1.45
	c-0.057-0.427-0.082-0.911-0.082-1.452l0.973-10.436c0.861-5.028,2.023-9.921,3.48-14.674c1.457-4.749,3.211-9.472,5.262-14.161
	l1.457-2.54c1.4-3.02,3.887-4.234,7.447-3.643c1.941,0.393,3.91,0.729,5.91,1.006c1.994,0.281,4.018,0.56,6.07,0.834
	c0,0.217,0.025,0.377,0.082,0.479c0.053,0.105,0.08,0.265,0.08,0.48c-1.297,0.963-2.619,1.874-3.967,2.73
	c-1.35,0.859-2.566,1.87-3.643,3.03c-0.973,1.154-1.809,2.432-2.51,3.833c-0.703,1.404-0.945,2.905-0.729,4.509
	c2.48,0.351,4.963,0.622,7.447,0.808c2.482,0.191,5.072,0.399,7.771,0.623l3.076,12.88c0,1.081-0.162,2.064-0.486,2.951
	c-0.322,0.891-0.703,1.834-1.133,2.839c-0.434,1.005-0.891,2.146-1.377,3.422c-0.484,1.281-0.945,2.8-1.375,4.56L264.445,202.578z
	 M251.818,216.491c1.076-2.563,2.047-5.175,2.912-7.833c0.863-2.655,1.725-5.31,2.59-7.968l-0.482-2.066
	c-0.545-1.792-0.893-4.437-1.055-7.935c-0.162-3.492,0.025-7.15,0.568-10.971c-1.189-1.419-2.162-2.937-2.916-4.554
	c-0.756-1.615-1.133-3.501-1.133-5.661c-0.541,0.041-0.973,0.021-1.295-0.063c-0.219,0.34-0.434,0.656-0.648,0.94
	c-0.217,0.287-0.379,0.596-0.484,0.927c-1.943,5.977-3.4,12.024-4.371,18.143c-0.973,6.119-1.566,12.369-1.781,18.753
	c-0.109,1.521-0.057,3.082,0.162,4.683c0.213,1.602,0.484,3.201,0.807,4.795c0.109,0.534,0.379,1.105,0.813,1.718
	c0.428,0.617,0.916,1.013,1.457,1.187c0.43,0.183,0.941,0.09,1.537-0.279c0.592-0.368,1.105-0.731,1.537-1.089
	C250.898,218.504,251.492,217.597,251.818,216.491z M321.918,205.65c0.646-0.697,1.51-1.654,2.588-2.869
	c1.08-1.217,2.213-2.461,3.4-3.74c1.188-1.276,2.402-2.557,3.645-3.84c1.238-1.28,2.348-2.336,3.318-3.167
	c-0.971,2.666-1.779,4.859-2.43,6.581c-0.646,1.724-1.27,3.229-1.861,4.513c-0.594,1.29-1.16,2.411-1.699,3.366
	c-0.543,0.961-1.133,2.006-1.781,3.131c-1.729,2.294-3.697,3.63-5.91,4.013c-2.211,0.387-4.561,0.294-7.041-0.271
	c-4.209-0.977-6.586-3.71-7.125-8.201c-0.107-1.178-0.242-2.301-0.404-3.37c-0.16-1.063-0.512-2.17-1.053-3.318
	c-0.322,0.565-0.646,1.157-0.969,1.773c-0.324,0.619-0.598,1.261-0.811,1.924c-0.648,1.669-1.297,3.311-1.943,4.924
	c-0.648,1.616-1.242,3.25-1.779,4.911c-0.648,2.316-1.92,4.331-3.807,6.039c-1.889,1.707-4.047,2.922-6.475,3.648
	c-2.43,0.724-4.939,0.941-7.529,0.654c-2.59-0.288-4.912-1.271-6.963-2.948c-2.482-2.081-3.613-4.907-3.398-8.485
	c0.105-2.814,0.242-5.577,0.404-8.289c0.162-2.71,0.35-5.475,0.568-8.299c0.105-0.547,0.16-1.145,0.16-1.792c0-0.649,0-1.35,0-2.106
	l4.047-13.422c0.863-3.085,1.754-6.176,2.672-9.269c0.916-3.091,1.861-6.186,2.834-9.284c0.428-1.433,0.809-2.57,1.133-3.405
	c0.324-0.833,0.729-1.457,1.213-1.873c0.488-0.413,1.107-0.705,1.863-0.87c0.752-0.164,1.889-0.36,3.4-0.583
	c1.295-0.207,2.428-0.32,3.4-0.341c0.971-0.019,1.861,0.02,2.67,0.121c0.811,0.099,1.619,0.28,2.43,0.542
	c0.809,0.262,1.805,0.673,2.994,1.229l-1.457,2.862c-0.217,0.559-0.484,1.064-0.809,1.52c-0.324,0.458-0.543,0.96-0.648,1.506
	c-0.756,4.916-1.781,9.77-3.076,14.562c-1.295,4.794-2.537,9.664-3.723,14.611c-0.434,1.976-0.785,3.947-1.055,5.91
	c-0.27,1.962-0.564,3.875-0.889,5.734c-0.109,0.765-0.219,1.502-0.324,2.21c-0.109,0.712-0.271,1.453-0.486,2.224
	c-1.189,3.326-1.133,6.669,0.162,10.025c1.186-0.738,2.025-1.667,2.51-2.783c0.486-1.114,0.996-2.234,1.539-3.354
	c1.941-4.572,3.83-9.116,5.666-13.627c1.834-4.511,3.725-9.051,5.666-13.625c0.971-2.232,1.914-4.41,2.834-6.531
	c0.914-2.118,1.482-4.429,1.699-6.929c0.105-0.871,0.43-1.786,0.971-2.745c0.541-0.957,1.078-1.889,1.619-2.795
	c0.973,0.034,1.969-0.042,2.996-0.228c1.023-0.186,2.076-0.345,3.156-0.484c1.078-0.135,2.131-0.187,3.156-0.159
	c1.025,0.031,2.131,0.271,3.318,0.719l-2.104,5.503c-0.432,1.221-0.863,2.468-1.295,3.74c-0.434,1.276-0.703,2.51-0.811,3.705
	c-0.322,6.824-0.484,13.636-0.484,20.435c0.105,1.612,0.322,3.244,0.648,4.891c0.324,1.649,0.592,3.329,0.809,5.037l-0.324,1.158
	C321.377,206.123,321.699,205.883,321.918,205.65z M97.58,363.336c1.866-1.659,3.878-3.938,6.036-6.838
	c2.155-2.896,4.006-5.541,5.557-7.939c0.346,3.912,0.045,7.293-0.904,10.149c-0.952,2.854-2.115,5.182-3.494,6.979
	c-2.6,2.709-5.16,3.941-7.68,3.704c-2.522-0.238-5.076-1.269-7.659-3.091c-1.187-0.73-1.905-1.753-2.15-3.074
	c-0.58-2.438-1.037-4.817-1.368-7.141c-0.334-2.32,0.081-4.656,1.245-7.01l3.573-8.647c0.611-1.61,1.077-3.305,1.394-5.073
	c0.316-1.771,0.189-3.779-0.382-6.025c-0.741,0.857-1.389,1.533-1.948,2.029c-0.562,0.5-1.025,1.012-1.39,1.534
	c-3.164,5.567-6.352,11.115-9.563,16.639c-3.214,5.524-5.955,11.358-8.224,17.496c-0.355,0.813-0.733,1.627-1.136,2.443
	c-0.402,0.818-0.83,1.638-1.28,2.459c-2.594,0.397-4.856-0.039-6.791-1.312c-1.935-1.27-2.999-3.098-3.188-5.484
	c-0.159-1.618-0.158-4.004,0.008-7.155c0.167-3.147,0.377-6.327,0.639-9.538c0.235-3.785,0.563-7.77,0.977-11.963
	c0.466-0.437,0.686-0.993,0.659-1.664c-0.026-0.671-0.005-1.348,0.065-2.031c-0.016-0.382-0.015-0.937,0.007-1.662
	c0.019-0.726,0.063-1.427,0.134-2.111c0.068-0.681,0.188-1.323,0.36-1.921c0.167-0.596,0.345-1.002,0.532-1.217
	c0.184-0.213,0.684-0.39,1.5-0.536c0.814-0.141,1.684-0.143,2.609-0.011c0.922,0.136,1.776,0.373,2.565,0.715
	c0.786,0.344,1.244,0.939,1.375,1.793l0.51,5.576c-0.437,1.206-0.554,2.499-0.355,3.872c0.199,1.375,0.229,2.745,0.09,4.108
	c-0.148,1.172-0.321,2.325-0.516,3.455c-0.198,1.13-0.37,2.281-0.517,3.455l0.745,0.491c0.368-0.426,0.741-0.782,1.117-1.067
	c0.374-0.282,0.698-0.683,0.966-1.195c2.081-3.611,4.434-7.039,7.06-10.279c2.626-3.242,5.425-6.335,8.403-9.279
	c1.301-1.308,2.856-2.304,4.666-2.997c1.334-0.442,2.421-0.446,3.261-0.013c0.837,0.432,1.761,1.167,2.769,2.207
	c1.111,1.223,1.813,2.49,2.107,3.804c0.292,1.316,0.278,2.811-0.042,4.485c-0.635,3.542-1.146,7.14-1.532,10.797
	c-0.387,3.659-1.14,7.238-2.257,10.738c-0.441,1.11-0.684,2.318-0.727,3.624C95.357,360.921,96.085,362.161,97.58,363.336z
	 M133.744,350.492c0.399,0.339,0.792,0.486,1.177,0.441c0.671-0.077,1.314-0.318,1.928-0.729c0.61-0.406,1.268-0.916,1.968-1.527
	c0.701-0.609,1.494-1.278,2.384-2.01c0.889-0.728,1.995-1.458,3.321-2.188c-0.153,1.077-0.442,2.268-0.875,3.567
	c-0.433,1.305-1.44,2.674-3.026,4.107c-1.487,1.521-2.726,2.555-3.718,3.102c-0.994,0.55-2.32,0.63-3.978,0.244
	c-0.193,0.021-0.339-0.009-0.438-0.095c-0.247,1.09-0.495,2.152-0.744,3.191c-0.249,1.042-0.593,2.118-1.032,3.228
	c-0.696,2.009-1.636,3.898-2.821,5.673c-1.187,1.774-3.076,2.858-5.669,3.255c-4.325,0.595-8.467-0.275-12.423-2.612
	c-1.284-0.719-2.266-1.689-2.941-2.913c-0.678-1.221-1.092-2.545-1.244-3.973l-0.538-13.667c-0.019-0.478-0.062-0.907-0.123-1.285
	c-0.065-0.377-0.104-0.806-0.124-1.287l0.503-9.307c0.595-4.498,1.461-8.888,2.598-13.163c1.135-4.27,2.538-8.528,4.208-12.768
	l1.214-2.309c1.146-2.732,3.325-3.898,6.529-3.499c1.749,0.282,3.521,0.512,5.317,0.687c1.794,0.179,3.613,0.356,5.456,0.527
	c0.008,0.194,0.036,0.335,0.09,0.424c0.051,0.09,0.081,0.231,0.088,0.422c-1.123,0.902-2.273,1.759-3.449,2.567
	c-1.177,0.811-2.229,1.751-3.15,2.82c-0.828,1.059-1.532,2.224-2.109,3.493c-0.578,1.273-0.744,2.616-0.493,4.031
	c2.229,0.226,4.458,0.378,6.686,0.457c2.225,0.082,4.547,0.176,6.967,0.28l3.201,11.335c0.038,0.96-0.072,1.839-0.33,2.641
	c-0.259,0.8-0.564,1.653-0.914,2.561c-0.352,0.908-0.721,1.938-1.11,3.091c-0.389,1.153-0.748,2.521-1.071,4.097L133.744,350.492z
	 M122.943,363.299c0.873-2.315,1.65-4.67,2.33-7.061c0.678-2.391,1.356-4.78,2.036-7.173l-0.506-1.818
	c-0.547-1.573-0.952-3.913-1.219-7.013c-0.267-3.099-0.228-6.354,0.123-9.77c-1.113-1.219-2.034-2.533-2.765-3.944
	c-0.732-1.407-1.135-3.07-1.21-4.988c-0.483,0.055-0.868,0.052-1.16-0.011c-0.183,0.31-0.364,0.6-0.546,0.857
	c-0.184,0.262-0.318,0.542-0.402,0.842c-1.526,5.379-2.618,10.803-3.272,16.273c-0.654,5.473-0.966,11.046-0.935,16.727
	c-0.043,1.355,0.058,2.738,0.309,4.154c0.249,1.416,0.547,2.826,0.892,4.231c0.114,0.471,0.376,0.968,0.783,1.499
	c0.407,0.532,0.854,0.867,1.345,1.003c0.39,0.146,0.847,0.046,1.365-0.303c0.516-0.35,0.963-0.689,1.336-1.022
	C122.192,365.12,122.692,364.292,122.943,363.299z M176.782,284.107c1.387,0.901,1.782,1.722,1.185,2.464
	c-0.602,0.744-1.415,1.514-2.446,2.306c-2.537,1.835-5.382,3.201-8.536,4.093c-3.153,0.895-6.162,1.796-9.024,2.704
	c-0.194,0.021-0.336,0.088-0.428,0.193c-0.491,2.273-1.005,4.521-1.544,6.752c-0.542,2.231-1.105,4.489-1.691,6.771
	c-0.414,1.782-0.84,3.833-1.28,6.146c-0.439,2.315-0.834,4.576-1.181,6.785c-0.349,2.207-0.583,4.234-0.703,6.077
	c-0.122,1.845-0.022,3.135,0.297,3.867c0.314,0.639,0.391,1.352,0.229,2.141c-0.213,1.953-0.449,3.954-0.705,6.008
	c-0.259,2.053-0.444,4.048-0.561,5.989c0.04,3.463,1.048,7.01,3.028,10.631c0.555-0.64,1.062-1.206,1.527-1.691
	c0.464-0.488,0.831-0.986,1.101-1.502c2.04-2.16,4.061-4.199,6.064-6.117c2.001-1.915,3.539-3.997,4.609-6.241
	c-0.228,1.568-0.507,3.093-0.833,4.577c-0.333,1.389-0.759,2.811-1.282,4.267c-0.521,1.456-1.242,2.865-2.152,4.222
	c-0.714,1.526-1.618,3.078-2.716,4.649c-1.098,1.571-2.325,2.942-3.679,4.108c-1.356,1.169-2.771,2.03-4.246,2.587
	c-1.478,0.554-2.906,0.479-4.286-0.229c-0.296-0.159-0.602-0.581-0.918-1.267c-0.317-0.685-0.662-1.44-1.032-2.265
	c-0.372-0.824-0.716-1.628-1.037-2.408s-0.537-1.313-0.643-1.588c-0.945-1.915-1.674-3.876-2.189-5.89
	c-0.514-2.011-0.672-4.187-0.474-6.521c0.104-2.226,0.087-4.511-0.054-6.857c-0.142-2.342-0.253-4.617-0.34-6.824
	c-0.027-3.081-0.057-6.951-0.096-11.622c-0.039-4.667,0.183-9.437,0.667-14.311c0.155-0.979,0.258-2.053,0.309-3.215
	c0.049-1.163,0.144-2.425,0.285-3.79l-0.577,0.066c-2.502,0.288-4.976,0.625-7.425,1c-2.451,0.381-4.879,0.614-7.293,0.699
	c-0.383,0.045-0.892,0.008-1.526-0.113c-0.632-0.118-1.219-0.315-1.763-0.592c-0.541-0.272-0.917-0.616-1.128-1.025
	c-0.208-0.41-0.034-0.885,0.523-1.434c0.371-0.427,0.962-0.762,1.772-0.999c0.813-0.238,1.7-0.413,2.661-0.523
	c0.963-0.111,1.876-0.217,2.742-0.317c0.866-0.1,1.538-0.225,2.015-0.377c1.621-0.571,3.168-1.136,4.643-1.691
	c1.478-0.555,2.976-1.066,4.505-1.533c0.57-0.256,0.95-0.397,1.143-0.419c0.071-3.092,0.178-5.874,0.324-8.347
	c0.142-2.475,0.299-4.011,0.471-4.606c0.162-0.789,0.184-1.418,0.07-1.887c-0.701-3.099-0.147-6.148,1.668-9.152
	c0.176-0.405,0.342-1.099,0.498-2.082c0.161-0.787,0.231-1.519,0.205-2.191c-0.026-0.669,0.041-1.352,0.209-2.047
	c0.329-1.386,0.686-2.8,1.063-4.24c0.379-1.439,0.78-2.858,1.209-4.258c1.904-0.701,3.749-1.059,5.539-1.073
	c1.785-0.013,3.555,0.12,5.305,0.398c0.873,0.095,1.541,0.451,1.999,1.07c0.459,0.622,0.753,1.357,0.884,2.211
	c0.129,0.852,0.164,1.714,0.103,2.589c-0.497,4.586-0.97,9.121-1.421,13.603c-0.452,4.486-0.877,9.013-1.275,13.587l-0.198,2.335
	c2.204-0.446,4.402-1.014,6.6-1.702c2.194-0.686,4.395-1.253,6.6-1.699c-0.026-0.672,0.15-1.102,0.53-1.289
	c0.377-0.189,0.835-0.242,1.37-0.16c0.534,0.084,1.048,0.266,1.544,0.545C176.09,283.73,176.486,283.95,176.782,284.107z
	 M175.359,354.646c0.912-1.355,1.822-2.787,2.729-4.289c0.906-1.499,1.841-2.957,2.799-4.368c0.959-1.412,1.925-2.655,2.897-3.732
	c0.972-1.073,1.881-1.9,2.729-2.481c-0.61,1.711-1.447,3.757-2.511,6.144c-1.065,2.386-2.161,4.655-3.283,6.809
	c-1.125,2.151-2.162,4.007-3.115,5.562c-0.953,1.555-1.574,2.351-1.863,2.383c-0.674,0.078-1.734,0.128-3.182,0.151
	c-1.45,0.023-2.468-0.077-3.056-0.298c-1.458-0.216-2.503-0.986-3.135-2.313c-0.632-1.32-1.076-2.741-1.327-4.253
	c-0.248-1.319-0.382-2.919-0.407-4.794c-0.027-1.876-0.161-3.473-0.406-4.794c-0.004-0.094,0.005-0.436,0.033-1.017
	c0.025-0.58,0.046-1.234,0.067-1.958c0.019-0.726-0.01-1.444-0.085-2.157c-0.078-0.715-0.172-1.256-0.281-1.631
	c-0.154-1.427-0.249-2.643-0.289-3.65c-0.04-1.007-0.034-2.041,0.022-3.109c0.052-1.065,0.203-2.238,0.441-3.521
	c0.239-1.277,0.563-2.81,0.978-4.593c0.455-0.725,0.81-1.514,1.067-2.361s0.908-1.43,1.959-1.744
	c1.339-0.346,2.705-0.649,4.096-0.905c1.389-0.258,2.831,0.106,4.318,1.089c-1.257,2.457-1.858,4.962-1.806,7.507
	c0.05,2.548,0.176,5.109,0.376,7.69c0.143,1.234,0.181,2.771,0.109,4.608c-0.073,1.842-0.143,3.752-0.209,5.733
	c-0.066,1.983-0.089,3.89-0.064,5.717C174.983,351.897,175.116,353.424,175.359,354.646z M174.861,308.894
	c-1.999,0.81-3.664,0.857-4.997,0.145c-1.332-0.713-2.136-2.111-2.412-4.201c-0.641-3.973-0.481-7.915,0.477-11.831
	c0.955-3.916,2.132-7.784,3.527-11.608c0.174-0.501,0.588-1.029,1.243-1.588c0.653-0.556,1.269-0.917,1.841-1.08
	c1.146-0.325,2.187-0.253,3.125,0.218c0.935,0.471,1.712,1.175,2.33,2.116c0.617,0.94,1.045,2.023,1.287,3.246
	c0.241,1.226,0.241,2.429-0.002,3.613c-0.974,2.33-1.846,4.67-2.623,7.024c-0.777,2.353-1.555,4.683-2.334,6.987
	c-0.441,1.113-0.733,2.253-0.879,3.426C175.297,306.533,175.104,307.711,174.861,308.894z M202.199,362.688
	c0.355-0.412,0.953-1.178,1.795-2.294c0.84-1.121,1.678-2.284,2.516-3.495c0.836-1.21,1.604-2.364,2.307-3.468
	c0.701-1.101,1.139-1.804,1.316-2.104c1.779-2.061,3.57-4.448,5.373-7.163c1.799-2.715,3.82-5.176,6.063-7.383
	c-1.025,2.345-1.836,4.273-2.428,5.779c-0.592,1.509-1.166,2.875-1.723,4.098c-0.559,1.227-1.139,2.452-1.74,3.682
	c-0.604,1.232-1.428,2.741-2.475,4.533c-1.705,4.002-3.545,6.93-5.52,8.785c-1.975,1.85-3.957,2.938-5.945,3.261
	c-1.992,0.321-3.887,0.054-5.689-0.806s-3.426-1.9-4.872-3.128l-5.641-4.918l-2.97-8.011c-0.298-5.258-0.273-10.481,0.081-15.676
	c0.355-5.193,1.359-10.392,3.017-15.595c0.654-2.304,1.613-4.55,2.877-6.738c1.262-2.186,2.502-4.418,3.716-6.694
	c0.17-0.391,0.481-0.774,0.933-1.152c0.45-0.375,0.86-0.586,1.231-0.63c3.701-0.519,7.33-0.636,10.879-0.351
	c3.549,0.286,7.105,0.734,10.668,1.342c0.189,0.073,0.357,0.194,0.502,0.362c0.148,0.17,0.316,0.336,0.51,0.499
	c-2.039,2.649-3.324,5.42-3.863,8.313c-0.537,2.894-1.121,5.815-1.748,8.764c-0.234,1.142-0.539,2.291-0.912,3.447
	c-0.373,1.159-0.727,2.267-1.055,3.325c-1.781-0.257-3.016-0.856-3.703-1.801c-0.691-0.94-0.98-2.393-0.869-4.354
	c0.119-1.687,0.238-3.392,0.355-5.125c0.117-1.729,0.234-3.483,0.352-5.261c0.156-0.762,0.219-1.534,0.189-2.32
	c-0.031-0.783-0.027-1.83,0.014-3.135c-1.002,0.582-1.891,1.078-2.664,1.491c-0.775,0.416-1.34,0.875-1.691,1.379
	c-0.621,0.814-1.168,1.714-1.641,2.697c-0.473,0.984-0.781,1.994-0.928,3.03c-0.539,2.847-1.031,5.688-1.479,8.525
	c-0.447,2.836-0.801,5.711-1.057,8.616c-0.184,2.437-0.184,4.803,0,7.102c0.182,2.299,0.184,4.668,0.002,7.1
	c-0.316,3.845,0.369,7.108,2.061,9.789c0.502,0.964,1.074,1.871,1.715,2.727C200.695,360.588,201.408,361.572,202.199,362.688z
	 M254.619,298.965c2.238,0.418,3.15,1.515,2.738,3.297c-0.176,0.504-0.326,0.977-0.451,1.427c-0.129,0.446-0.324,0.928-0.596,1.439
	c-1.975,3.891-4.287,7.673-6.945,11.352c-2.658,3.68-5.656,7.253-8.998,10.721c-1.207,1.297-2.385,2.638-3.539,4.022
	c-1.152,1.385-2.135,2.798-2.947,4.24c-0.541,1.027-0.859,2.102-0.961,3.218c-0.1,1.122-0.129,2.208-0.088,3.263
	c0.064,1.632,0.758,3.333,2.084,5.106s2.877,3.089,4.648,3.942c0.746-0.665,1.752-1.524,3.016-2.589
	c1.262-1.06,2.264-1.969,3.01-2.731c2.969-3.135,5.945-5.961,8.941-8.473c2.992-2.514,5.227-4.674,6.701-6.481
	c-0.152,1.076-0.35,2.158-0.596,3.247c-0.16,0.885-0.387,1.875-0.68,2.967c-0.297,1.096-0.67,2.055-1.119,2.876
	c-1.441,2.673-3.234,5.023-5.375,7.053c-2.145,2.03-4.568,4.21-7.279,6.547c-1.594,1.34-3.229,2.106-4.91,2.301
	c-1.686,0.195-3.643,0.132-5.877-0.188c-3.307-0.485-6.352-1.724-9.133-3.714c-2.785-1.992-4.811-4.358-6.076-7.102
	c-0.211-0.36-0.346-0.755-0.41-1.182c-0.066-0.426-0.209-0.963-0.428-1.613c-0.133-0.945-0.268-1.895-0.4-2.845
	c-0.137-0.944-0.199-1.948-0.191-3.012c0.006-1.059,0.078-2.271,0.219-3.638c0.139-1.365,0.461-2.992,0.967-4.88
	c0.652-3.062,1.594-6.109,2.828-9.142c1.232-3.033,2.418-6.059,3.557-9.08c0.438-1.111,0.949-2.229,1.535-3.358
	c0.582-1.125,1.189-2.255,1.822-3.388c0.359-0.621,0.771-1.222,1.234-1.805c0.459-0.582,0.918-1.141,1.383-1.677
	c1.75-2.129,4.273-3.095,7.566-2.897c0.777,0.104,1.598,0.105,2.463,0.006c0.867-0.101,1.736-0.104,2.609-0.014
	c1.162,0.06,2.086,0.243,2.777,0.548C249.885,297.827,252.186,298.572,254.619,298.965z M236.033,320.187
	c6.561-7.596,10.666-13.706,12.322-18.331c-1.949-0.353-3.186-0.474-3.711-0.366c-0.527,0.11-1.252,0.747-2.17,1.913
	c-2.031,2.452-3.623,4.994-4.773,7.633c-1.152,2.638-1.963,5.333-2.436,8.083c0.008,0.194,0.086,0.378,0.24,0.55
	C235.656,319.847,235.832,320.017,236.033,320.187z M322.178,236.833c1.752,0.373,2.814,0.974,3.188,1.798
	c0.367,0.825,0.152,2.104-0.648,3.832c-1.785,3.771-3.57,7.47-5.359,11.096c-1.793,3.629-3.531,7.322-5.217,11.078
	c-1.422,3.151-2.797,6.299-4.123,9.437c-1.324,3.142-2.453,6.353-3.387,9.639c-1.262,4.771-1.748,9.644-1.453,14.62
	c0.15,1.426-0.008,2.915-0.477,4.461c-0.473,1.549-0.869,3.112-1.191,4.69c-0.162,0.885-0.391,1.756-0.695,2.609
	c-0.305,0.854-0.346,1.654-0.123,2.398c0.572,2.246,0.658,4.476,0.266,6.688c-0.398,2.215-0.648,4.437-0.754,6.664l0.006,0.144
	c0.293,2.566,0.639,5.152,1.031,7.757s0.791,5.328,1.193,8.17c0.463-0.437,0.883-0.8,1.26-1.084
	c0.373-0.282,0.701-0.588,0.979-0.908c1.906-3.108,3.826-5.882,5.762-8.323c1.932-2.438,4.488-4.948,7.672-7.533
	c-0.943,2.999-1.859,5.587-2.738,7.76c-0.881,2.172-1.721,4.101-2.523,5.782c-0.805,1.682-1.639,3.248-2.496,4.694
	c-0.863,1.449-1.744,2.994-2.645,4.641c-0.809,1.538-1.668,3.082-2.572,4.632s-1.813,3.05-2.721,4.505
	c-0.186,0.213-0.441,0.461-0.77,0.739s-0.684,0.44-1.068,0.485c-2.014,0.328-4.01,0.63-5.979,0.907
	c-1.971,0.274-3.98,0.145-6.029-0.388c-0.84-1.639-1.58-3.287-2.225-4.946c-0.543-1.48-1.088-3.055-1.635-4.725
	c-0.553-1.67-0.906-3.313-1.063-4.935c-0.035-0.864-0.068-1.726-0.104-2.59c-0.035-0.863-0.119-1.721-0.248-2.573
	c-0.029-0.767-0.08-1.457-0.152-2.077c-0.076-0.615-0.174-1.303-0.299-2.061c-0.195,0.021-0.342,0.016-0.438-0.023
	c-0.1-0.033-0.244-0.042-0.434-0.02l-1.359,2.322l-6.342,15.618c-1.148,2.734-2.961,4.58-5.434,5.539
	c-2.191,0.832-4.209,1.16-6.047,0.988c-1.846-0.173-3.438-0.76-4.781-1.761s-2.338-2.331-2.982-3.989
	c-0.646-1.661-0.869-3.608-0.666-5.849c0.791-6.933,2.117-13.659,3.986-20.186c1.867-6.525,4.707-12.9,8.523-19.12
	c1.547-2.394,3.35-3.879,5.404-4.455c2.055-0.571,4.191-0.892,6.412-0.955c1.639-0.092,3.305-0.095,5-0.001
	c1.691,0.094,3.508,0.174,5.447,0.239c0.354-0.713,0.498-1.404,0.424-2.071c-0.076-0.665,0.111-1.408,0.563-2.232
	c0.178-0.404,0.354-0.812,0.531-1.219c0.178-0.403,0.168-0.691-0.033-0.862c-0.834-1.541-1.137-3.143-0.912-4.808
	c0.223-1.664,0.35-3.365,0.377-5.103c-0.682-0.113-1.072-0.188-1.168-0.226c-0.1-0.036-0.49-0.11-1.168-0.227l-0.047-1.15
	c0.162-0.788,0.238-1.375,0.223-1.76c-0.506-5.434-0.041-10.762,1.398-15.986c1.436-5.223,2.973-10.386,4.607-15.487
	c0.861-2.604,2.074-4.937,3.637-6.996c1.563-2.059,3.27-4.062,5.127-6.01c0.559-0.546,1.285-1.063,2.186-1.554
	c0.898-0.486,1.732-0.729,2.508-0.723C313.438,235.771,317.701,236.098,322.178,236.833z M285.205,313.787
	c0.441-1.11,0.709-2.249,0.809-3.417c0.098-1.167,0.311-2.492,0.639-3.976c-2.381,0.853-4.395,1.906-6.033,3.154
	c-1.645,1.25-2.863,2.787-3.66,4.612c-1.52,3.163-2.965,6.316-4.34,9.46c-1.375,3.146-2.379,6.442-3.016,9.886
	c-0.154,0.981-0.432,1.928-0.83,2.843c-0.398,0.912-0.678,1.812-0.834,2.696c-0.408,1.976-0.813,3.974-1.215,5.993
	c-0.404,2.021-0.367,4.161,0.107,6.419c0.457-0.63,0.871-1.163,1.244-1.59c0.367-0.427,0.639-0.891,0.813-1.395
	c2.768-5.811,5.51-11.594,8.23-17.351S282.535,319.586,285.205,313.787z M291.639,326.196c-0.418-0.723-0.773-1.212-1.074-1.467
	c-0.004-0.095-0.1-0.083-0.287,0.033c-0.191,0.117-0.377,0.285-0.563,0.498c0.199,0.172,0.4,0.387,0.607,0.652
	c0.203,0.266,0.404,0.531,0.611,0.797L291.639,326.196z M291.643,318.97c-0.008-0.19-0.113-0.372-0.313-0.543l-0.289,0.034
	c-0.096,0.011-0.141,0.065-0.137,0.159c0.004,0.097,0.029,0.192,0.082,0.279c0.053,0.093,0.082,0.232,0.09,0.424L291.643,318.97z
	 M293.121,282.96c0.189-0.117,0.305-0.228,0.35-0.33c0.045-0.1,0.158-0.257,0.344-0.473l-0.742-0.491l-0.545,0.929l0.301,0.255
	C292.926,282.935,293.025,282.971,293.121,282.96z M294.943,321.768c0.373-0.234,0.609-0.36,0.707-0.371l-0.453-0.526l-0.146,0.017
	c-0.098,0.012-0.141,0.066-0.137,0.16L294.943,321.768z M317.779,242.975c0.088-0.202,0.051-0.534-0.111-0.998
	c-0.164-0.462-0.344-0.73-0.539-0.806c-0.391-0.05-0.822-0.025-1.301,0.077c-0.482,0.105-0.811,0.264-0.996,0.478
	c-0.729,1.145-1.506,2.269-2.33,3.376c-0.828,1.106-1.408,2.308-1.744,3.598c-0.93,3.383-1.74,6.753-2.428,10.107
	c-0.689,3.354-1.4,6.761-2.133,10.216c0.004,0.097,0.156,0.271,0.455,0.526l0.564-0.355c1.373-1.987,2.521-4.07,3.451-6.251
	c0.928-2.176,1.758-4.394,2.492-6.645c0.73-2.253,1.439-4.501,2.125-6.75C315.971,247.302,316.799,245.11,317.779,242.975z
	 M325.723,330.496c1.945,0.354,3.895,0.757,5.846,1.205c1.949,0.45,3.5,1.763,4.648,3.944c0.42,0.915,0.672,1.776,0.752,2.584
	c0.08,0.813-0.248,1.644-0.986,2.499c-0.277,0.321-0.482,0.659-0.613,1.01c-0.131,0.352-0.285,0.73-0.461,1.137
	c-0.465,0.535-0.854,1.085-1.168,1.651c-0.316,0.566-0.709,1.022-1.18,1.366c-1.781,1.362-3.32,2.188-4.611,2.483
	c-1.293,0.294-2.434,0.208-3.416-0.257c-0.984-0.464-1.838-1.232-2.557-2.306c-0.717-1.072-1.35-2.396-1.893-3.973
	c-0.217-0.552-0.244-1.222-0.08-2.013c0.16-0.788,0.324-1.529,0.492-2.226c0.258-0.798,0.611-1.61,1.063-2.435
	c0.449-0.821,0.756-1.628,0.918-2.418c0.26-0.801,0.648-1.35,1.17-1.65C324.164,330.799,324.857,330.596,325.723,330.496z"/>
</svg>
