<?xml version="1.0" encoding="utf-8"?>
<!-- Generator: Adobe Illustrator 15.1.0, SVG Export Plug-In . SVG Version: 6.00 Build 0)  -->
<!DOCTYPE svg PUBLIC "-//W3C//DTD SVG 1.1 Basic//EN" "http://www.w3.org/Graphics/SVG/1.1/DTD/svg11-basic.dtd">
<svg version="1.1" baseProfile="basic" id="Layer_1"
	 xmlns="http://www.w3.org/2000/svg" xmlns:xlink="http://www.w3.org/1999/xlink" x="0px" y="0px" width="103.75px"
	 height="50.25px" viewBox="0 0 103.75 50.25" xml:space="preserve">
<g>
	<path fill="#FFFFFF" d="M94.302,7.41c0.004,0,0.04,0.002,0.04,0.002s-0.056-0.006-0.058-0.006
		C94.29,7.406,94.296,7.408,94.302,7.41 M94.284,7.406H94.28H94.284z M18.187,3.704l-0.182,0.088l-0.13,0.153
		C17.211,4.72,16.517,5.89,15.812,7.32h-5.098L9.583,7.408c-4.264,0.309-7.658,3.958-7.658,8.302v24.432
		c0,4.596,3.741,8.336,8.336,8.336h83.326c4.598,0,8.338-3.74,8.338-8.336V15.71c0-4.293-3.346-7.934-7.623-8.3
		c-0.073-0.007-1.116-0.09-1.116-0.09H38.081c-2.372-2.195-6.055-3.852-9.374-4.142c0,0-0.134-0.011-0.207-0.017
		c0.021-0.151,0.035-0.354,0.06-0.495l0.209-1.156h-1.175C26.111,1.51,22.227,1.723,18.187,3.704"/>
	<path fill="#231F20" d="M53.389,22.029c1.132,0,2.123-0.096,2.123-1.411c0-1.298-0.991-1.396-2.123-1.396h-4.109v2.807H53.389z
		 M47.297,17.518h5.658c1.721,0,4.543,0,4.543,3.114c0,3.102-2.822,3.102-4.543,3.102h-3.675v3.94h-1.982V17.518z"/>
	<path fill="#231F20" d="M64.327,22.029c1.133,0,2.124-0.096,2.124-1.411c0-1.298-0.991-1.396-2.124-1.396H60.22v2.807H64.327z
		 M58.235,17.518h5.658c1.72,0,4.54,0,4.54,3.114c0,3.102-2.82,3.102-4.54,3.102H60.22v3.94h-1.984V17.518z"/>
	<path fill="#231F20" d="M75.616,22.029c1.131,0,2.122-0.096,2.122-1.411c0-1.298-0.991-1.396-2.122-1.396h-4.109v2.807H75.616z
		 M69.524,17.518h5.658c1.718,0,4.542,0,4.542,3.114c0,3.102-2.824,3.102-4.542,3.102h-3.676v3.94h-1.982V17.518z"/>
	<path fill="#231F20" d="M91.485,24.054c-0.193,1.133-1.005,3.871-5.672,3.871c-3.215,0-5.742-1.787-5.742-5.491
		c0-2.962,1.858-5.167,5.897-5.167c4.541,0,5.21,2.947,5.365,3.491H89.35c-0.113-0.349-0.896-1.787-3.271-1.787
		c-2.807,0-3.979,1.578-3.979,3.687c0,2.333,1.688,3.563,3.87,3.563c2.318,0,3.337-1.382,3.532-2.167H91.485z"/>
	<polygon fill="#231F20" points="52.727,39.887 52.727,34.859 50.995,38.523 50.149,38.523 48.376,34.859 48.376,39.887 
		47.235,39.887 47.235,32.367 48.376,32.367 50.573,37.047 52.727,32.367 53.868,32.367 53.868,39.887 	"/>
	<path fill="#231F20" d="M58.905,36.044c-0.169-0.402-0.549-0.677-1.057-0.677c-0.506,0-0.897,0.274-1.066,0.677
		c-0.105,0.242-0.126,0.399-0.136,0.728h2.406C59.043,36.443,59.011,36.286,58.905,36.044 M56.646,37.521
		c0,0.919,0.485,1.499,1.361,1.499c0.602,0,0.918-0.168,1.3-0.55l0.687,0.646c-0.551,0.548-1.068,0.834-2.008,0.834
		c-1.34,0-2.408-0.71-2.408-2.748c0-1.729,0.897-2.733,2.271-2.733c1.438,0,2.271,1.056,2.271,2.576v0.476H56.646z"/>
	<path fill="#231F20" d="M68.229,39.887v-3.266c0-0.834-0.474-1.192-1.075-1.192c-0.581,0-1.108,0.37-1.108,1.143v3.315h-1.077
		v-3.266c0-0.834-0.476-1.192-1.078-1.192c-0.602,0-1.11,0.37-1.11,1.192v3.266h-1.075v-5.355h1.057v0.539
		c0.358-0.391,0.886-0.602,1.425-0.602c0.667,0,1.183,0.263,1.521,0.782c0.432-0.527,0.971-0.782,1.68-0.782
		c0.549,0,1.033,0.18,1.352,0.484c0.41,0.403,0.569,0.909,0.569,1.511v3.423H68.229z"/>
	<path fill="#231F20" d="M73.532,35.429c-0.973,0-1.12,0.826-1.12,1.775c0,0.951,0.147,1.783,1.12,1.783
		c0.972,0,1.107-0.832,1.107-1.783C74.64,36.255,74.504,35.429,73.532,35.429 M75.115,39.477c-0.295,0.293-0.771,0.474-1.31,0.474
		c-0.581,0-1.014-0.149-1.415-0.635v0.571h-1.056v-7.52h1.077v2.703c0.392-0.464,0.834-0.602,1.405-0.602
		c0.539,0,1.003,0.18,1.298,0.476c0.539,0.538,0.603,1.445,0.603,2.26C75.718,38.018,75.654,38.936,75.115,39.477"/>
	<path fill="#231F20" d="M80.386,36.044c-0.17-0.402-0.55-0.677-1.056-0.677c-0.507,0-0.899,0.274-1.068,0.677
		c-0.105,0.242-0.125,0.399-0.136,0.728h2.406C80.522,36.443,80.489,36.286,80.386,36.044 M78.126,37.521
		c0,0.919,0.484,1.499,1.361,1.499c0.602,0,0.92-0.168,1.3-0.55l0.687,0.646c-0.551,0.548-1.066,0.834-2.006,0.834
		c-1.342,0-2.41-0.71-2.41-2.748c0-1.729,0.899-2.733,2.272-2.733c1.436,0,2.268,1.056,2.268,2.576v0.476H78.126z"/>
	<path fill="#231F20" d="M86.13,35.787c-0.241-0.241-0.433-0.358-0.803-0.358c-0.579,0-1.066,0.466-1.066,1.204v3.254h-1.077v-5.355
		h1.055v0.581c0.275-0.381,0.824-0.644,1.426-0.644c0.518,0,0.909,0.138,1.279,0.508L86.13,35.787z"/>
	<path fill="#231F20" d="M41.479,9.937h52.106c3.185,0,5.774,2.588,5.774,5.771v24.434c0,3.183-2.59,5.771-5.774,5.771H10.261
		c-3.183,0-5.771-2.589-5.771-5.771V15.708c0-3.183,2.588-5.771,5.771-5.771h1.555l0.698-1.586h-2.253
		c-4.055,0-7.355,3.302-7.355,7.357v24.434c0,4.055,3.3,7.354,7.355,7.354h83.324c4.059,0,7.358-3.3,7.358-7.354V15.708
		c0-4.055-3.3-7.357-7.358-7.357H41.752L41.479,9.937z"/>
	<path fill="#FFFFFF" d="M14.071,14.72c2.932,0.052,8.167,0.326,10.625,0.65c-0.031-0.541-0.161-2.14-0.194-3.048
		c0.585-0.125,1.961,0.071,2.52,0.518c-0.271,1.292-0.5,2.316-0.619,2.744c2.201,0.274,5.387,0.913,7.793,1.532
		c-1.954,0.621-4.137,1.156-6.206,1.472c1.382,1.829,4.327,7.458,5.386,9.841c0.222,0.453,0.87,2.105,1.167,2.951
		c-2.518-2.199-6.164-6.573-7.939-9.299c-1.348,1.482-4.766,4.657-6.904,6.448c1.338-3.929,3.177-8.588,4.124-10.122
		c-2.406-0.24-6.202-1.662-7.928-2.581C15.695,15.733,14.518,15.01,14.071,14.72"/>
	<path fill="#231F20" d="M24.502,12.322c0.589-0.125,1.961,0.079,2.518,0.527c-0.271,1.285-0.499,2.305-0.617,2.734
		c2.205,0.274,5.382,0.913,7.79,1.534c-1.954,0.619-4.133,1.152-6.202,1.47c1.38,1.829,4.327,7.458,5.386,9.843
		c2.565-0.74,7.659-3.447,9.115-5.016c-0.349-1.81-1.783-5.579-3.399-8.346c-0.721,0.433-1.693,0.884-2.814,1.317
		c0.648-2.278,1.238-5.365,1.47-8.082c-2.36-2.36-6.122-3.886-9.126-4.149c-0.236,1.76-0.848,5.008-1.382,7.631
		c-0.18-2.14-0.173-6.381,0.354-9.295c-2.283,0-5.662,0.47-8.975,2.093c-1.653,1.927-3.438,6.105-4.548,10.135
		c2.934,0.052,8.167,0.328,10.627,0.65C24.664,14.83,24.535,13.23,24.502,12.322 M26.604,22.081
		c-1.348,1.482-4.766,4.657-6.904,6.446c1.34-3.929,3.177-8.584,4.124-10.12c-2.406-0.24-6.202-1.662-7.928-2.579
		c-1.513,2.086-3.608,5.388-4.13,9.059c0.993,2.398,3.844,5.646,6.768,7.34c0.142-0.505,0.311-1.07,0.502-1.678
		c1.996,2.556,5.282,5.315,7.782,6.955c2.207-1.078,6.17-4.289,7.725-6.124C32.026,29.181,28.381,24.807,26.604,22.081"/>
</g>
</svg>
