<?xml version="1.0" encoding="utf-8"?>
<!-- Generator: Adobe Illustrator 15.1.0, SVG Export Plug-In . SVG Version: 6.00 Build 0)  -->
<!DOCTYPE svg PUBLIC "-//W3C//DTD SVG 1.1//EN" "http://www.w3.org/Graphics/SVG/1.1/DTD/svg11.dtd">
<svg version="1.1" id="Layer_1" xmlns="http://www.w3.org/2000/svg" xmlns:xlink="http://www.w3.org/1999/xlink" x="0px" y="0px"
	 width="300px" height="300px" viewBox="0 0 300 300" enable-background="new 0 0 300 300" xml:space="preserve">
<g>
	<path fill="#F77A52" d="M150,55c-46.017,0-83.481,36.21-83.481,80.716c0,28.883,11.718,46.074,20.357,58.733
		c5.304,7.784,8.326,12.402,8.326,17.079c0,10.463,5.587,20.328,15.567,27.741c0.257,6.215,1.168,21.355,1.168,21.355v0.028
		c0.17,4.306,2.423,13.116,17.278,18.048c1.739,2.565,4.02,4.847,6.814,6.728c1.739,1.171,3.792,1.798,5.901,1.798h16.138
		c2.108,0,4.162-0.627,5.901-1.798c2.794-1.881,5.075-4.162,6.843-6.728c14.94-4.96,17.136-13.913,17.249-18.076
		c0,0,0.914-15.141,1.169-21.355c9.979-7.384,15.568-17.278,15.568-27.741c0-4.647,3.022-9.295,8.382-17.165
		c8.553-12.545,20.3-29.736,20.3-58.647C233.481,91.209,196.019,55,150,55L150,55z M195.676,182.56
		c-6.158,9.038-11.975,17.563-11.975,28.969c0,5.019-4.533,9.038-7.898,11.375h-51.605c-3.364-2.337-7.897-6.356-7.897-11.375
		c0-11.405-5.816-19.931-12.061-29.082c-7.784-11.434-16.594-24.377-16.594-46.73c0-32.845,27.969-59.589,62.354-59.618
		c34.413,0,62.383,26.744,62.383,59.618C212.383,158.098,203.545,171.041,195.676,182.56L195.676,182.56z M195.676,182.56"/>
	<path fill="#F77A52" d="M150,39.144c2.908,0,5.275-2.334,5.275-5.267V18.052c0-2.912-2.367-5.278-5.275-5.278
		c-2.908,0-5.275,2.366-5.275,5.278v15.824C144.725,36.809,147.092,39.144,150,39.144L150,39.144z M150,39.144"/>
	<path fill="#F77A52" d="M93.918,50.327c0.998,1.679,2.766,2.651,4.59,2.651c0.884,0,1.796-0.228,2.624-0.716
		c2.538-1.454,3.393-4.672,1.938-7.213l-7.925-13.714c-1.454-2.534-4.676-3.393-7.213-1.935c-2.509,1.454-3.365,4.701-1.911,7.213
		L93.918,50.327z M93.918,50.327"/>
	<path fill="#F77A52" d="M63.438,80.803l-13.713-7.898c-2.508-1.454-5.759-0.599-7.213,1.939c-1.455,2.509-0.57,5.73,1.938,7.213
		l13.713,7.898c0.828,0.484,1.739,0.712,2.624,0.712c1.825,0,3.593-0.941,4.59-2.651C66.833,85.507,65.977,82.286,63.438,80.803
		L63.438,80.803z M63.438,80.803"/>
	<path fill="#F77A52" d="M52.263,136.884c0-2.907-2.338-5.275-5.274-5.275H31.167c-2.912,0-5.278,2.368-5.278,5.275
		c0,2.909,2.366,5.274,5.278,5.274h15.821C49.925,142.159,52.263,139.793,52.263,136.884L52.263,136.884z M52.263,136.884"/>
	<path fill="#F77A52" d="M58.164,183.814l-13.713,7.927c-2.538,1.454-3.394,4.675-1.938,7.185c0.969,1.71,2.766,2.651,4.561,2.651
		c0.914,0,1.825-0.229,2.652-0.713l13.713-7.896c2.509-1.482,3.394-4.704,1.94-7.214C63.923,183.217,60.702,182.36,58.164,183.814
		L58.164,183.814z M58.164,183.814"/>
	<path fill="#F77A52" d="M255.549,191.741l-13.713-7.927c-2.51-1.454-5.731-0.598-7.214,1.939c-1.453,2.51-0.57,5.731,1.938,7.214
		l13.714,7.896c0.827,0.484,1.741,0.713,2.624,0.713c1.825,0,3.593-0.941,4.591-2.623
		C258.943,196.416,258.087,193.195,255.549,191.741L255.549,191.741z M255.549,191.741"/>
	<path fill="#F77A52" d="M268.835,131.609h-15.821c-2.91,0-5.275,2.368-5.275,5.275c0,2.909,2.365,5.274,5.275,5.274h15.821
		c2.909,0,5.275-2.365,5.275-5.274C274.11,133.977,271.744,131.609,268.835,131.609L268.835,131.609z M268.835,131.609"/>
	<path fill="#F77A52" d="M239.213,90.667c0.884,0,1.795-0.228,2.623-0.712l13.713-7.898c2.538-1.454,3.395-4.705,1.94-7.213
		c-1.455-2.538-4.677-3.393-7.215-1.939l-13.714,7.898c-2.509,1.483-3.392,4.704-1.938,7.213
		C235.621,89.698,237.389,90.667,239.213,90.667L239.213,90.667z M239.213,90.667"/>
	<path fill="#F77A52" d="M198.868,52.234c0.82,0.488,1.739,0.713,2.624,0.713c1.825,0,3.593-0.941,4.591-2.62l7.897-13.714
		c1.453-2.513,0.599-5.759-1.938-7.214c-2.51-1.457-5.731-0.599-7.186,1.936l-7.927,13.714
		C195.477,47.561,196.331,50.78,198.868,52.234L198.868,52.234z M198.868,52.234"/>
</g>
</svg>
