<?xml version="1.0" encoding="utf-8"?>
<!-- Generator: Adobe Illustrator 15.1.0, SVG Export Plug-In . SVG Version: 6.00 Build 0)  -->
<!DOCTYPE svg PUBLIC "-//W3C//DTD SVG 1.1//EN" "http://www.w3.org/Graphics/SVG/1.1/DTD/svg11.dtd">
<svg version="1.1" id="Layer_1" xmlns="http://www.w3.org/2000/svg" xmlns:xlink="http://www.w3.org/1999/xlink" x="0px" y="0px"
	 width="300px" height="300px" viewBox="0 0 300 300" enable-background="new 0 0 300 300" xml:space="preserve">
<g>
	<g>
		<path fill="#F77A52" d="M248.486,114.634C249,69.5,256.498,41.892,256.58,41.598c0.654-2.389-0.497-4.901-2.73-5.968
			l-48.075-22.919c-1.303-0.622-2.808-0.663-4.142-0.114c-1.336,0.548-2.378,1.636-2.869,2.993
			c-0.084,0.23-8.483,23.395-19.291,46.271c-20.105,42.561-29.406,43.79-30.402,43.79c-0.043,0-0.087,0.006-0.133,0.006
			c-2.689-0.464-12.324-5.067-30.31-43.652c-10.655-22.862-18.778-46.073-18.86-46.307c-0.478-1.37-1.517-2.475-2.858-3.034
			c-1.344-0.561-2.857-0.524-4.171,0.101l-48.073,22.92c-2.233,1.066-3.384,3.579-2.73,5.968C42.017,41.949,50,75.5,50.026,114.688
			c0.025,37.032-23.924,53.15-23.924,54.687v111.854c0,2.825,2.288,5.113,5.113,5.113l236.084-0.054
			c2.825,0,5.113-2.288,5.113-5.113V169.321C272.413,167.801,248.038,154.006,248.486,114.634z M262.188,171.565v44.765h-45.234
			l23.305-175.848l5.431,2.589c-2.261,9.835-7.428,36.175-7.428,71.563C238.261,153.846,256.203,165.7,262.188,171.565
			L262.188,171.565z M188.722,66.23c7.896-16.713,14.534-33.588,17.69-41.885l2.567,1.224L182.003,216.33h-27.444V114.697
			C161.774,111.545,172.446,100.682,188.722,66.23L188.722,66.23z M109.33,66.26c16.222,34.82,27.151,45.56,34.628,48.585v101.541
			h-27.445L89.537,25.624l2.513-1.197C95.122,32.756,101.562,49.588,109.33,66.26L109.33,66.26z M60.255,114.688
			c0-35.388-5.164-61.727-7.428-71.563l5.431-2.589l23.304,175.848H36.329v-44.766C42.313,165.757,60.255,153.902,60.255,114.688
			L60.255,114.688z M36.329,251.852h107.629v24.266H36.329V251.852z M154.559,276.063v-24.265h107.629v24.265H154.559z
			 M154.559,276.063"/>
	</g>
</g>
<path fill="#F77A52" d="M99.768,15.698c0,0,26.612,10.157,50.051,10.157c23.693,0,50.69-11.186,50.69-11.186v12.154
	c0,0-28.428,10.154-50.69,10.154c-22.263,0-48.898-9.448-48.898-9.448L99.768,15.698z"/>
<rect x="141.386" y="35.169" fill="#F77A52" width="17.505" height="10.882"/>
</svg>
